%TF.GenerationSoftware,KiCad,Pcbnew,(6.0.2)*%
%TF.CreationDate,2022-10-21T14:00:44+13:00*%
%TF.ProjectId,PiPicoCNCShield,50695069-636f-4434-9e43-536869656c64,rev?*%
%TF.SameCoordinates,Original*%
%TF.FileFunction,Legend,Top*%
%TF.FilePolarity,Positive*%
%FSLAX46Y46*%
G04 Gerber Fmt 4.6, Leading zero omitted, Abs format (unit mm)*
G04 Created by KiCad (PCBNEW (6.0.2)) date 2022-10-21 14:00:44*
%MOMM*%
%LPD*%
G01*
G04 APERTURE LIST*
%ADD10C,0.150000*%
%ADD11C,0.300000*%
%ADD12C,0.120000*%
G04 APERTURE END LIST*
D10*
X144023809Y-78702380D02*
X144023809Y-77702380D01*
X144023809Y-78178571D02*
X144595238Y-78178571D01*
X144595238Y-78702380D02*
X144595238Y-77702380D01*
X150119047Y-78702380D02*
X149642857Y-78702380D01*
X149642857Y-77702380D01*
X144023809Y-101202380D02*
X144023809Y-100202380D01*
X144023809Y-100678571D02*
X144595238Y-100678571D01*
X144595238Y-101202380D02*
X144595238Y-100202380D01*
X150119047Y-101202380D02*
X149642857Y-101202380D01*
X149642857Y-100202380D01*
X144023809Y-146202380D02*
X144023809Y-145202380D01*
X144023809Y-145678571D02*
X144595238Y-145678571D01*
X144595238Y-146202380D02*
X144595238Y-145202380D01*
X150119047Y-146202380D02*
X149642857Y-146202380D01*
X149642857Y-145202380D01*
X144038809Y-124202380D02*
X144038809Y-123202380D01*
X144038809Y-123678571D02*
X144610238Y-123678571D01*
X144610238Y-124202380D02*
X144610238Y-123202380D01*
X150134047Y-124202380D02*
X149657857Y-124202380D01*
X149657857Y-123202380D01*
X113047619Y-147297619D02*
X113000000Y-147250000D01*
X112952380Y-147154761D01*
X112952380Y-146916666D01*
X113000000Y-146821428D01*
X113047619Y-146773809D01*
X113142857Y-146726190D01*
X113238095Y-146726190D01*
X113380952Y-146773809D01*
X113952380Y-147345238D01*
X113952380Y-146726190D01*
X113952380Y-141202380D02*
X113952380Y-141773809D01*
X113952380Y-141488095D02*
X112952380Y-141488095D01*
X113095238Y-141583333D01*
X113190476Y-141678571D01*
X113238095Y-141773809D01*
X113047619Y-127547619D02*
X113000000Y-127500000D01*
X112952380Y-127404761D01*
X112952380Y-127166666D01*
X113000000Y-127071428D01*
X113047619Y-127023809D01*
X113142857Y-126976190D01*
X113238095Y-126976190D01*
X113380952Y-127023809D01*
X113952380Y-127595238D01*
X113952380Y-126976190D01*
X113952380Y-121452380D02*
X113952380Y-122023809D01*
X113952380Y-121738095D02*
X112952380Y-121738095D01*
X113095238Y-121833333D01*
X113190476Y-121928571D01*
X113238095Y-122023809D01*
X113047619Y-105297619D02*
X113000000Y-105250000D01*
X112952380Y-105154761D01*
X112952380Y-104916666D01*
X113000000Y-104821428D01*
X113047619Y-104773809D01*
X113142857Y-104726190D01*
X113238095Y-104726190D01*
X113380952Y-104773809D01*
X113952380Y-105345238D01*
X113952380Y-104726190D01*
X113952380Y-99202380D02*
X113952380Y-99773809D01*
X113952380Y-99488095D02*
X112952380Y-99488095D01*
X113095238Y-99583333D01*
X113190476Y-99678571D01*
X113238095Y-99773809D01*
X113047619Y-83547619D02*
X113000000Y-83500000D01*
X112952380Y-83404761D01*
X112952380Y-83166666D01*
X113000000Y-83071428D01*
X113047619Y-83023809D01*
X113142857Y-82976190D01*
X113238095Y-82976190D01*
X113380952Y-83023809D01*
X113952380Y-83595238D01*
X113952380Y-82976190D01*
X113952380Y-77452380D02*
X113952380Y-78023809D01*
X113952380Y-77738095D02*
X112952380Y-77738095D01*
X113095238Y-77833333D01*
X113190476Y-77928571D01*
X113238095Y-78023809D01*
X140928571Y-67714285D02*
X140928571Y-67380952D01*
X141452380Y-67238095D02*
X141452380Y-67714285D01*
X140452380Y-67714285D01*
X140452380Y-67238095D01*
X140785714Y-66809523D02*
X141452380Y-66809523D01*
X140880952Y-66809523D02*
X140833333Y-66761904D01*
X140785714Y-66666666D01*
X140785714Y-66523809D01*
X140833333Y-66428571D01*
X140928571Y-66380952D01*
X141452380Y-66380952D01*
X141452380Y-65476190D02*
X140452380Y-65476190D01*
X141404761Y-65476190D02*
X141452380Y-65571428D01*
X141452380Y-65761904D01*
X141404761Y-65857142D01*
X141357142Y-65904761D01*
X141261904Y-65952380D01*
X140976190Y-65952380D01*
X140880952Y-65904761D01*
X140833333Y-65857142D01*
X140785714Y-65761904D01*
X140785714Y-65571428D01*
X140833333Y-65476190D01*
X141404761Y-65047619D02*
X141452380Y-64952380D01*
X141452380Y-64761904D01*
X141404761Y-64666666D01*
X141309523Y-64619047D01*
X141261904Y-64619047D01*
X141166666Y-64666666D01*
X141119047Y-64761904D01*
X141119047Y-64904761D01*
X141071428Y-65000000D01*
X140976190Y-65047619D01*
X140928571Y-65047619D01*
X140833333Y-65000000D01*
X140785714Y-64904761D01*
X140785714Y-64761904D01*
X140833333Y-64666666D01*
X140785714Y-64333333D02*
X140785714Y-63952380D01*
X140452380Y-64190476D02*
X141309523Y-64190476D01*
X141404761Y-64142857D01*
X141452380Y-64047619D01*
X141452380Y-63952380D01*
X141452380Y-63476190D02*
X141404761Y-63571428D01*
X141357142Y-63619047D01*
X141261904Y-63666666D01*
X140976190Y-63666666D01*
X140880952Y-63619047D01*
X140833333Y-63571428D01*
X140785714Y-63476190D01*
X140785714Y-63333333D01*
X140833333Y-63238095D01*
X140880952Y-63190476D01*
X140976190Y-63142857D01*
X141261904Y-63142857D01*
X141357142Y-63190476D01*
X141404761Y-63238095D01*
X141452380Y-63333333D01*
X141452380Y-63476190D01*
X140785714Y-62714285D02*
X141785714Y-62714285D01*
X140833333Y-62714285D02*
X140785714Y-62619047D01*
X140785714Y-62428571D01*
X140833333Y-62333333D01*
X140880952Y-62285714D01*
X140976190Y-62238095D01*
X141261904Y-62238095D01*
X141357142Y-62285714D01*
X141404761Y-62333333D01*
X141452380Y-62428571D01*
X141452380Y-62619047D01*
X141404761Y-62714285D01*
X141178571Y-90214285D02*
X141178571Y-89880952D01*
X141702380Y-89738095D02*
X141702380Y-90214285D01*
X140702380Y-90214285D01*
X140702380Y-89738095D01*
X141035714Y-89309523D02*
X141702380Y-89309523D01*
X141130952Y-89309523D02*
X141083333Y-89261904D01*
X141035714Y-89166666D01*
X141035714Y-89023809D01*
X141083333Y-88928571D01*
X141178571Y-88880952D01*
X141702380Y-88880952D01*
X141702380Y-87976190D02*
X140702380Y-87976190D01*
X141654761Y-87976190D02*
X141702380Y-88071428D01*
X141702380Y-88261904D01*
X141654761Y-88357142D01*
X141607142Y-88404761D01*
X141511904Y-88452380D01*
X141226190Y-88452380D01*
X141130952Y-88404761D01*
X141083333Y-88357142D01*
X141035714Y-88261904D01*
X141035714Y-88071428D01*
X141083333Y-87976190D01*
X141654761Y-87547619D02*
X141702380Y-87452380D01*
X141702380Y-87261904D01*
X141654761Y-87166666D01*
X141559523Y-87119047D01*
X141511904Y-87119047D01*
X141416666Y-87166666D01*
X141369047Y-87261904D01*
X141369047Y-87404761D01*
X141321428Y-87500000D01*
X141226190Y-87547619D01*
X141178571Y-87547619D01*
X141083333Y-87500000D01*
X141035714Y-87404761D01*
X141035714Y-87261904D01*
X141083333Y-87166666D01*
X141035714Y-86833333D02*
X141035714Y-86452380D01*
X140702380Y-86690476D02*
X141559523Y-86690476D01*
X141654761Y-86642857D01*
X141702380Y-86547619D01*
X141702380Y-86452380D01*
X141702380Y-85976190D02*
X141654761Y-86071428D01*
X141607142Y-86119047D01*
X141511904Y-86166666D01*
X141226190Y-86166666D01*
X141130952Y-86119047D01*
X141083333Y-86071428D01*
X141035714Y-85976190D01*
X141035714Y-85833333D01*
X141083333Y-85738095D01*
X141130952Y-85690476D01*
X141226190Y-85642857D01*
X141511904Y-85642857D01*
X141607142Y-85690476D01*
X141654761Y-85738095D01*
X141702380Y-85833333D01*
X141702380Y-85976190D01*
X141035714Y-85214285D02*
X142035714Y-85214285D01*
X141083333Y-85214285D02*
X141035714Y-85119047D01*
X141035714Y-84928571D01*
X141083333Y-84833333D01*
X141130952Y-84785714D01*
X141226190Y-84738095D01*
X141511904Y-84738095D01*
X141607142Y-84785714D01*
X141654761Y-84833333D01*
X141702380Y-84928571D01*
X141702380Y-85119047D01*
X141654761Y-85214285D01*
X141178571Y-112714285D02*
X141178571Y-112380952D01*
X141702380Y-112238095D02*
X141702380Y-112714285D01*
X140702380Y-112714285D01*
X140702380Y-112238095D01*
X141035714Y-111809523D02*
X141702380Y-111809523D01*
X141130952Y-111809523D02*
X141083333Y-111761904D01*
X141035714Y-111666666D01*
X141035714Y-111523809D01*
X141083333Y-111428571D01*
X141178571Y-111380952D01*
X141702380Y-111380952D01*
X141702380Y-110476190D02*
X140702380Y-110476190D01*
X141654761Y-110476190D02*
X141702380Y-110571428D01*
X141702380Y-110761904D01*
X141654761Y-110857142D01*
X141607142Y-110904761D01*
X141511904Y-110952380D01*
X141226190Y-110952380D01*
X141130952Y-110904761D01*
X141083333Y-110857142D01*
X141035714Y-110761904D01*
X141035714Y-110571428D01*
X141083333Y-110476190D01*
X141654761Y-110047619D02*
X141702380Y-109952380D01*
X141702380Y-109761904D01*
X141654761Y-109666666D01*
X141559523Y-109619047D01*
X141511904Y-109619047D01*
X141416666Y-109666666D01*
X141369047Y-109761904D01*
X141369047Y-109904761D01*
X141321428Y-110000000D01*
X141226190Y-110047619D01*
X141178571Y-110047619D01*
X141083333Y-110000000D01*
X141035714Y-109904761D01*
X141035714Y-109761904D01*
X141083333Y-109666666D01*
X141035714Y-109333333D02*
X141035714Y-108952380D01*
X140702380Y-109190476D02*
X141559523Y-109190476D01*
X141654761Y-109142857D01*
X141702380Y-109047619D01*
X141702380Y-108952380D01*
X141702380Y-108476190D02*
X141654761Y-108571428D01*
X141607142Y-108619047D01*
X141511904Y-108666666D01*
X141226190Y-108666666D01*
X141130952Y-108619047D01*
X141083333Y-108571428D01*
X141035714Y-108476190D01*
X141035714Y-108333333D01*
X141083333Y-108238095D01*
X141130952Y-108190476D01*
X141226190Y-108142857D01*
X141511904Y-108142857D01*
X141607142Y-108190476D01*
X141654761Y-108238095D01*
X141702380Y-108333333D01*
X141702380Y-108476190D01*
X141035714Y-107714285D02*
X142035714Y-107714285D01*
X141083333Y-107714285D02*
X141035714Y-107619047D01*
X141035714Y-107428571D01*
X141083333Y-107333333D01*
X141130952Y-107285714D01*
X141226190Y-107238095D01*
X141511904Y-107238095D01*
X141607142Y-107285714D01*
X141654761Y-107333333D01*
X141702380Y-107428571D01*
X141702380Y-107619047D01*
X141654761Y-107714285D01*
X141178571Y-135464285D02*
X141178571Y-135130952D01*
X141702380Y-134988095D02*
X141702380Y-135464285D01*
X140702380Y-135464285D01*
X140702380Y-134988095D01*
X141035714Y-134559523D02*
X141702380Y-134559523D01*
X141130952Y-134559523D02*
X141083333Y-134511904D01*
X141035714Y-134416666D01*
X141035714Y-134273809D01*
X141083333Y-134178571D01*
X141178571Y-134130952D01*
X141702380Y-134130952D01*
X141702380Y-133226190D02*
X140702380Y-133226190D01*
X141654761Y-133226190D02*
X141702380Y-133321428D01*
X141702380Y-133511904D01*
X141654761Y-133607142D01*
X141607142Y-133654761D01*
X141511904Y-133702380D01*
X141226190Y-133702380D01*
X141130952Y-133654761D01*
X141083333Y-133607142D01*
X141035714Y-133511904D01*
X141035714Y-133321428D01*
X141083333Y-133226190D01*
X141654761Y-132797619D02*
X141702380Y-132702380D01*
X141702380Y-132511904D01*
X141654761Y-132416666D01*
X141559523Y-132369047D01*
X141511904Y-132369047D01*
X141416666Y-132416666D01*
X141369047Y-132511904D01*
X141369047Y-132654761D01*
X141321428Y-132750000D01*
X141226190Y-132797619D01*
X141178571Y-132797619D01*
X141083333Y-132750000D01*
X141035714Y-132654761D01*
X141035714Y-132511904D01*
X141083333Y-132416666D01*
X141035714Y-132083333D02*
X141035714Y-131702380D01*
X140702380Y-131940476D02*
X141559523Y-131940476D01*
X141654761Y-131892857D01*
X141702380Y-131797619D01*
X141702380Y-131702380D01*
X141702380Y-131226190D02*
X141654761Y-131321428D01*
X141607142Y-131369047D01*
X141511904Y-131416666D01*
X141226190Y-131416666D01*
X141130952Y-131369047D01*
X141083333Y-131321428D01*
X141035714Y-131226190D01*
X141035714Y-131083333D01*
X141083333Y-130988095D01*
X141130952Y-130940476D01*
X141226190Y-130892857D01*
X141511904Y-130892857D01*
X141607142Y-130940476D01*
X141654761Y-130988095D01*
X141702380Y-131083333D01*
X141702380Y-131226190D01*
X141035714Y-130464285D02*
X142035714Y-130464285D01*
X141083333Y-130464285D02*
X141035714Y-130369047D01*
X141035714Y-130178571D01*
X141083333Y-130083333D01*
X141130952Y-130035714D01*
X141226190Y-129988095D01*
X141511904Y-129988095D01*
X141607142Y-130035714D01*
X141654761Y-130083333D01*
X141702380Y-130178571D01*
X141702380Y-130369047D01*
X141654761Y-130464285D01*
D11*
X110178571Y-70928571D02*
X108678571Y-70928571D01*
X109750000Y-70428571D01*
X108678571Y-69928571D01*
X110178571Y-69928571D01*
X108678571Y-68928571D02*
X108678571Y-68642857D01*
X108750000Y-68500000D01*
X108892857Y-68357142D01*
X109178571Y-68285714D01*
X109678571Y-68285714D01*
X109964285Y-68357142D01*
X110107142Y-68500000D01*
X110178571Y-68642857D01*
X110178571Y-68928571D01*
X110107142Y-69071428D01*
X109964285Y-69214285D01*
X109678571Y-69285714D01*
X109178571Y-69285714D01*
X108892857Y-69214285D01*
X108750000Y-69071428D01*
X108678571Y-68928571D01*
X108678571Y-67857142D02*
X108678571Y-67000000D01*
X110178571Y-67428571D02*
X108678571Y-67428571D01*
X108678571Y-66214285D02*
X108678571Y-65928571D01*
X108750000Y-65785714D01*
X108892857Y-65642857D01*
X109178571Y-65571428D01*
X109678571Y-65571428D01*
X109964285Y-65642857D01*
X110107142Y-65785714D01*
X110178571Y-65928571D01*
X110178571Y-66214285D01*
X110107142Y-66357142D01*
X109964285Y-66500000D01*
X109678571Y-66571428D01*
X109178571Y-66571428D01*
X108892857Y-66500000D01*
X108750000Y-66357142D01*
X108678571Y-66214285D01*
X110178571Y-64071428D02*
X109464285Y-64571428D01*
X110178571Y-64928571D02*
X108678571Y-64928571D01*
X108678571Y-64357142D01*
X108750000Y-64214285D01*
X108821428Y-64142857D01*
X108964285Y-64071428D01*
X109178571Y-64071428D01*
X109321428Y-64142857D01*
X109392857Y-64214285D01*
X109464285Y-64357142D01*
X109464285Y-64928571D01*
X109178571Y-61642857D02*
X110178571Y-61642857D01*
X108607142Y-62000000D02*
X109678571Y-62357142D01*
X109678571Y-61428571D01*
X110178571Y-89428571D02*
X108678571Y-89428571D01*
X109750000Y-88928571D01*
X108678571Y-88428571D01*
X110178571Y-88428571D01*
X108678571Y-87428571D02*
X108678571Y-87142857D01*
X108750000Y-87000000D01*
X108892857Y-86857142D01*
X109178571Y-86785714D01*
X109678571Y-86785714D01*
X109964285Y-86857142D01*
X110107142Y-87000000D01*
X110178571Y-87142857D01*
X110178571Y-87428571D01*
X110107142Y-87571428D01*
X109964285Y-87714285D01*
X109678571Y-87785714D01*
X109178571Y-87785714D01*
X108892857Y-87714285D01*
X108750000Y-87571428D01*
X108678571Y-87428571D01*
X108678571Y-86357142D02*
X108678571Y-85500000D01*
X110178571Y-85928571D02*
X108678571Y-85928571D01*
X108678571Y-84714285D02*
X108678571Y-84428571D01*
X108750000Y-84285714D01*
X108892857Y-84142857D01*
X109178571Y-84071428D01*
X109678571Y-84071428D01*
X109964285Y-84142857D01*
X110107142Y-84285714D01*
X110178571Y-84428571D01*
X110178571Y-84714285D01*
X110107142Y-84857142D01*
X109964285Y-85000000D01*
X109678571Y-85071428D01*
X109178571Y-85071428D01*
X108892857Y-85000000D01*
X108750000Y-84857142D01*
X108678571Y-84714285D01*
X110178571Y-82571428D02*
X109464285Y-83071428D01*
X110178571Y-83428571D02*
X108678571Y-83428571D01*
X108678571Y-82857142D01*
X108750000Y-82714285D01*
X108821428Y-82642857D01*
X108964285Y-82571428D01*
X109178571Y-82571428D01*
X109321428Y-82642857D01*
X109392857Y-82714285D01*
X109464285Y-82857142D01*
X109464285Y-83428571D01*
X108678571Y-80928571D02*
X108678571Y-80000000D01*
X109250000Y-80500000D01*
X109250000Y-80285714D01*
X109321428Y-80142857D01*
X109392857Y-80071428D01*
X109535714Y-80000000D01*
X109892857Y-80000000D01*
X110035714Y-80071428D01*
X110107142Y-80142857D01*
X110178571Y-80285714D01*
X110178571Y-80714285D01*
X110107142Y-80857142D01*
X110035714Y-80928571D01*
X110178571Y-112428571D02*
X108678571Y-112428571D01*
X109750000Y-111928571D01*
X108678571Y-111428571D01*
X110178571Y-111428571D01*
X108678571Y-110428571D02*
X108678571Y-110142857D01*
X108750000Y-110000000D01*
X108892857Y-109857142D01*
X109178571Y-109785714D01*
X109678571Y-109785714D01*
X109964285Y-109857142D01*
X110107142Y-110000000D01*
X110178571Y-110142857D01*
X110178571Y-110428571D01*
X110107142Y-110571428D01*
X109964285Y-110714285D01*
X109678571Y-110785714D01*
X109178571Y-110785714D01*
X108892857Y-110714285D01*
X108750000Y-110571428D01*
X108678571Y-110428571D01*
X108678571Y-109357142D02*
X108678571Y-108500000D01*
X110178571Y-108928571D02*
X108678571Y-108928571D01*
X108678571Y-107714285D02*
X108678571Y-107428571D01*
X108750000Y-107285714D01*
X108892857Y-107142857D01*
X109178571Y-107071428D01*
X109678571Y-107071428D01*
X109964285Y-107142857D01*
X110107142Y-107285714D01*
X110178571Y-107428571D01*
X110178571Y-107714285D01*
X110107142Y-107857142D01*
X109964285Y-108000000D01*
X109678571Y-108071428D01*
X109178571Y-108071428D01*
X108892857Y-108000000D01*
X108750000Y-107857142D01*
X108678571Y-107714285D01*
X110178571Y-105571428D02*
X109464285Y-106071428D01*
X110178571Y-106428571D02*
X108678571Y-106428571D01*
X108678571Y-105857142D01*
X108750000Y-105714285D01*
X108821428Y-105642857D01*
X108964285Y-105571428D01*
X109178571Y-105571428D01*
X109321428Y-105642857D01*
X109392857Y-105714285D01*
X109464285Y-105857142D01*
X109464285Y-106428571D01*
X108821428Y-103857142D02*
X108750000Y-103785714D01*
X108678571Y-103642857D01*
X108678571Y-103285714D01*
X108750000Y-103142857D01*
X108821428Y-103071428D01*
X108964285Y-103000000D01*
X109107142Y-103000000D01*
X109321428Y-103071428D01*
X110178571Y-103928571D01*
X110178571Y-103000000D01*
X109928571Y-134428571D02*
X108428571Y-134428571D01*
X109500000Y-133928571D01*
X108428571Y-133428571D01*
X109928571Y-133428571D01*
X108428571Y-132428571D02*
X108428571Y-132142857D01*
X108500000Y-132000000D01*
X108642857Y-131857142D01*
X108928571Y-131785714D01*
X109428571Y-131785714D01*
X109714285Y-131857142D01*
X109857142Y-132000000D01*
X109928571Y-132142857D01*
X109928571Y-132428571D01*
X109857142Y-132571428D01*
X109714285Y-132714285D01*
X109428571Y-132785714D01*
X108928571Y-132785714D01*
X108642857Y-132714285D01*
X108500000Y-132571428D01*
X108428571Y-132428571D01*
X108428571Y-131357142D02*
X108428571Y-130500000D01*
X109928571Y-130928571D02*
X108428571Y-130928571D01*
X108428571Y-129714285D02*
X108428571Y-129428571D01*
X108500000Y-129285714D01*
X108642857Y-129142857D01*
X108928571Y-129071428D01*
X109428571Y-129071428D01*
X109714285Y-129142857D01*
X109857142Y-129285714D01*
X109928571Y-129428571D01*
X109928571Y-129714285D01*
X109857142Y-129857142D01*
X109714285Y-130000000D01*
X109428571Y-130071428D01*
X108928571Y-130071428D01*
X108642857Y-130000000D01*
X108500000Y-129857142D01*
X108428571Y-129714285D01*
X109928571Y-127571428D02*
X109214285Y-128071428D01*
X109928571Y-128428571D02*
X108428571Y-128428571D01*
X108428571Y-127857142D01*
X108500000Y-127714285D01*
X108571428Y-127642857D01*
X108714285Y-127571428D01*
X108928571Y-127571428D01*
X109071428Y-127642857D01*
X109142857Y-127714285D01*
X109214285Y-127857142D01*
X109214285Y-128428571D01*
X109928571Y-125000000D02*
X109928571Y-125857142D01*
X109928571Y-125428571D02*
X108428571Y-125428571D01*
X108642857Y-125571428D01*
X108785714Y-125714285D01*
X108857142Y-125857142D01*
D10*
%TO.C,R1*%
X192833333Y-67852380D02*
X192500000Y-67376190D01*
X192261904Y-67852380D02*
X192261904Y-66852380D01*
X192642857Y-66852380D01*
X192738095Y-66900000D01*
X192785714Y-66947619D01*
X192833333Y-67042857D01*
X192833333Y-67185714D01*
X192785714Y-67280952D01*
X192738095Y-67328571D01*
X192642857Y-67376190D01*
X192261904Y-67376190D01*
X193785714Y-67852380D02*
X193214285Y-67852380D01*
X193500000Y-67852380D02*
X193500000Y-66852380D01*
X193404761Y-66995238D01*
X193309523Y-67090476D01*
X193214285Y-67138095D01*
%TO.C,J23*%
X103690476Y-114452380D02*
X103690476Y-115166666D01*
X103642857Y-115309523D01*
X103547619Y-115404761D01*
X103404761Y-115452380D01*
X103309523Y-115452380D01*
X104119047Y-114547619D02*
X104166666Y-114500000D01*
X104261904Y-114452380D01*
X104500000Y-114452380D01*
X104595238Y-114500000D01*
X104642857Y-114547619D01*
X104690476Y-114642857D01*
X104690476Y-114738095D01*
X104642857Y-114880952D01*
X104071428Y-115452380D01*
X104690476Y-115452380D01*
X105023809Y-114452380D02*
X105642857Y-114452380D01*
X105309523Y-114833333D01*
X105452380Y-114833333D01*
X105547619Y-114880952D01*
X105595238Y-114928571D01*
X105642857Y-115023809D01*
X105642857Y-115261904D01*
X105595238Y-115357142D01*
X105547619Y-115404761D01*
X105452380Y-115452380D01*
X105166666Y-115452380D01*
X105071428Y-115404761D01*
X105023809Y-115357142D01*
%TO.C,J22*%
X141597380Y-120814523D02*
X142311666Y-120814523D01*
X142454523Y-120862142D01*
X142549761Y-120957380D01*
X142597380Y-121100238D01*
X142597380Y-121195476D01*
X141692619Y-120385952D02*
X141645000Y-120338333D01*
X141597380Y-120243095D01*
X141597380Y-120005000D01*
X141645000Y-119909761D01*
X141692619Y-119862142D01*
X141787857Y-119814523D01*
X141883095Y-119814523D01*
X142025952Y-119862142D01*
X142597380Y-120433571D01*
X142597380Y-119814523D01*
X141692619Y-119433571D02*
X141645000Y-119385952D01*
X141597380Y-119290714D01*
X141597380Y-119052619D01*
X141645000Y-118957380D01*
X141692619Y-118909761D01*
X141787857Y-118862142D01*
X141883095Y-118862142D01*
X142025952Y-118909761D01*
X142597380Y-119481190D01*
X142597380Y-118862142D01*
%TO.C,J13*%
X115190476Y-75097380D02*
X115190476Y-75811666D01*
X115142857Y-75954523D01*
X115047619Y-76049761D01*
X114904761Y-76097380D01*
X114809523Y-76097380D01*
X116190476Y-76097380D02*
X115619047Y-76097380D01*
X115904761Y-76097380D02*
X115904761Y-75097380D01*
X115809523Y-75240238D01*
X115714285Y-75335476D01*
X115619047Y-75383095D01*
X116523809Y-75097380D02*
X117142857Y-75097380D01*
X116809523Y-75478333D01*
X116952380Y-75478333D01*
X117047619Y-75525952D01*
X117095238Y-75573571D01*
X117142857Y-75668809D01*
X117142857Y-75906904D01*
X117095238Y-76002142D01*
X117047619Y-76049761D01*
X116952380Y-76097380D01*
X116666666Y-76097380D01*
X116571428Y-76049761D01*
X116523809Y-76002142D01*
%TO.C,J14*%
X141597380Y-75314523D02*
X142311666Y-75314523D01*
X142454523Y-75362142D01*
X142549761Y-75457380D01*
X142597380Y-75600238D01*
X142597380Y-75695476D01*
X142597380Y-74314523D02*
X142597380Y-74885952D01*
X142597380Y-74600238D02*
X141597380Y-74600238D01*
X141740238Y-74695476D01*
X141835476Y-74790714D01*
X141883095Y-74885952D01*
X141930714Y-73457380D02*
X142597380Y-73457380D01*
X141549761Y-73695476D02*
X142264047Y-73933571D01*
X142264047Y-73314523D01*
%TO.C,J15*%
X103690476Y-73202380D02*
X103690476Y-73916666D01*
X103642857Y-74059523D01*
X103547619Y-74154761D01*
X103404761Y-74202380D01*
X103309523Y-74202380D01*
X104690476Y-74202380D02*
X104119047Y-74202380D01*
X104404761Y-74202380D02*
X104404761Y-73202380D01*
X104309523Y-73345238D01*
X104214285Y-73440476D01*
X104119047Y-73488095D01*
X105595238Y-73202380D02*
X105119047Y-73202380D01*
X105071428Y-73678571D01*
X105119047Y-73630952D01*
X105214285Y-73583333D01*
X105452380Y-73583333D01*
X105547619Y-73630952D01*
X105595238Y-73678571D01*
X105642857Y-73773809D01*
X105642857Y-74011904D01*
X105595238Y-74107142D01*
X105547619Y-74154761D01*
X105452380Y-74202380D01*
X105214285Y-74202380D01*
X105119047Y-74154761D01*
X105071428Y-74107142D01*
%TO.C,J16*%
X147190476Y-68527380D02*
X147190476Y-69241666D01*
X147142857Y-69384523D01*
X147047619Y-69479761D01*
X146904761Y-69527380D01*
X146809523Y-69527380D01*
X148190476Y-69527380D02*
X147619047Y-69527380D01*
X147904761Y-69527380D02*
X147904761Y-68527380D01*
X147809523Y-68670238D01*
X147714285Y-68765476D01*
X147619047Y-68813095D01*
X149047619Y-68527380D02*
X148857142Y-68527380D01*
X148761904Y-68575000D01*
X148714285Y-68622619D01*
X148619047Y-68765476D01*
X148571428Y-68955952D01*
X148571428Y-69336904D01*
X148619047Y-69432142D01*
X148666666Y-69479761D01*
X148761904Y-69527380D01*
X148952380Y-69527380D01*
X149047619Y-69479761D01*
X149095238Y-69432142D01*
X149142857Y-69336904D01*
X149142857Y-69098809D01*
X149095238Y-69003571D01*
X149047619Y-68955952D01*
X148952380Y-68908333D01*
X148761904Y-68908333D01*
X148666666Y-68955952D01*
X148619047Y-69003571D01*
X148571428Y-69098809D01*
%TO.C,J19*%
X103690476Y-91952380D02*
X103690476Y-92666666D01*
X103642857Y-92809523D01*
X103547619Y-92904761D01*
X103404761Y-92952380D01*
X103309523Y-92952380D01*
X104690476Y-92952380D02*
X104119047Y-92952380D01*
X104404761Y-92952380D02*
X104404761Y-91952380D01*
X104309523Y-92095238D01*
X104214285Y-92190476D01*
X104119047Y-92238095D01*
X105166666Y-92952380D02*
X105357142Y-92952380D01*
X105452380Y-92904761D01*
X105500000Y-92857142D01*
X105595238Y-92714285D01*
X105642857Y-92523809D01*
X105642857Y-92142857D01*
X105595238Y-92047619D01*
X105547619Y-92000000D01*
X105452380Y-91952380D01*
X105261904Y-91952380D01*
X105166666Y-92000000D01*
X105119047Y-92047619D01*
X105071428Y-92142857D01*
X105071428Y-92380952D01*
X105119047Y-92476190D01*
X105166666Y-92523809D01*
X105261904Y-92571428D01*
X105452380Y-92571428D01*
X105547619Y-92523809D01*
X105595238Y-92476190D01*
X105642857Y-92380952D01*
%TO.C,J20*%
X147190476Y-91027380D02*
X147190476Y-91741666D01*
X147142857Y-91884523D01*
X147047619Y-91979761D01*
X146904761Y-92027380D01*
X146809523Y-92027380D01*
X147619047Y-91122619D02*
X147666666Y-91075000D01*
X147761904Y-91027380D01*
X148000000Y-91027380D01*
X148095238Y-91075000D01*
X148142857Y-91122619D01*
X148190476Y-91217857D01*
X148190476Y-91313095D01*
X148142857Y-91455952D01*
X147571428Y-92027380D01*
X148190476Y-92027380D01*
X148809523Y-91027380D02*
X148904761Y-91027380D01*
X149000000Y-91075000D01*
X149047619Y-91122619D01*
X149095238Y-91217857D01*
X149142857Y-91408333D01*
X149142857Y-91646428D01*
X149095238Y-91836904D01*
X149047619Y-91932142D01*
X149000000Y-91979761D01*
X148904761Y-92027380D01*
X148809523Y-92027380D01*
X148714285Y-91979761D01*
X148666666Y-91932142D01*
X148619047Y-91836904D01*
X148571428Y-91646428D01*
X148571428Y-91408333D01*
X148619047Y-91217857D01*
X148666666Y-91122619D01*
X148714285Y-91075000D01*
X148809523Y-91027380D01*
%TO.C,J18*%
X141597380Y-97814523D02*
X142311666Y-97814523D01*
X142454523Y-97862142D01*
X142549761Y-97957380D01*
X142597380Y-98100238D01*
X142597380Y-98195476D01*
X142597380Y-96814523D02*
X142597380Y-97385952D01*
X142597380Y-97100238D02*
X141597380Y-97100238D01*
X141740238Y-97195476D01*
X141835476Y-97290714D01*
X141883095Y-97385952D01*
X142025952Y-96243095D02*
X141978333Y-96338333D01*
X141930714Y-96385952D01*
X141835476Y-96433571D01*
X141787857Y-96433571D01*
X141692619Y-96385952D01*
X141645000Y-96338333D01*
X141597380Y-96243095D01*
X141597380Y-96052619D01*
X141645000Y-95957380D01*
X141692619Y-95909761D01*
X141787857Y-95862142D01*
X141835476Y-95862142D01*
X141930714Y-95909761D01*
X141978333Y-95957380D01*
X142025952Y-96052619D01*
X142025952Y-96243095D01*
X142073571Y-96338333D01*
X142121190Y-96385952D01*
X142216428Y-96433571D01*
X142406904Y-96433571D01*
X142502142Y-96385952D01*
X142549761Y-96338333D01*
X142597380Y-96243095D01*
X142597380Y-96052619D01*
X142549761Y-95957380D01*
X142502142Y-95909761D01*
X142406904Y-95862142D01*
X142216428Y-95862142D01*
X142121190Y-95909761D01*
X142073571Y-95957380D01*
X142025952Y-96052619D01*
%TO.C,J17*%
X115190476Y-96847380D02*
X115190476Y-97561666D01*
X115142857Y-97704523D01*
X115047619Y-97799761D01*
X114904761Y-97847380D01*
X114809523Y-97847380D01*
X116190476Y-97847380D02*
X115619047Y-97847380D01*
X115904761Y-97847380D02*
X115904761Y-96847380D01*
X115809523Y-96990238D01*
X115714285Y-97085476D01*
X115619047Y-97133095D01*
X116523809Y-96847380D02*
X117190476Y-96847380D01*
X116761904Y-97847380D01*
%TO.C,J21*%
X115190476Y-119097380D02*
X115190476Y-119811666D01*
X115142857Y-119954523D01*
X115047619Y-120049761D01*
X114904761Y-120097380D01*
X114809523Y-120097380D01*
X115619047Y-119192619D02*
X115666666Y-119145000D01*
X115761904Y-119097380D01*
X116000000Y-119097380D01*
X116095238Y-119145000D01*
X116142857Y-119192619D01*
X116190476Y-119287857D01*
X116190476Y-119383095D01*
X116142857Y-119525952D01*
X115571428Y-120097380D01*
X116190476Y-120097380D01*
X117142857Y-120097380D02*
X116571428Y-120097380D01*
X116857142Y-120097380D02*
X116857142Y-119097380D01*
X116761904Y-119240238D01*
X116666666Y-119335476D01*
X116571428Y-119383095D01*
%TO.C,U3*%
X128170619Y-92738095D02*
X127361095Y-92738095D01*
X127265857Y-92785714D01*
X127218238Y-92833333D01*
X127170619Y-92928571D01*
X127170619Y-93119047D01*
X127218238Y-93214285D01*
X127265857Y-93261904D01*
X127361095Y-93309523D01*
X128170619Y-93309523D01*
X128170619Y-93690476D02*
X128170619Y-94309523D01*
X127789666Y-93976190D01*
X127789666Y-94119047D01*
X127742047Y-94214285D01*
X127694428Y-94261904D01*
X127599190Y-94309523D01*
X127361095Y-94309523D01*
X127265857Y-94261904D01*
X127218238Y-94214285D01*
X127170619Y-94119047D01*
X127170619Y-93833333D01*
X127218238Y-93738095D01*
X127265857Y-93690476D01*
X124273285Y-94603333D02*
X123797095Y-94603333D01*
X124368523Y-94317619D02*
X124035190Y-95317619D01*
X123701857Y-94317619D01*
X122844714Y-94317619D02*
X123416142Y-94317619D01*
X123130428Y-94317619D02*
X123130428Y-95317619D01*
X123225666Y-95174761D01*
X123320904Y-95079523D01*
X123416142Y-95031904D01*
X124217761Y-89761428D02*
X124074904Y-89713809D01*
X124027285Y-89666190D01*
X123979666Y-89570952D01*
X123979666Y-89428095D01*
X124027285Y-89332857D01*
X124074904Y-89285238D01*
X124170142Y-89237619D01*
X124551095Y-89237619D01*
X124551095Y-90237619D01*
X124217761Y-90237619D01*
X124122523Y-90190000D01*
X124074904Y-90142380D01*
X124027285Y-90047142D01*
X124027285Y-89951904D01*
X124074904Y-89856666D01*
X124122523Y-89809047D01*
X124217761Y-89761428D01*
X124551095Y-89761428D01*
X123598714Y-90142380D02*
X123551095Y-90190000D01*
X123455857Y-90237619D01*
X123217761Y-90237619D01*
X123122523Y-90190000D01*
X123074904Y-90142380D01*
X123027285Y-90047142D01*
X123027285Y-89951904D01*
X123074904Y-89809047D01*
X123646333Y-89237619D01*
X123027285Y-89237619D01*
X132337714Y-96857619D02*
X132337714Y-97857619D01*
X132004380Y-97143333D01*
X131671047Y-97857619D01*
X131671047Y-96857619D01*
X131242476Y-96905238D02*
X131099619Y-96857619D01*
X130861523Y-96857619D01*
X130766285Y-96905238D01*
X130718666Y-96952857D01*
X130671047Y-97048095D01*
X130671047Y-97143333D01*
X130718666Y-97238571D01*
X130766285Y-97286190D01*
X130861523Y-97333809D01*
X131052000Y-97381428D01*
X131147238Y-97429047D01*
X131194857Y-97476666D01*
X131242476Y-97571904D01*
X131242476Y-97667142D01*
X131194857Y-97762380D01*
X131147238Y-97810000D01*
X131052000Y-97857619D01*
X130813904Y-97857619D01*
X130671047Y-97810000D01*
X130290095Y-97762380D02*
X130242476Y-97810000D01*
X130147238Y-97857619D01*
X129909142Y-97857619D01*
X129813904Y-97810000D01*
X129766285Y-97762380D01*
X129718666Y-97667142D01*
X129718666Y-97571904D01*
X129766285Y-97429047D01*
X130337714Y-96857619D01*
X129718666Y-96857619D01*
X125654333Y-87697619D02*
X125321000Y-86697619D01*
X124987666Y-87697619D01*
X124654333Y-86697619D02*
X124654333Y-87697619D01*
X124416238Y-87697619D01*
X124273380Y-87650000D01*
X124178142Y-87554761D01*
X124130523Y-87459523D01*
X124082904Y-87269047D01*
X124082904Y-87126190D01*
X124130523Y-86935714D01*
X124178142Y-86840476D01*
X124273380Y-86745238D01*
X124416238Y-86697619D01*
X124654333Y-86697619D01*
X123654333Y-86697619D02*
X123654333Y-87697619D01*
X123416238Y-87697619D01*
X123273380Y-87650000D01*
X123178142Y-87554761D01*
X123130523Y-87459523D01*
X123082904Y-87269047D01*
X123082904Y-87126190D01*
X123130523Y-86935714D01*
X123178142Y-86840476D01*
X123273380Y-86745238D01*
X123416238Y-86697619D01*
X123654333Y-86697619D01*
X132298095Y-102461428D02*
X131964761Y-102461428D01*
X131821904Y-101937619D02*
X132298095Y-101937619D01*
X132298095Y-102937619D01*
X131821904Y-102937619D01*
X131393333Y-101937619D02*
X131393333Y-102937619D01*
X130821904Y-101937619D01*
X130821904Y-102937619D01*
X124090761Y-92301428D02*
X123947904Y-92253809D01*
X123900285Y-92206190D01*
X123852666Y-92110952D01*
X123852666Y-91968095D01*
X123900285Y-91872857D01*
X123947904Y-91825238D01*
X124043142Y-91777619D01*
X124424095Y-91777619D01*
X124424095Y-92777619D01*
X124090761Y-92777619D01*
X123995523Y-92730000D01*
X123947904Y-92682380D01*
X123900285Y-92587142D01*
X123900285Y-92491904D01*
X123947904Y-92396666D01*
X123995523Y-92349047D01*
X124090761Y-92301428D01*
X124424095Y-92301428D01*
X122900285Y-91777619D02*
X123471714Y-91777619D01*
X123186000Y-91777619D02*
X123186000Y-92777619D01*
X123281238Y-92634761D01*
X123376476Y-92539523D01*
X123471714Y-92491904D01*
X132337714Y-99397619D02*
X132337714Y-100397619D01*
X132004380Y-99683333D01*
X131671047Y-100397619D01*
X131671047Y-99397619D01*
X131242476Y-99445238D02*
X131099619Y-99397619D01*
X130861523Y-99397619D01*
X130766285Y-99445238D01*
X130718666Y-99492857D01*
X130671047Y-99588095D01*
X130671047Y-99683333D01*
X130718666Y-99778571D01*
X130766285Y-99826190D01*
X130861523Y-99873809D01*
X131052000Y-99921428D01*
X131147238Y-99969047D01*
X131194857Y-100016666D01*
X131242476Y-100111904D01*
X131242476Y-100207142D01*
X131194857Y-100302380D01*
X131147238Y-100350000D01*
X131052000Y-100397619D01*
X130813904Y-100397619D01*
X130671047Y-100350000D01*
X129718666Y-99397619D02*
X130290095Y-99397619D01*
X130004380Y-99397619D02*
X130004380Y-100397619D01*
X130099619Y-100254761D01*
X130194857Y-100159523D01*
X130290095Y-100111904D01*
X125209904Y-85110000D02*
X125305142Y-85157619D01*
X125448000Y-85157619D01*
X125590857Y-85110000D01*
X125686095Y-85014761D01*
X125733714Y-84919523D01*
X125781333Y-84729047D01*
X125781333Y-84586190D01*
X125733714Y-84395714D01*
X125686095Y-84300476D01*
X125590857Y-84205238D01*
X125448000Y-84157619D01*
X125352761Y-84157619D01*
X125209904Y-84205238D01*
X125162285Y-84252857D01*
X125162285Y-84586190D01*
X125352761Y-84586190D01*
X124733714Y-84157619D02*
X124733714Y-85157619D01*
X124162285Y-84157619D01*
X124162285Y-85157619D01*
X123686095Y-84157619D02*
X123686095Y-85157619D01*
X123448000Y-85157619D01*
X123305142Y-85110000D01*
X123209904Y-85014761D01*
X123162285Y-84919523D01*
X123114666Y-84729047D01*
X123114666Y-84586190D01*
X123162285Y-84395714D01*
X123209904Y-84300476D01*
X123305142Y-84205238D01*
X123448000Y-84157619D01*
X123686095Y-84157619D01*
X125082904Y-100350000D02*
X125178142Y-100397619D01*
X125321000Y-100397619D01*
X125463857Y-100350000D01*
X125559095Y-100254761D01*
X125606714Y-100159523D01*
X125654333Y-99969047D01*
X125654333Y-99826190D01*
X125606714Y-99635714D01*
X125559095Y-99540476D01*
X125463857Y-99445238D01*
X125321000Y-99397619D01*
X125225761Y-99397619D01*
X125082904Y-99445238D01*
X125035285Y-99492857D01*
X125035285Y-99826190D01*
X125225761Y-99826190D01*
X124606714Y-99397619D02*
X124606714Y-100397619D01*
X124035285Y-99397619D01*
X124035285Y-100397619D01*
X123559095Y-99397619D02*
X123559095Y-100397619D01*
X123321000Y-100397619D01*
X123178142Y-100350000D01*
X123082904Y-100254761D01*
X123035285Y-100159523D01*
X122987666Y-99969047D01*
X122987666Y-99826190D01*
X123035285Y-99635714D01*
X123082904Y-99540476D01*
X123178142Y-99445238D01*
X123321000Y-99397619D01*
X123559095Y-99397619D01*
X124717761Y-102937619D02*
X124384428Y-101937619D01*
X124051095Y-102937619D01*
X123717761Y-101937619D02*
X123717761Y-102937619D01*
X123384428Y-102223333D01*
X123051095Y-102937619D01*
X123051095Y-101937619D01*
X132306000Y-84284619D02*
X132306000Y-85284619D01*
X132067904Y-85284619D01*
X131925047Y-85237000D01*
X131829809Y-85141761D01*
X131782190Y-85046523D01*
X131734571Y-84856047D01*
X131734571Y-84713190D01*
X131782190Y-84522714D01*
X131829809Y-84427476D01*
X131925047Y-84332238D01*
X132067904Y-84284619D01*
X132306000Y-84284619D01*
X131306000Y-84284619D02*
X131306000Y-85284619D01*
X130258380Y-84284619D02*
X130591714Y-84760809D01*
X130829809Y-84284619D02*
X130829809Y-85284619D01*
X130448857Y-85284619D01*
X130353619Y-85237000D01*
X130306000Y-85189380D01*
X130258380Y-85094142D01*
X130258380Y-84951285D01*
X130306000Y-84856047D01*
X130353619Y-84808428D01*
X130448857Y-84760809D01*
X130829809Y-84760809D01*
X124273285Y-97143333D02*
X123797095Y-97143333D01*
X124368523Y-96857619D02*
X124035190Y-97857619D01*
X123701857Y-96857619D01*
X123416142Y-97762380D02*
X123368523Y-97810000D01*
X123273285Y-97857619D01*
X123035190Y-97857619D01*
X122939952Y-97810000D01*
X122892333Y-97762380D01*
X122844714Y-97667142D01*
X122844714Y-97571904D01*
X122892333Y-97429047D01*
X123463761Y-96857619D01*
X122844714Y-96857619D01*
X132417047Y-86745238D02*
X132274190Y-86697619D01*
X132036095Y-86697619D01*
X131940857Y-86745238D01*
X131893238Y-86792857D01*
X131845619Y-86888095D01*
X131845619Y-86983333D01*
X131893238Y-87078571D01*
X131940857Y-87126190D01*
X132036095Y-87173809D01*
X132226571Y-87221428D01*
X132321809Y-87269047D01*
X132369428Y-87316666D01*
X132417047Y-87411904D01*
X132417047Y-87507142D01*
X132369428Y-87602380D01*
X132321809Y-87650000D01*
X132226571Y-87697619D01*
X131988476Y-87697619D01*
X131845619Y-87650000D01*
X131559904Y-87697619D02*
X130988476Y-87697619D01*
X131274190Y-86697619D02*
X131274190Y-87697619D01*
X130655142Y-87221428D02*
X130321809Y-87221428D01*
X130178952Y-86697619D02*
X130655142Y-86697619D01*
X130655142Y-87697619D01*
X130178952Y-87697619D01*
X129750380Y-86697619D02*
X129750380Y-87697619D01*
X129369428Y-87697619D01*
X129274190Y-87650000D01*
X129226571Y-87602380D01*
X129178952Y-87507142D01*
X129178952Y-87364285D01*
X129226571Y-87269047D01*
X129274190Y-87221428D01*
X129369428Y-87173809D01*
X129750380Y-87173809D01*
%TO.C,J29*%
X145452380Y-56309523D02*
X146166666Y-56309523D01*
X146309523Y-56357142D01*
X146404761Y-56452380D01*
X146452380Y-56595238D01*
X146452380Y-56690476D01*
X145547619Y-55880952D02*
X145500000Y-55833333D01*
X145452380Y-55738095D01*
X145452380Y-55500000D01*
X145500000Y-55404761D01*
X145547619Y-55357142D01*
X145642857Y-55309523D01*
X145738095Y-55309523D01*
X145880952Y-55357142D01*
X146452380Y-55928571D01*
X146452380Y-55309523D01*
X146452380Y-54833333D02*
X146452380Y-54642857D01*
X146404761Y-54547619D01*
X146357142Y-54500000D01*
X146214285Y-54404761D01*
X146023809Y-54357142D01*
X145642857Y-54357142D01*
X145547619Y-54404761D01*
X145500000Y-54452380D01*
X145452380Y-54547619D01*
X145452380Y-54738095D01*
X145500000Y-54833333D01*
X145547619Y-54880952D01*
X145642857Y-54928571D01*
X145880952Y-54928571D01*
X145976190Y-54880952D01*
X146023809Y-54833333D01*
X146071428Y-54738095D01*
X146071428Y-54547619D01*
X146023809Y-54452380D01*
X145976190Y-54404761D01*
X145880952Y-54357142D01*
%TO.C,J27*%
X103190476Y-136952380D02*
X103190476Y-137666666D01*
X103142857Y-137809523D01*
X103047619Y-137904761D01*
X102904761Y-137952380D01*
X102809523Y-137952380D01*
X103619047Y-137047619D02*
X103666666Y-137000000D01*
X103761904Y-136952380D01*
X104000000Y-136952380D01*
X104095238Y-137000000D01*
X104142857Y-137047619D01*
X104190476Y-137142857D01*
X104190476Y-137238095D01*
X104142857Y-137380952D01*
X103571428Y-137952380D01*
X104190476Y-137952380D01*
X104523809Y-136952380D02*
X105190476Y-136952380D01*
X104761904Y-137952380D01*
%TO.C,J28*%
X147190476Y-136027380D02*
X147190476Y-136741666D01*
X147142857Y-136884523D01*
X147047619Y-136979761D01*
X146904761Y-137027380D01*
X146809523Y-137027380D01*
X147619047Y-136122619D02*
X147666666Y-136075000D01*
X147761904Y-136027380D01*
X148000000Y-136027380D01*
X148095238Y-136075000D01*
X148142857Y-136122619D01*
X148190476Y-136217857D01*
X148190476Y-136313095D01*
X148142857Y-136455952D01*
X147571428Y-137027380D01*
X148190476Y-137027380D01*
X148761904Y-136455952D02*
X148666666Y-136408333D01*
X148619047Y-136360714D01*
X148571428Y-136265476D01*
X148571428Y-136217857D01*
X148619047Y-136122619D01*
X148666666Y-136075000D01*
X148761904Y-136027380D01*
X148952380Y-136027380D01*
X149047619Y-136075000D01*
X149095238Y-136122619D01*
X149142857Y-136217857D01*
X149142857Y-136265476D01*
X149095238Y-136360714D01*
X149047619Y-136408333D01*
X148952380Y-136455952D01*
X148761904Y-136455952D01*
X148666666Y-136503571D01*
X148619047Y-136551190D01*
X148571428Y-136646428D01*
X148571428Y-136836904D01*
X148619047Y-136932142D01*
X148666666Y-136979761D01*
X148761904Y-137027380D01*
X148952380Y-137027380D01*
X149047619Y-136979761D01*
X149095238Y-136932142D01*
X149142857Y-136836904D01*
X149142857Y-136646428D01*
X149095238Y-136551190D01*
X149047619Y-136503571D01*
X148952380Y-136455952D01*
%TO.C,J25*%
X115190476Y-138847380D02*
X115190476Y-139561666D01*
X115142857Y-139704523D01*
X115047619Y-139799761D01*
X114904761Y-139847380D01*
X114809523Y-139847380D01*
X115619047Y-138942619D02*
X115666666Y-138895000D01*
X115761904Y-138847380D01*
X116000000Y-138847380D01*
X116095238Y-138895000D01*
X116142857Y-138942619D01*
X116190476Y-139037857D01*
X116190476Y-139133095D01*
X116142857Y-139275952D01*
X115571428Y-139847380D01*
X116190476Y-139847380D01*
X117095238Y-138847380D02*
X116619047Y-138847380D01*
X116571428Y-139323571D01*
X116619047Y-139275952D01*
X116714285Y-139228333D01*
X116952380Y-139228333D01*
X117047619Y-139275952D01*
X117095238Y-139323571D01*
X117142857Y-139418809D01*
X117142857Y-139656904D01*
X117095238Y-139752142D01*
X117047619Y-139799761D01*
X116952380Y-139847380D01*
X116714285Y-139847380D01*
X116619047Y-139799761D01*
X116571428Y-139752142D01*
%TO.C,U4*%
X128170619Y-114988095D02*
X127361095Y-114988095D01*
X127265857Y-115035714D01*
X127218238Y-115083333D01*
X127170619Y-115178571D01*
X127170619Y-115369047D01*
X127218238Y-115464285D01*
X127265857Y-115511904D01*
X127361095Y-115559523D01*
X128170619Y-115559523D01*
X127837285Y-116464285D02*
X127170619Y-116464285D01*
X128218238Y-116226190D02*
X127503952Y-115988095D01*
X127503952Y-116607142D01*
X132417047Y-108995238D02*
X132274190Y-108947619D01*
X132036095Y-108947619D01*
X131940857Y-108995238D01*
X131893238Y-109042857D01*
X131845619Y-109138095D01*
X131845619Y-109233333D01*
X131893238Y-109328571D01*
X131940857Y-109376190D01*
X132036095Y-109423809D01*
X132226571Y-109471428D01*
X132321809Y-109519047D01*
X132369428Y-109566666D01*
X132417047Y-109661904D01*
X132417047Y-109757142D01*
X132369428Y-109852380D01*
X132321809Y-109900000D01*
X132226571Y-109947619D01*
X131988476Y-109947619D01*
X131845619Y-109900000D01*
X131559904Y-109947619D02*
X130988476Y-109947619D01*
X131274190Y-108947619D02*
X131274190Y-109947619D01*
X130655142Y-109471428D02*
X130321809Y-109471428D01*
X130178952Y-108947619D02*
X130655142Y-108947619D01*
X130655142Y-109947619D01*
X130178952Y-109947619D01*
X129750380Y-108947619D02*
X129750380Y-109947619D01*
X129369428Y-109947619D01*
X129274190Y-109900000D01*
X129226571Y-109852380D01*
X129178952Y-109757142D01*
X129178952Y-109614285D01*
X129226571Y-109519047D01*
X129274190Y-109471428D01*
X129369428Y-109423809D01*
X129750380Y-109423809D01*
X124273285Y-119393333D02*
X123797095Y-119393333D01*
X124368523Y-119107619D02*
X124035190Y-120107619D01*
X123701857Y-119107619D01*
X123416142Y-120012380D02*
X123368523Y-120060000D01*
X123273285Y-120107619D01*
X123035190Y-120107619D01*
X122939952Y-120060000D01*
X122892333Y-120012380D01*
X122844714Y-119917142D01*
X122844714Y-119821904D01*
X122892333Y-119679047D01*
X123463761Y-119107619D01*
X122844714Y-119107619D01*
X132306000Y-106534619D02*
X132306000Y-107534619D01*
X132067904Y-107534619D01*
X131925047Y-107487000D01*
X131829809Y-107391761D01*
X131782190Y-107296523D01*
X131734571Y-107106047D01*
X131734571Y-106963190D01*
X131782190Y-106772714D01*
X131829809Y-106677476D01*
X131925047Y-106582238D01*
X132067904Y-106534619D01*
X132306000Y-106534619D01*
X131306000Y-106534619D02*
X131306000Y-107534619D01*
X130258380Y-106534619D02*
X130591714Y-107010809D01*
X130829809Y-106534619D02*
X130829809Y-107534619D01*
X130448857Y-107534619D01*
X130353619Y-107487000D01*
X130306000Y-107439380D01*
X130258380Y-107344142D01*
X130258380Y-107201285D01*
X130306000Y-107106047D01*
X130353619Y-107058428D01*
X130448857Y-107010809D01*
X130829809Y-107010809D01*
X124717761Y-125187619D02*
X124384428Y-124187619D01*
X124051095Y-125187619D01*
X123717761Y-124187619D02*
X123717761Y-125187619D01*
X123384428Y-124473333D01*
X123051095Y-125187619D01*
X123051095Y-124187619D01*
X125082904Y-122600000D02*
X125178142Y-122647619D01*
X125321000Y-122647619D01*
X125463857Y-122600000D01*
X125559095Y-122504761D01*
X125606714Y-122409523D01*
X125654333Y-122219047D01*
X125654333Y-122076190D01*
X125606714Y-121885714D01*
X125559095Y-121790476D01*
X125463857Y-121695238D01*
X125321000Y-121647619D01*
X125225761Y-121647619D01*
X125082904Y-121695238D01*
X125035285Y-121742857D01*
X125035285Y-122076190D01*
X125225761Y-122076190D01*
X124606714Y-121647619D02*
X124606714Y-122647619D01*
X124035285Y-121647619D01*
X124035285Y-122647619D01*
X123559095Y-121647619D02*
X123559095Y-122647619D01*
X123321000Y-122647619D01*
X123178142Y-122600000D01*
X123082904Y-122504761D01*
X123035285Y-122409523D01*
X122987666Y-122219047D01*
X122987666Y-122076190D01*
X123035285Y-121885714D01*
X123082904Y-121790476D01*
X123178142Y-121695238D01*
X123321000Y-121647619D01*
X123559095Y-121647619D01*
X125209904Y-107360000D02*
X125305142Y-107407619D01*
X125448000Y-107407619D01*
X125590857Y-107360000D01*
X125686095Y-107264761D01*
X125733714Y-107169523D01*
X125781333Y-106979047D01*
X125781333Y-106836190D01*
X125733714Y-106645714D01*
X125686095Y-106550476D01*
X125590857Y-106455238D01*
X125448000Y-106407619D01*
X125352761Y-106407619D01*
X125209904Y-106455238D01*
X125162285Y-106502857D01*
X125162285Y-106836190D01*
X125352761Y-106836190D01*
X124733714Y-106407619D02*
X124733714Y-107407619D01*
X124162285Y-106407619D01*
X124162285Y-107407619D01*
X123686095Y-106407619D02*
X123686095Y-107407619D01*
X123448000Y-107407619D01*
X123305142Y-107360000D01*
X123209904Y-107264761D01*
X123162285Y-107169523D01*
X123114666Y-106979047D01*
X123114666Y-106836190D01*
X123162285Y-106645714D01*
X123209904Y-106550476D01*
X123305142Y-106455238D01*
X123448000Y-106407619D01*
X123686095Y-106407619D01*
X132337714Y-121647619D02*
X132337714Y-122647619D01*
X132004380Y-121933333D01*
X131671047Y-122647619D01*
X131671047Y-121647619D01*
X131242476Y-121695238D02*
X131099619Y-121647619D01*
X130861523Y-121647619D01*
X130766285Y-121695238D01*
X130718666Y-121742857D01*
X130671047Y-121838095D01*
X130671047Y-121933333D01*
X130718666Y-122028571D01*
X130766285Y-122076190D01*
X130861523Y-122123809D01*
X131052000Y-122171428D01*
X131147238Y-122219047D01*
X131194857Y-122266666D01*
X131242476Y-122361904D01*
X131242476Y-122457142D01*
X131194857Y-122552380D01*
X131147238Y-122600000D01*
X131052000Y-122647619D01*
X130813904Y-122647619D01*
X130671047Y-122600000D01*
X129718666Y-121647619D02*
X130290095Y-121647619D01*
X130004380Y-121647619D02*
X130004380Y-122647619D01*
X130099619Y-122504761D01*
X130194857Y-122409523D01*
X130290095Y-122361904D01*
X124090761Y-114551428D02*
X123947904Y-114503809D01*
X123900285Y-114456190D01*
X123852666Y-114360952D01*
X123852666Y-114218095D01*
X123900285Y-114122857D01*
X123947904Y-114075238D01*
X124043142Y-114027619D01*
X124424095Y-114027619D01*
X124424095Y-115027619D01*
X124090761Y-115027619D01*
X123995523Y-114980000D01*
X123947904Y-114932380D01*
X123900285Y-114837142D01*
X123900285Y-114741904D01*
X123947904Y-114646666D01*
X123995523Y-114599047D01*
X124090761Y-114551428D01*
X124424095Y-114551428D01*
X122900285Y-114027619D02*
X123471714Y-114027619D01*
X123186000Y-114027619D02*
X123186000Y-115027619D01*
X123281238Y-114884761D01*
X123376476Y-114789523D01*
X123471714Y-114741904D01*
X132298095Y-124711428D02*
X131964761Y-124711428D01*
X131821904Y-124187619D02*
X132298095Y-124187619D01*
X132298095Y-125187619D01*
X131821904Y-125187619D01*
X131393333Y-124187619D02*
X131393333Y-125187619D01*
X130821904Y-124187619D01*
X130821904Y-125187619D01*
X125654333Y-109947619D02*
X125321000Y-108947619D01*
X124987666Y-109947619D01*
X124654333Y-108947619D02*
X124654333Y-109947619D01*
X124416238Y-109947619D01*
X124273380Y-109900000D01*
X124178142Y-109804761D01*
X124130523Y-109709523D01*
X124082904Y-109519047D01*
X124082904Y-109376190D01*
X124130523Y-109185714D01*
X124178142Y-109090476D01*
X124273380Y-108995238D01*
X124416238Y-108947619D01*
X124654333Y-108947619D01*
X123654333Y-108947619D02*
X123654333Y-109947619D01*
X123416238Y-109947619D01*
X123273380Y-109900000D01*
X123178142Y-109804761D01*
X123130523Y-109709523D01*
X123082904Y-109519047D01*
X123082904Y-109376190D01*
X123130523Y-109185714D01*
X123178142Y-109090476D01*
X123273380Y-108995238D01*
X123416238Y-108947619D01*
X123654333Y-108947619D01*
X132337714Y-119107619D02*
X132337714Y-120107619D01*
X132004380Y-119393333D01*
X131671047Y-120107619D01*
X131671047Y-119107619D01*
X131242476Y-119155238D02*
X131099619Y-119107619D01*
X130861523Y-119107619D01*
X130766285Y-119155238D01*
X130718666Y-119202857D01*
X130671047Y-119298095D01*
X130671047Y-119393333D01*
X130718666Y-119488571D01*
X130766285Y-119536190D01*
X130861523Y-119583809D01*
X131052000Y-119631428D01*
X131147238Y-119679047D01*
X131194857Y-119726666D01*
X131242476Y-119821904D01*
X131242476Y-119917142D01*
X131194857Y-120012380D01*
X131147238Y-120060000D01*
X131052000Y-120107619D01*
X130813904Y-120107619D01*
X130671047Y-120060000D01*
X130290095Y-120012380D02*
X130242476Y-120060000D01*
X130147238Y-120107619D01*
X129909142Y-120107619D01*
X129813904Y-120060000D01*
X129766285Y-120012380D01*
X129718666Y-119917142D01*
X129718666Y-119821904D01*
X129766285Y-119679047D01*
X130337714Y-119107619D01*
X129718666Y-119107619D01*
X124217761Y-112011428D02*
X124074904Y-111963809D01*
X124027285Y-111916190D01*
X123979666Y-111820952D01*
X123979666Y-111678095D01*
X124027285Y-111582857D01*
X124074904Y-111535238D01*
X124170142Y-111487619D01*
X124551095Y-111487619D01*
X124551095Y-112487619D01*
X124217761Y-112487619D01*
X124122523Y-112440000D01*
X124074904Y-112392380D01*
X124027285Y-112297142D01*
X124027285Y-112201904D01*
X124074904Y-112106666D01*
X124122523Y-112059047D01*
X124217761Y-112011428D01*
X124551095Y-112011428D01*
X123598714Y-112392380D02*
X123551095Y-112440000D01*
X123455857Y-112487619D01*
X123217761Y-112487619D01*
X123122523Y-112440000D01*
X123074904Y-112392380D01*
X123027285Y-112297142D01*
X123027285Y-112201904D01*
X123074904Y-112059047D01*
X123646333Y-111487619D01*
X123027285Y-111487619D01*
X124273285Y-116853333D02*
X123797095Y-116853333D01*
X124368523Y-116567619D02*
X124035190Y-117567619D01*
X123701857Y-116567619D01*
X122844714Y-116567619D02*
X123416142Y-116567619D01*
X123130428Y-116567619D02*
X123130428Y-117567619D01*
X123225666Y-117424761D01*
X123320904Y-117329523D01*
X123416142Y-117281904D01*
%TO.C,U2*%
X128170619Y-70738095D02*
X127361095Y-70738095D01*
X127265857Y-70785714D01*
X127218238Y-70833333D01*
X127170619Y-70928571D01*
X127170619Y-71119047D01*
X127218238Y-71214285D01*
X127265857Y-71261904D01*
X127361095Y-71309523D01*
X128170619Y-71309523D01*
X128075380Y-71738095D02*
X128123000Y-71785714D01*
X128170619Y-71880952D01*
X128170619Y-72119047D01*
X128123000Y-72214285D01*
X128075380Y-72261904D01*
X127980142Y-72309523D01*
X127884904Y-72309523D01*
X127742047Y-72261904D01*
X127170619Y-71690476D01*
X127170619Y-72309523D01*
X132417047Y-64745238D02*
X132274190Y-64697619D01*
X132036095Y-64697619D01*
X131940857Y-64745238D01*
X131893238Y-64792857D01*
X131845619Y-64888095D01*
X131845619Y-64983333D01*
X131893238Y-65078571D01*
X131940857Y-65126190D01*
X132036095Y-65173809D01*
X132226571Y-65221428D01*
X132321809Y-65269047D01*
X132369428Y-65316666D01*
X132417047Y-65411904D01*
X132417047Y-65507142D01*
X132369428Y-65602380D01*
X132321809Y-65650000D01*
X132226571Y-65697619D01*
X131988476Y-65697619D01*
X131845619Y-65650000D01*
X131559904Y-65697619D02*
X130988476Y-65697619D01*
X131274190Y-64697619D02*
X131274190Y-65697619D01*
X130655142Y-65221428D02*
X130321809Y-65221428D01*
X130178952Y-64697619D02*
X130655142Y-64697619D01*
X130655142Y-65697619D01*
X130178952Y-65697619D01*
X129750380Y-64697619D02*
X129750380Y-65697619D01*
X129369428Y-65697619D01*
X129274190Y-65650000D01*
X129226571Y-65602380D01*
X129178952Y-65507142D01*
X129178952Y-65364285D01*
X129226571Y-65269047D01*
X129274190Y-65221428D01*
X129369428Y-65173809D01*
X129750380Y-65173809D01*
X124273285Y-75143333D02*
X123797095Y-75143333D01*
X124368523Y-74857619D02*
X124035190Y-75857619D01*
X123701857Y-74857619D01*
X123416142Y-75762380D02*
X123368523Y-75810000D01*
X123273285Y-75857619D01*
X123035190Y-75857619D01*
X122939952Y-75810000D01*
X122892333Y-75762380D01*
X122844714Y-75667142D01*
X122844714Y-75571904D01*
X122892333Y-75429047D01*
X123463761Y-74857619D01*
X122844714Y-74857619D01*
X132306000Y-62284619D02*
X132306000Y-63284619D01*
X132067904Y-63284619D01*
X131925047Y-63237000D01*
X131829809Y-63141761D01*
X131782190Y-63046523D01*
X131734571Y-62856047D01*
X131734571Y-62713190D01*
X131782190Y-62522714D01*
X131829809Y-62427476D01*
X131925047Y-62332238D01*
X132067904Y-62284619D01*
X132306000Y-62284619D01*
X131306000Y-62284619D02*
X131306000Y-63284619D01*
X130258380Y-62284619D02*
X130591714Y-62760809D01*
X130829809Y-62284619D02*
X130829809Y-63284619D01*
X130448857Y-63284619D01*
X130353619Y-63237000D01*
X130306000Y-63189380D01*
X130258380Y-63094142D01*
X130258380Y-62951285D01*
X130306000Y-62856047D01*
X130353619Y-62808428D01*
X130448857Y-62760809D01*
X130829809Y-62760809D01*
X124717761Y-80937619D02*
X124384428Y-79937619D01*
X124051095Y-80937619D01*
X123717761Y-79937619D02*
X123717761Y-80937619D01*
X123384428Y-80223333D01*
X123051095Y-80937619D01*
X123051095Y-79937619D01*
X125082904Y-78350000D02*
X125178142Y-78397619D01*
X125321000Y-78397619D01*
X125463857Y-78350000D01*
X125559095Y-78254761D01*
X125606714Y-78159523D01*
X125654333Y-77969047D01*
X125654333Y-77826190D01*
X125606714Y-77635714D01*
X125559095Y-77540476D01*
X125463857Y-77445238D01*
X125321000Y-77397619D01*
X125225761Y-77397619D01*
X125082904Y-77445238D01*
X125035285Y-77492857D01*
X125035285Y-77826190D01*
X125225761Y-77826190D01*
X124606714Y-77397619D02*
X124606714Y-78397619D01*
X124035285Y-77397619D01*
X124035285Y-78397619D01*
X123559095Y-77397619D02*
X123559095Y-78397619D01*
X123321000Y-78397619D01*
X123178142Y-78350000D01*
X123082904Y-78254761D01*
X123035285Y-78159523D01*
X122987666Y-77969047D01*
X122987666Y-77826190D01*
X123035285Y-77635714D01*
X123082904Y-77540476D01*
X123178142Y-77445238D01*
X123321000Y-77397619D01*
X123559095Y-77397619D01*
X125209904Y-63110000D02*
X125305142Y-63157619D01*
X125448000Y-63157619D01*
X125590857Y-63110000D01*
X125686095Y-63014761D01*
X125733714Y-62919523D01*
X125781333Y-62729047D01*
X125781333Y-62586190D01*
X125733714Y-62395714D01*
X125686095Y-62300476D01*
X125590857Y-62205238D01*
X125448000Y-62157619D01*
X125352761Y-62157619D01*
X125209904Y-62205238D01*
X125162285Y-62252857D01*
X125162285Y-62586190D01*
X125352761Y-62586190D01*
X124733714Y-62157619D02*
X124733714Y-63157619D01*
X124162285Y-62157619D01*
X124162285Y-63157619D01*
X123686095Y-62157619D02*
X123686095Y-63157619D01*
X123448000Y-63157619D01*
X123305142Y-63110000D01*
X123209904Y-63014761D01*
X123162285Y-62919523D01*
X123114666Y-62729047D01*
X123114666Y-62586190D01*
X123162285Y-62395714D01*
X123209904Y-62300476D01*
X123305142Y-62205238D01*
X123448000Y-62157619D01*
X123686095Y-62157619D01*
X132337714Y-77397619D02*
X132337714Y-78397619D01*
X132004380Y-77683333D01*
X131671047Y-78397619D01*
X131671047Y-77397619D01*
X131242476Y-77445238D02*
X131099619Y-77397619D01*
X130861523Y-77397619D01*
X130766285Y-77445238D01*
X130718666Y-77492857D01*
X130671047Y-77588095D01*
X130671047Y-77683333D01*
X130718666Y-77778571D01*
X130766285Y-77826190D01*
X130861523Y-77873809D01*
X131052000Y-77921428D01*
X131147238Y-77969047D01*
X131194857Y-78016666D01*
X131242476Y-78111904D01*
X131242476Y-78207142D01*
X131194857Y-78302380D01*
X131147238Y-78350000D01*
X131052000Y-78397619D01*
X130813904Y-78397619D01*
X130671047Y-78350000D01*
X129718666Y-77397619D02*
X130290095Y-77397619D01*
X130004380Y-77397619D02*
X130004380Y-78397619D01*
X130099619Y-78254761D01*
X130194857Y-78159523D01*
X130290095Y-78111904D01*
X124090761Y-70301428D02*
X123947904Y-70253809D01*
X123900285Y-70206190D01*
X123852666Y-70110952D01*
X123852666Y-69968095D01*
X123900285Y-69872857D01*
X123947904Y-69825238D01*
X124043142Y-69777619D01*
X124424095Y-69777619D01*
X124424095Y-70777619D01*
X124090761Y-70777619D01*
X123995523Y-70730000D01*
X123947904Y-70682380D01*
X123900285Y-70587142D01*
X123900285Y-70491904D01*
X123947904Y-70396666D01*
X123995523Y-70349047D01*
X124090761Y-70301428D01*
X124424095Y-70301428D01*
X122900285Y-69777619D02*
X123471714Y-69777619D01*
X123186000Y-69777619D02*
X123186000Y-70777619D01*
X123281238Y-70634761D01*
X123376476Y-70539523D01*
X123471714Y-70491904D01*
X132298095Y-80461428D02*
X131964761Y-80461428D01*
X131821904Y-79937619D02*
X132298095Y-79937619D01*
X132298095Y-80937619D01*
X131821904Y-80937619D01*
X131393333Y-79937619D02*
X131393333Y-80937619D01*
X130821904Y-79937619D01*
X130821904Y-80937619D01*
X125654333Y-65697619D02*
X125321000Y-64697619D01*
X124987666Y-65697619D01*
X124654333Y-64697619D02*
X124654333Y-65697619D01*
X124416238Y-65697619D01*
X124273380Y-65650000D01*
X124178142Y-65554761D01*
X124130523Y-65459523D01*
X124082904Y-65269047D01*
X124082904Y-65126190D01*
X124130523Y-64935714D01*
X124178142Y-64840476D01*
X124273380Y-64745238D01*
X124416238Y-64697619D01*
X124654333Y-64697619D01*
X123654333Y-64697619D02*
X123654333Y-65697619D01*
X123416238Y-65697619D01*
X123273380Y-65650000D01*
X123178142Y-65554761D01*
X123130523Y-65459523D01*
X123082904Y-65269047D01*
X123082904Y-65126190D01*
X123130523Y-64935714D01*
X123178142Y-64840476D01*
X123273380Y-64745238D01*
X123416238Y-64697619D01*
X123654333Y-64697619D01*
X132337714Y-74857619D02*
X132337714Y-75857619D01*
X132004380Y-75143333D01*
X131671047Y-75857619D01*
X131671047Y-74857619D01*
X131242476Y-74905238D02*
X131099619Y-74857619D01*
X130861523Y-74857619D01*
X130766285Y-74905238D01*
X130718666Y-74952857D01*
X130671047Y-75048095D01*
X130671047Y-75143333D01*
X130718666Y-75238571D01*
X130766285Y-75286190D01*
X130861523Y-75333809D01*
X131052000Y-75381428D01*
X131147238Y-75429047D01*
X131194857Y-75476666D01*
X131242476Y-75571904D01*
X131242476Y-75667142D01*
X131194857Y-75762380D01*
X131147238Y-75810000D01*
X131052000Y-75857619D01*
X130813904Y-75857619D01*
X130671047Y-75810000D01*
X130290095Y-75762380D02*
X130242476Y-75810000D01*
X130147238Y-75857619D01*
X129909142Y-75857619D01*
X129813904Y-75810000D01*
X129766285Y-75762380D01*
X129718666Y-75667142D01*
X129718666Y-75571904D01*
X129766285Y-75429047D01*
X130337714Y-74857619D01*
X129718666Y-74857619D01*
X124217761Y-67761428D02*
X124074904Y-67713809D01*
X124027285Y-67666190D01*
X123979666Y-67570952D01*
X123979666Y-67428095D01*
X124027285Y-67332857D01*
X124074904Y-67285238D01*
X124170142Y-67237619D01*
X124551095Y-67237619D01*
X124551095Y-68237619D01*
X124217761Y-68237619D01*
X124122523Y-68190000D01*
X124074904Y-68142380D01*
X124027285Y-68047142D01*
X124027285Y-67951904D01*
X124074904Y-67856666D01*
X124122523Y-67809047D01*
X124217761Y-67761428D01*
X124551095Y-67761428D01*
X123598714Y-68142380D02*
X123551095Y-68190000D01*
X123455857Y-68237619D01*
X123217761Y-68237619D01*
X123122523Y-68190000D01*
X123074904Y-68142380D01*
X123027285Y-68047142D01*
X123027285Y-67951904D01*
X123074904Y-67809047D01*
X123646333Y-67237619D01*
X123027285Y-67237619D01*
X124273285Y-72603333D02*
X123797095Y-72603333D01*
X124368523Y-72317619D02*
X124035190Y-73317619D01*
X123701857Y-72317619D01*
X122844714Y-72317619D02*
X123416142Y-72317619D01*
X123130428Y-72317619D02*
X123130428Y-73317619D01*
X123225666Y-73174761D01*
X123320904Y-73079523D01*
X123416142Y-73031904D01*
%TO.C,J26*%
X141597380Y-142814523D02*
X142311666Y-142814523D01*
X142454523Y-142862142D01*
X142549761Y-142957380D01*
X142597380Y-143100238D01*
X142597380Y-143195476D01*
X141692619Y-142385952D02*
X141645000Y-142338333D01*
X141597380Y-142243095D01*
X141597380Y-142005000D01*
X141645000Y-141909761D01*
X141692619Y-141862142D01*
X141787857Y-141814523D01*
X141883095Y-141814523D01*
X142025952Y-141862142D01*
X142597380Y-142433571D01*
X142597380Y-141814523D01*
X141597380Y-140957380D02*
X141597380Y-141147857D01*
X141645000Y-141243095D01*
X141692619Y-141290714D01*
X141835476Y-141385952D01*
X142025952Y-141433571D01*
X142406904Y-141433571D01*
X142502142Y-141385952D01*
X142549761Y-141338333D01*
X142597380Y-141243095D01*
X142597380Y-141052619D01*
X142549761Y-140957380D01*
X142502142Y-140909761D01*
X142406904Y-140862142D01*
X142168809Y-140862142D01*
X142073571Y-140909761D01*
X142025952Y-140957380D01*
X141978333Y-141052619D01*
X141978333Y-141243095D01*
X142025952Y-141338333D01*
X142073571Y-141385952D01*
X142168809Y-141433571D01*
%TO.C,J24*%
X147190476Y-113527380D02*
X147190476Y-114241666D01*
X147142857Y-114384523D01*
X147047619Y-114479761D01*
X146904761Y-114527380D01*
X146809523Y-114527380D01*
X147619047Y-113622619D02*
X147666666Y-113575000D01*
X147761904Y-113527380D01*
X148000000Y-113527380D01*
X148095238Y-113575000D01*
X148142857Y-113622619D01*
X148190476Y-113717857D01*
X148190476Y-113813095D01*
X148142857Y-113955952D01*
X147571428Y-114527380D01*
X148190476Y-114527380D01*
X149047619Y-113860714D02*
X149047619Y-114527380D01*
X148809523Y-113479761D02*
X148571428Y-114194047D01*
X149190476Y-114194047D01*
%TO.C,J30*%
X147377380Y-56309523D02*
X148091666Y-56309523D01*
X148234523Y-56357142D01*
X148329761Y-56452380D01*
X148377380Y-56595238D01*
X148377380Y-56690476D01*
X147377380Y-55928571D02*
X147377380Y-55309523D01*
X147758333Y-55642857D01*
X147758333Y-55500000D01*
X147805952Y-55404761D01*
X147853571Y-55357142D01*
X147948809Y-55309523D01*
X148186904Y-55309523D01*
X148282142Y-55357142D01*
X148329761Y-55404761D01*
X148377380Y-55500000D01*
X148377380Y-55785714D01*
X148329761Y-55880952D01*
X148282142Y-55928571D01*
X147377380Y-54690476D02*
X147377380Y-54595238D01*
X147425000Y-54500000D01*
X147472619Y-54452380D01*
X147567857Y-54404761D01*
X147758333Y-54357142D01*
X147996428Y-54357142D01*
X148186904Y-54404761D01*
X148282142Y-54452380D01*
X148329761Y-54500000D01*
X148377380Y-54595238D01*
X148377380Y-54690476D01*
X148329761Y-54785714D01*
X148282142Y-54833333D01*
X148186904Y-54880952D01*
X147996428Y-54928571D01*
X147758333Y-54928571D01*
X147567857Y-54880952D01*
X147472619Y-54833333D01*
X147425000Y-54785714D01*
X147377380Y-54690476D01*
X155527380Y-57095238D02*
X156336904Y-57095238D01*
X156432142Y-57047619D01*
X156479761Y-57000000D01*
X156527380Y-56904761D01*
X156527380Y-56714285D01*
X156479761Y-56619047D01*
X156432142Y-56571428D01*
X156336904Y-56523809D01*
X155527380Y-56523809D01*
X156241666Y-56095238D02*
X156241666Y-55619047D01*
X156527380Y-56190476D02*
X155527380Y-55857142D01*
X156527380Y-55523809D01*
X156527380Y-54619047D02*
X156051190Y-54952380D01*
X156527380Y-55190476D02*
X155527380Y-55190476D01*
X155527380Y-54809523D01*
X155575000Y-54714285D01*
X155622619Y-54666666D01*
X155717857Y-54619047D01*
X155860714Y-54619047D01*
X155955952Y-54666666D01*
X156003571Y-54714285D01*
X156051190Y-54809523D01*
X156051190Y-55190476D01*
X155527380Y-54333333D02*
X155527380Y-53761904D01*
X156527380Y-54047619D02*
X155527380Y-54047619D01*
%TO.C,U5*%
X128170619Y-137738095D02*
X127361095Y-137738095D01*
X127265857Y-137785714D01*
X127218238Y-137833333D01*
X127170619Y-137928571D01*
X127170619Y-138119047D01*
X127218238Y-138214285D01*
X127265857Y-138261904D01*
X127361095Y-138309523D01*
X128170619Y-138309523D01*
X128170619Y-139261904D02*
X128170619Y-138785714D01*
X127694428Y-138738095D01*
X127742047Y-138785714D01*
X127789666Y-138880952D01*
X127789666Y-139119047D01*
X127742047Y-139214285D01*
X127694428Y-139261904D01*
X127599190Y-139309523D01*
X127361095Y-139309523D01*
X127265857Y-139261904D01*
X127218238Y-139214285D01*
X127170619Y-139119047D01*
X127170619Y-138880952D01*
X127218238Y-138785714D01*
X127265857Y-138738095D01*
X132417047Y-131745238D02*
X132274190Y-131697619D01*
X132036095Y-131697619D01*
X131940857Y-131745238D01*
X131893238Y-131792857D01*
X131845619Y-131888095D01*
X131845619Y-131983333D01*
X131893238Y-132078571D01*
X131940857Y-132126190D01*
X132036095Y-132173809D01*
X132226571Y-132221428D01*
X132321809Y-132269047D01*
X132369428Y-132316666D01*
X132417047Y-132411904D01*
X132417047Y-132507142D01*
X132369428Y-132602380D01*
X132321809Y-132650000D01*
X132226571Y-132697619D01*
X131988476Y-132697619D01*
X131845619Y-132650000D01*
X131559904Y-132697619D02*
X130988476Y-132697619D01*
X131274190Y-131697619D02*
X131274190Y-132697619D01*
X130655142Y-132221428D02*
X130321809Y-132221428D01*
X130178952Y-131697619D02*
X130655142Y-131697619D01*
X130655142Y-132697619D01*
X130178952Y-132697619D01*
X129750380Y-131697619D02*
X129750380Y-132697619D01*
X129369428Y-132697619D01*
X129274190Y-132650000D01*
X129226571Y-132602380D01*
X129178952Y-132507142D01*
X129178952Y-132364285D01*
X129226571Y-132269047D01*
X129274190Y-132221428D01*
X129369428Y-132173809D01*
X129750380Y-132173809D01*
X124273285Y-142143333D02*
X123797095Y-142143333D01*
X124368523Y-141857619D02*
X124035190Y-142857619D01*
X123701857Y-141857619D01*
X123416142Y-142762380D02*
X123368523Y-142810000D01*
X123273285Y-142857619D01*
X123035190Y-142857619D01*
X122939952Y-142810000D01*
X122892333Y-142762380D01*
X122844714Y-142667142D01*
X122844714Y-142571904D01*
X122892333Y-142429047D01*
X123463761Y-141857619D01*
X122844714Y-141857619D01*
X132306000Y-129284619D02*
X132306000Y-130284619D01*
X132067904Y-130284619D01*
X131925047Y-130237000D01*
X131829809Y-130141761D01*
X131782190Y-130046523D01*
X131734571Y-129856047D01*
X131734571Y-129713190D01*
X131782190Y-129522714D01*
X131829809Y-129427476D01*
X131925047Y-129332238D01*
X132067904Y-129284619D01*
X132306000Y-129284619D01*
X131306000Y-129284619D02*
X131306000Y-130284619D01*
X130258380Y-129284619D02*
X130591714Y-129760809D01*
X130829809Y-129284619D02*
X130829809Y-130284619D01*
X130448857Y-130284619D01*
X130353619Y-130237000D01*
X130306000Y-130189380D01*
X130258380Y-130094142D01*
X130258380Y-129951285D01*
X130306000Y-129856047D01*
X130353619Y-129808428D01*
X130448857Y-129760809D01*
X130829809Y-129760809D01*
X124717761Y-147937619D02*
X124384428Y-146937619D01*
X124051095Y-147937619D01*
X123717761Y-146937619D02*
X123717761Y-147937619D01*
X123384428Y-147223333D01*
X123051095Y-147937619D01*
X123051095Y-146937619D01*
X125082904Y-145350000D02*
X125178142Y-145397619D01*
X125321000Y-145397619D01*
X125463857Y-145350000D01*
X125559095Y-145254761D01*
X125606714Y-145159523D01*
X125654333Y-144969047D01*
X125654333Y-144826190D01*
X125606714Y-144635714D01*
X125559095Y-144540476D01*
X125463857Y-144445238D01*
X125321000Y-144397619D01*
X125225761Y-144397619D01*
X125082904Y-144445238D01*
X125035285Y-144492857D01*
X125035285Y-144826190D01*
X125225761Y-144826190D01*
X124606714Y-144397619D02*
X124606714Y-145397619D01*
X124035285Y-144397619D01*
X124035285Y-145397619D01*
X123559095Y-144397619D02*
X123559095Y-145397619D01*
X123321000Y-145397619D01*
X123178142Y-145350000D01*
X123082904Y-145254761D01*
X123035285Y-145159523D01*
X122987666Y-144969047D01*
X122987666Y-144826190D01*
X123035285Y-144635714D01*
X123082904Y-144540476D01*
X123178142Y-144445238D01*
X123321000Y-144397619D01*
X123559095Y-144397619D01*
X125209904Y-130110000D02*
X125305142Y-130157619D01*
X125448000Y-130157619D01*
X125590857Y-130110000D01*
X125686095Y-130014761D01*
X125733714Y-129919523D01*
X125781333Y-129729047D01*
X125781333Y-129586190D01*
X125733714Y-129395714D01*
X125686095Y-129300476D01*
X125590857Y-129205238D01*
X125448000Y-129157619D01*
X125352761Y-129157619D01*
X125209904Y-129205238D01*
X125162285Y-129252857D01*
X125162285Y-129586190D01*
X125352761Y-129586190D01*
X124733714Y-129157619D02*
X124733714Y-130157619D01*
X124162285Y-129157619D01*
X124162285Y-130157619D01*
X123686095Y-129157619D02*
X123686095Y-130157619D01*
X123448000Y-130157619D01*
X123305142Y-130110000D01*
X123209904Y-130014761D01*
X123162285Y-129919523D01*
X123114666Y-129729047D01*
X123114666Y-129586190D01*
X123162285Y-129395714D01*
X123209904Y-129300476D01*
X123305142Y-129205238D01*
X123448000Y-129157619D01*
X123686095Y-129157619D01*
X132337714Y-144397619D02*
X132337714Y-145397619D01*
X132004380Y-144683333D01*
X131671047Y-145397619D01*
X131671047Y-144397619D01*
X131242476Y-144445238D02*
X131099619Y-144397619D01*
X130861523Y-144397619D01*
X130766285Y-144445238D01*
X130718666Y-144492857D01*
X130671047Y-144588095D01*
X130671047Y-144683333D01*
X130718666Y-144778571D01*
X130766285Y-144826190D01*
X130861523Y-144873809D01*
X131052000Y-144921428D01*
X131147238Y-144969047D01*
X131194857Y-145016666D01*
X131242476Y-145111904D01*
X131242476Y-145207142D01*
X131194857Y-145302380D01*
X131147238Y-145350000D01*
X131052000Y-145397619D01*
X130813904Y-145397619D01*
X130671047Y-145350000D01*
X129718666Y-144397619D02*
X130290095Y-144397619D01*
X130004380Y-144397619D02*
X130004380Y-145397619D01*
X130099619Y-145254761D01*
X130194857Y-145159523D01*
X130290095Y-145111904D01*
X124090761Y-137301428D02*
X123947904Y-137253809D01*
X123900285Y-137206190D01*
X123852666Y-137110952D01*
X123852666Y-136968095D01*
X123900285Y-136872857D01*
X123947904Y-136825238D01*
X124043142Y-136777619D01*
X124424095Y-136777619D01*
X124424095Y-137777619D01*
X124090761Y-137777619D01*
X123995523Y-137730000D01*
X123947904Y-137682380D01*
X123900285Y-137587142D01*
X123900285Y-137491904D01*
X123947904Y-137396666D01*
X123995523Y-137349047D01*
X124090761Y-137301428D01*
X124424095Y-137301428D01*
X122900285Y-136777619D02*
X123471714Y-136777619D01*
X123186000Y-136777619D02*
X123186000Y-137777619D01*
X123281238Y-137634761D01*
X123376476Y-137539523D01*
X123471714Y-137491904D01*
X132298095Y-147461428D02*
X131964761Y-147461428D01*
X131821904Y-146937619D02*
X132298095Y-146937619D01*
X132298095Y-147937619D01*
X131821904Y-147937619D01*
X131393333Y-146937619D02*
X131393333Y-147937619D01*
X130821904Y-146937619D01*
X130821904Y-147937619D01*
X125654333Y-132697619D02*
X125321000Y-131697619D01*
X124987666Y-132697619D01*
X124654333Y-131697619D02*
X124654333Y-132697619D01*
X124416238Y-132697619D01*
X124273380Y-132650000D01*
X124178142Y-132554761D01*
X124130523Y-132459523D01*
X124082904Y-132269047D01*
X124082904Y-132126190D01*
X124130523Y-131935714D01*
X124178142Y-131840476D01*
X124273380Y-131745238D01*
X124416238Y-131697619D01*
X124654333Y-131697619D01*
X123654333Y-131697619D02*
X123654333Y-132697619D01*
X123416238Y-132697619D01*
X123273380Y-132650000D01*
X123178142Y-132554761D01*
X123130523Y-132459523D01*
X123082904Y-132269047D01*
X123082904Y-132126190D01*
X123130523Y-131935714D01*
X123178142Y-131840476D01*
X123273380Y-131745238D01*
X123416238Y-131697619D01*
X123654333Y-131697619D01*
X132337714Y-141857619D02*
X132337714Y-142857619D01*
X132004380Y-142143333D01*
X131671047Y-142857619D01*
X131671047Y-141857619D01*
X131242476Y-141905238D02*
X131099619Y-141857619D01*
X130861523Y-141857619D01*
X130766285Y-141905238D01*
X130718666Y-141952857D01*
X130671047Y-142048095D01*
X130671047Y-142143333D01*
X130718666Y-142238571D01*
X130766285Y-142286190D01*
X130861523Y-142333809D01*
X131052000Y-142381428D01*
X131147238Y-142429047D01*
X131194857Y-142476666D01*
X131242476Y-142571904D01*
X131242476Y-142667142D01*
X131194857Y-142762380D01*
X131147238Y-142810000D01*
X131052000Y-142857619D01*
X130813904Y-142857619D01*
X130671047Y-142810000D01*
X130290095Y-142762380D02*
X130242476Y-142810000D01*
X130147238Y-142857619D01*
X129909142Y-142857619D01*
X129813904Y-142810000D01*
X129766285Y-142762380D01*
X129718666Y-142667142D01*
X129718666Y-142571904D01*
X129766285Y-142429047D01*
X130337714Y-141857619D01*
X129718666Y-141857619D01*
X124217761Y-134761428D02*
X124074904Y-134713809D01*
X124027285Y-134666190D01*
X123979666Y-134570952D01*
X123979666Y-134428095D01*
X124027285Y-134332857D01*
X124074904Y-134285238D01*
X124170142Y-134237619D01*
X124551095Y-134237619D01*
X124551095Y-135237619D01*
X124217761Y-135237619D01*
X124122523Y-135190000D01*
X124074904Y-135142380D01*
X124027285Y-135047142D01*
X124027285Y-134951904D01*
X124074904Y-134856666D01*
X124122523Y-134809047D01*
X124217761Y-134761428D01*
X124551095Y-134761428D01*
X123598714Y-135142380D02*
X123551095Y-135190000D01*
X123455857Y-135237619D01*
X123217761Y-135237619D01*
X123122523Y-135190000D01*
X123074904Y-135142380D01*
X123027285Y-135047142D01*
X123027285Y-134951904D01*
X123074904Y-134809047D01*
X123646333Y-134237619D01*
X123027285Y-134237619D01*
X124273285Y-139603333D02*
X123797095Y-139603333D01*
X124368523Y-139317619D02*
X124035190Y-140317619D01*
X123701857Y-139317619D01*
X122844714Y-139317619D02*
X123416142Y-139317619D01*
X123130428Y-139317619D02*
X123130428Y-140317619D01*
X123225666Y-140174761D01*
X123320904Y-140079523D01*
X123416142Y-140031904D01*
%TO.C,H4*%
X103238095Y-142602380D02*
X103238095Y-141602380D01*
X103238095Y-142078571D02*
X103809523Y-142078571D01*
X103809523Y-142602380D02*
X103809523Y-141602380D01*
X104714285Y-141935714D02*
X104714285Y-142602380D01*
X104476190Y-141554761D02*
X104238095Y-142269047D01*
X104857142Y-142269047D01*
%TO.C,H3*%
X195238095Y-142602380D02*
X195238095Y-141602380D01*
X195238095Y-142078571D02*
X195809523Y-142078571D01*
X195809523Y-142602380D02*
X195809523Y-141602380D01*
X196190476Y-141602380D02*
X196809523Y-141602380D01*
X196476190Y-141983333D01*
X196619047Y-141983333D01*
X196714285Y-142030952D01*
X196761904Y-142078571D01*
X196809523Y-142173809D01*
X196809523Y-142411904D01*
X196761904Y-142507142D01*
X196714285Y-142554761D01*
X196619047Y-142602380D01*
X196333333Y-142602380D01*
X196238095Y-142554761D01*
X196190476Y-142507142D01*
%TO.C,U1*%
X171238095Y-75452380D02*
X171238095Y-76261904D01*
X171285714Y-76357142D01*
X171333333Y-76404761D01*
X171428571Y-76452380D01*
X171619047Y-76452380D01*
X171714285Y-76404761D01*
X171761904Y-76357142D01*
X171809523Y-76261904D01*
X171809523Y-75452380D01*
X172809523Y-76452380D02*
X172238095Y-76452380D01*
X172523809Y-76452380D02*
X172523809Y-75452380D01*
X172428571Y-75595238D01*
X172333333Y-75690476D01*
X172238095Y-75738095D01*
X184097722Y-72590592D02*
X184016910Y-72617529D01*
X183936097Y-72698341D01*
X183882223Y-72806091D01*
X183882223Y-72913841D01*
X183909160Y-72994653D01*
X183989972Y-73129340D01*
X184070784Y-73210152D01*
X184205471Y-73290964D01*
X184286284Y-73317902D01*
X184394033Y-73317902D01*
X184501783Y-73264027D01*
X184555658Y-73210152D01*
X184609532Y-73102402D01*
X184609532Y-73048528D01*
X184420971Y-72859966D01*
X184313221Y-72967715D01*
X184905844Y-72859966D02*
X184340158Y-72294280D01*
X184555658Y-72078781D01*
X184636470Y-72051844D01*
X184690345Y-72051844D01*
X184771157Y-72078781D01*
X184851969Y-72159593D01*
X184878906Y-72240406D01*
X184878906Y-72294280D01*
X184851969Y-72375093D01*
X184636470Y-72590592D01*
X184932781Y-71809407D02*
X184932781Y-71755532D01*
X184959719Y-71674720D01*
X185094406Y-71540033D01*
X185175218Y-71513096D01*
X185229093Y-71513096D01*
X185309905Y-71540033D01*
X185363780Y-71593908D01*
X185417654Y-71701658D01*
X185417654Y-72348155D01*
X185767841Y-71997969D01*
X185390717Y-71243722D02*
X185767841Y-70866598D01*
X186091089Y-71674720D01*
X184838375Y-77943435D02*
X184380439Y-77862622D01*
X184515126Y-78266683D02*
X183949441Y-77700998D01*
X184164940Y-77485499D01*
X184245752Y-77458561D01*
X184299627Y-77458561D01*
X184380439Y-77485499D01*
X184461251Y-77566311D01*
X184488189Y-77647123D01*
X184488189Y-77700998D01*
X184461251Y-77781810D01*
X184245752Y-77997309D01*
X184515126Y-77135312D02*
X184973062Y-77593248D01*
X185053874Y-77620186D01*
X185107749Y-77620186D01*
X185188561Y-77593248D01*
X185296311Y-77485499D01*
X185323248Y-77404687D01*
X185323248Y-77350812D01*
X185296311Y-77269999D01*
X184838375Y-76812064D01*
X185673435Y-77108375D02*
X185107749Y-76542690D01*
X185996683Y-76785126D01*
X185430998Y-76219441D01*
X157989722Y-85280592D02*
X157908910Y-85307529D01*
X157828097Y-85388341D01*
X157774223Y-85496091D01*
X157774223Y-85603841D01*
X157801160Y-85684653D01*
X157881972Y-85819340D01*
X157962784Y-85900152D01*
X158097471Y-85980964D01*
X158178284Y-86007902D01*
X158286033Y-86007902D01*
X158393783Y-85954027D01*
X158447658Y-85900152D01*
X158501532Y-85792402D01*
X158501532Y-85738528D01*
X158312971Y-85549966D01*
X158205221Y-85657715D01*
X158797844Y-85549966D02*
X158232158Y-84984280D01*
X158447658Y-84768781D01*
X158528470Y-84741844D01*
X158582345Y-84741844D01*
X158663157Y-84768781D01*
X158743969Y-84849593D01*
X158770906Y-84930406D01*
X158770906Y-84984280D01*
X158743969Y-85065093D01*
X158528470Y-85280592D01*
X159659841Y-84687969D02*
X159336592Y-85011218D01*
X159498216Y-84849593D02*
X158932531Y-84283908D01*
X158959468Y-84418595D01*
X158959468Y-84526345D01*
X158932531Y-84607157D01*
X159444341Y-83772097D02*
X159498216Y-83718223D01*
X159579028Y-83691285D01*
X159632903Y-83691285D01*
X159713715Y-83718223D01*
X159848402Y-83799035D01*
X159983089Y-83933722D01*
X160063902Y-84068409D01*
X160090839Y-84149221D01*
X160090839Y-84203096D01*
X160063902Y-84283908D01*
X160010027Y-84337783D01*
X159929215Y-84364720D01*
X159875340Y-84364720D01*
X159794528Y-84337783D01*
X159659841Y-84256971D01*
X159525154Y-84122284D01*
X159444341Y-83987597D01*
X159417404Y-83906784D01*
X159417404Y-83852910D01*
X159444341Y-83772097D01*
X158413096Y-54521218D02*
X158332284Y-54548155D01*
X158251471Y-54628967D01*
X158197597Y-54736717D01*
X158197597Y-54844467D01*
X158224534Y-54925279D01*
X158305346Y-55059966D01*
X158386158Y-55140778D01*
X158520845Y-55221590D01*
X158601658Y-55248528D01*
X158709407Y-55248528D01*
X158817157Y-55194653D01*
X158871032Y-55140778D01*
X158924906Y-55033028D01*
X158924906Y-54979154D01*
X158736345Y-54790592D01*
X158628595Y-54898341D01*
X159221218Y-54790592D02*
X158655532Y-54224906D01*
X158871032Y-54009407D01*
X158951844Y-53982470D01*
X159005719Y-53982470D01*
X159086531Y-54009407D01*
X159167343Y-54090219D01*
X159194280Y-54171032D01*
X159194280Y-54224906D01*
X159167343Y-54305719D01*
X158951844Y-54521218D01*
X160083215Y-53928595D02*
X159759966Y-54251844D01*
X159921590Y-54090219D02*
X159355905Y-53524534D01*
X159382842Y-53659221D01*
X159382842Y-53766971D01*
X159355905Y-53847783D01*
X157843722Y-90360592D02*
X157762910Y-90387529D01*
X157682097Y-90468341D01*
X157628223Y-90576091D01*
X157628223Y-90683841D01*
X157655160Y-90764653D01*
X157735972Y-90899340D01*
X157816784Y-90980152D01*
X157951471Y-91060964D01*
X158032284Y-91087902D01*
X158140033Y-91087902D01*
X158247783Y-91034027D01*
X158301658Y-90980152D01*
X158355532Y-90872402D01*
X158355532Y-90818528D01*
X158166971Y-90629966D01*
X158059221Y-90737715D01*
X158651844Y-90629966D02*
X158086158Y-90064280D01*
X158301658Y-89848781D01*
X158382470Y-89821844D01*
X158436345Y-89821844D01*
X158517157Y-89848781D01*
X158597969Y-89929593D01*
X158624906Y-90010406D01*
X158624906Y-90064280D01*
X158597969Y-90145093D01*
X158382470Y-90360592D01*
X159513841Y-89767969D02*
X159190592Y-90091218D01*
X159352216Y-89929593D02*
X158786531Y-89363908D01*
X158813468Y-89498595D01*
X158813468Y-89606345D01*
X158786531Y-89687157D01*
X159217529Y-89040659D02*
X159217529Y-88986784D01*
X159244467Y-88905972D01*
X159379154Y-88771285D01*
X159459966Y-88744348D01*
X159513841Y-88744348D01*
X159594653Y-88771285D01*
X159648528Y-88825160D01*
X159702402Y-88932910D01*
X159702402Y-89579407D01*
X160052589Y-89229221D01*
X183920473Y-55069966D02*
X184674720Y-55447089D01*
X184297597Y-54692842D01*
X184997969Y-55069966D02*
X185105719Y-55016091D01*
X185240406Y-54881404D01*
X185267343Y-54800592D01*
X185267343Y-54746717D01*
X185240406Y-54665905D01*
X185186531Y-54612030D01*
X185105719Y-54585093D01*
X185051844Y-54585093D01*
X184971032Y-54612030D01*
X184836345Y-54692842D01*
X184755532Y-54719780D01*
X184701658Y-54719780D01*
X184620845Y-54692842D01*
X184566971Y-54638967D01*
X184540033Y-54558155D01*
X184540033Y-54504280D01*
X184566971Y-54423468D01*
X184701658Y-54288781D01*
X184809407Y-54234906D01*
X185428967Y-54154094D02*
X185698341Y-54423468D01*
X184944094Y-54046345D02*
X185428967Y-54154094D01*
X185321218Y-53669221D01*
X186021590Y-54046345D02*
X186129340Y-53992470D01*
X186264027Y-53857783D01*
X186290964Y-53776971D01*
X186290964Y-53723096D01*
X186264027Y-53642284D01*
X186210152Y-53588409D01*
X186129340Y-53561471D01*
X186075465Y-53561471D01*
X185994653Y-53588409D01*
X185859966Y-53669221D01*
X185779154Y-53696158D01*
X185725279Y-53696158D01*
X185644467Y-53669221D01*
X185590592Y-53615346D01*
X185563654Y-53534534D01*
X185563654Y-53480659D01*
X185590592Y-53399847D01*
X185725279Y-53265160D01*
X185833028Y-53211285D01*
X157943722Y-97980592D02*
X157862910Y-98007529D01*
X157782097Y-98088341D01*
X157728223Y-98196091D01*
X157728223Y-98303841D01*
X157755160Y-98384653D01*
X157835972Y-98519340D01*
X157916784Y-98600152D01*
X158051471Y-98680964D01*
X158132284Y-98707902D01*
X158240033Y-98707902D01*
X158347783Y-98654027D01*
X158401658Y-98600152D01*
X158455532Y-98492402D01*
X158455532Y-98438528D01*
X158266971Y-98249966D01*
X158159221Y-98357715D01*
X158751844Y-98249966D02*
X158186158Y-97684280D01*
X158401658Y-97468781D01*
X158482470Y-97441844D01*
X158536345Y-97441844D01*
X158617157Y-97468781D01*
X158697969Y-97549593D01*
X158724906Y-97630406D01*
X158724906Y-97684280D01*
X158697969Y-97765093D01*
X158482470Y-97980592D01*
X159613841Y-97387969D02*
X159290592Y-97711218D01*
X159452216Y-97549593D02*
X158886531Y-96983908D01*
X158913468Y-97118595D01*
X158913468Y-97226345D01*
X158886531Y-97307157D01*
X159721590Y-96525972D02*
X160098714Y-96903096D01*
X159371404Y-96445160D02*
X159640778Y-96983908D01*
X159990964Y-96633722D01*
X158486158Y-82498155D02*
X158405346Y-82525093D01*
X158324534Y-82605905D01*
X158270659Y-82713654D01*
X158270659Y-82821404D01*
X158297597Y-82902216D01*
X158378409Y-83036903D01*
X158459221Y-83117715D01*
X158593908Y-83198528D01*
X158674720Y-83225465D01*
X158782470Y-83225465D01*
X158890219Y-83171590D01*
X158944094Y-83117715D01*
X158997969Y-83009966D01*
X158997969Y-82956091D01*
X158809407Y-82767529D01*
X158701658Y-82875279D01*
X159294280Y-82767529D02*
X158728595Y-82201844D01*
X159617529Y-82444280D01*
X159051844Y-81878595D01*
X159886903Y-82174906D02*
X159321218Y-81609221D01*
X159455905Y-81474534D01*
X159563654Y-81420659D01*
X159671404Y-81420659D01*
X159752216Y-81447597D01*
X159886903Y-81528409D01*
X159967715Y-81609221D01*
X160048528Y-81743908D01*
X160075465Y-81824720D01*
X160075465Y-81932470D01*
X160021590Y-82040219D01*
X159886903Y-82174906D01*
X184097722Y-80200592D02*
X184016910Y-80227529D01*
X183936097Y-80308341D01*
X183882223Y-80416091D01*
X183882223Y-80523841D01*
X183909160Y-80604653D01*
X183989972Y-80739340D01*
X184070784Y-80820152D01*
X184205471Y-80900964D01*
X184286284Y-80927902D01*
X184394033Y-80927902D01*
X184501783Y-80874027D01*
X184555658Y-80820152D01*
X184609532Y-80712402D01*
X184609532Y-80658528D01*
X184420971Y-80469966D01*
X184313221Y-80577715D01*
X184905844Y-80469966D02*
X184340158Y-79904280D01*
X184555658Y-79688781D01*
X184636470Y-79661844D01*
X184690345Y-79661844D01*
X184771157Y-79688781D01*
X184851969Y-79769593D01*
X184878906Y-79850406D01*
X184878906Y-79904280D01*
X184851969Y-79985093D01*
X184636470Y-80200592D01*
X184932781Y-79419407D02*
X184932781Y-79365532D01*
X184959719Y-79284720D01*
X185094406Y-79150033D01*
X185175218Y-79123096D01*
X185229093Y-79123096D01*
X185309905Y-79150033D01*
X185363780Y-79203908D01*
X185417654Y-79311658D01*
X185417654Y-79958155D01*
X185767841Y-79607969D01*
X185471529Y-78880659D02*
X185471529Y-78826784D01*
X185498467Y-78745972D01*
X185633154Y-78611285D01*
X185713966Y-78584348D01*
X185767841Y-78584348D01*
X185848653Y-78611285D01*
X185902528Y-78665160D01*
X185956402Y-78772910D01*
X185956402Y-79419407D01*
X186306589Y-79069221D01*
X184097722Y-85290592D02*
X184016910Y-85317529D01*
X183936097Y-85398341D01*
X183882223Y-85506091D01*
X183882223Y-85613841D01*
X183909160Y-85694653D01*
X183989972Y-85829340D01*
X184070784Y-85910152D01*
X184205471Y-85990964D01*
X184286284Y-86017902D01*
X184394033Y-86017902D01*
X184501783Y-85964027D01*
X184555658Y-85910152D01*
X184609532Y-85802402D01*
X184609532Y-85748528D01*
X184420971Y-85559966D01*
X184313221Y-85667715D01*
X184905844Y-85559966D02*
X184340158Y-84994280D01*
X184555658Y-84778781D01*
X184636470Y-84751844D01*
X184690345Y-84751844D01*
X184771157Y-84778781D01*
X184851969Y-84859593D01*
X184878906Y-84940406D01*
X184878906Y-84994280D01*
X184851969Y-85075093D01*
X184636470Y-85290592D01*
X184932781Y-84509407D02*
X184932781Y-84455532D01*
X184959719Y-84374720D01*
X185094406Y-84240033D01*
X185175218Y-84213096D01*
X185229093Y-84213096D01*
X185309905Y-84240033D01*
X185363780Y-84293908D01*
X185417654Y-84401658D01*
X185417654Y-85048155D01*
X185767841Y-84697969D01*
X186306589Y-84159221D02*
X185983340Y-84482470D01*
X186144964Y-84320845D02*
X185579279Y-83755160D01*
X185606216Y-83889847D01*
X185606216Y-83997597D01*
X185579279Y-84078409D01*
X158513096Y-72311218D02*
X158432284Y-72338155D01*
X158351471Y-72418967D01*
X158297597Y-72526717D01*
X158297597Y-72634467D01*
X158324534Y-72715279D01*
X158405346Y-72849966D01*
X158486158Y-72930778D01*
X158620845Y-73011590D01*
X158701658Y-73038528D01*
X158809407Y-73038528D01*
X158917157Y-72984653D01*
X158971032Y-72930778D01*
X159024906Y-72823028D01*
X159024906Y-72769154D01*
X158836345Y-72580592D01*
X158728595Y-72688341D01*
X159321218Y-72580592D02*
X158755532Y-72014906D01*
X158971032Y-71799407D01*
X159051844Y-71772470D01*
X159105719Y-71772470D01*
X159186531Y-71799407D01*
X159267343Y-71880219D01*
X159294280Y-71961032D01*
X159294280Y-72014906D01*
X159267343Y-72095719D01*
X159051844Y-72311218D01*
X159563654Y-71206784D02*
X159455905Y-71314534D01*
X159428967Y-71395346D01*
X159428967Y-71449221D01*
X159455905Y-71583908D01*
X159536717Y-71718595D01*
X159752216Y-71934094D01*
X159833028Y-71961032D01*
X159886903Y-71961032D01*
X159967715Y-71934094D01*
X160075465Y-71826345D01*
X160102402Y-71745532D01*
X160102402Y-71691658D01*
X160075465Y-71610845D01*
X159940778Y-71476158D01*
X159859966Y-71449221D01*
X159806091Y-71449221D01*
X159725279Y-71476158D01*
X159617529Y-71583908D01*
X159590592Y-71664720D01*
X159590592Y-71718595D01*
X159617529Y-71799407D01*
X184097722Y-92900592D02*
X184016910Y-92927529D01*
X183936097Y-93008341D01*
X183882223Y-93116091D01*
X183882223Y-93223841D01*
X183909160Y-93304653D01*
X183989972Y-93439340D01*
X184070784Y-93520152D01*
X184205471Y-93600964D01*
X184286284Y-93627902D01*
X184394033Y-93627902D01*
X184501783Y-93574027D01*
X184555658Y-93520152D01*
X184609532Y-93412402D01*
X184609532Y-93358528D01*
X184420971Y-93169966D01*
X184313221Y-93277715D01*
X184905844Y-93169966D02*
X184340158Y-92604280D01*
X184555658Y-92388781D01*
X184636470Y-92361844D01*
X184690345Y-92361844D01*
X184771157Y-92388781D01*
X184851969Y-92469593D01*
X184878906Y-92550406D01*
X184878906Y-92604280D01*
X184851969Y-92685093D01*
X184636470Y-92900592D01*
X185767841Y-92307969D02*
X185444592Y-92631218D01*
X185606216Y-92469593D02*
X185040531Y-91903908D01*
X185067468Y-92038595D01*
X185067468Y-92146345D01*
X185040531Y-92227157D01*
X185767841Y-91661471D02*
X185687028Y-91688409D01*
X185633154Y-91688409D01*
X185552341Y-91661471D01*
X185525404Y-91634534D01*
X185498467Y-91553722D01*
X185498467Y-91499847D01*
X185525404Y-91419035D01*
X185633154Y-91311285D01*
X185713966Y-91284348D01*
X185767841Y-91284348D01*
X185848653Y-91311285D01*
X185875590Y-91338223D01*
X185902528Y-91419035D01*
X185902528Y-91472910D01*
X185875590Y-91553722D01*
X185767841Y-91661471D01*
X185740903Y-91742284D01*
X185740903Y-91796158D01*
X185767841Y-91876971D01*
X185875590Y-91984720D01*
X185956402Y-92011658D01*
X186010277Y-92011658D01*
X186091089Y-91984720D01*
X186198839Y-91876971D01*
X186225776Y-91796158D01*
X186225776Y-91742284D01*
X186198839Y-91661471D01*
X186091089Y-91553722D01*
X186010277Y-91526784D01*
X185956402Y-91526784D01*
X185875590Y-91553722D01*
X158413096Y-59611218D02*
X158332284Y-59638155D01*
X158251471Y-59718967D01*
X158197597Y-59826717D01*
X158197597Y-59934467D01*
X158224534Y-60015279D01*
X158305346Y-60149966D01*
X158386158Y-60230778D01*
X158520845Y-60311590D01*
X158601658Y-60338528D01*
X158709407Y-60338528D01*
X158817157Y-60284653D01*
X158871032Y-60230778D01*
X158924906Y-60123028D01*
X158924906Y-60069154D01*
X158736345Y-59880592D01*
X158628595Y-59988341D01*
X159221218Y-59880592D02*
X158655532Y-59314906D01*
X158871032Y-59099407D01*
X158951844Y-59072470D01*
X159005719Y-59072470D01*
X159086531Y-59099407D01*
X159167343Y-59180219D01*
X159194280Y-59261032D01*
X159194280Y-59314906D01*
X159167343Y-59395719D01*
X158951844Y-59611218D01*
X159248155Y-58830033D02*
X159248155Y-58776158D01*
X159275093Y-58695346D01*
X159409780Y-58560659D01*
X159490592Y-58533722D01*
X159544467Y-58533722D01*
X159625279Y-58560659D01*
X159679154Y-58614534D01*
X159733028Y-58722284D01*
X159733028Y-59368781D01*
X160083215Y-59018595D01*
X184097722Y-90360592D02*
X184016910Y-90387529D01*
X183936097Y-90468341D01*
X183882223Y-90576091D01*
X183882223Y-90683841D01*
X183909160Y-90764653D01*
X183989972Y-90899340D01*
X184070784Y-90980152D01*
X184205471Y-91060964D01*
X184286284Y-91087902D01*
X184394033Y-91087902D01*
X184501783Y-91034027D01*
X184555658Y-90980152D01*
X184609532Y-90872402D01*
X184609532Y-90818528D01*
X184420971Y-90629966D01*
X184313221Y-90737715D01*
X184905844Y-90629966D02*
X184340158Y-90064280D01*
X184555658Y-89848781D01*
X184636470Y-89821844D01*
X184690345Y-89821844D01*
X184771157Y-89848781D01*
X184851969Y-89929593D01*
X184878906Y-90010406D01*
X184878906Y-90064280D01*
X184851969Y-90145093D01*
X184636470Y-90360592D01*
X185767841Y-89767969D02*
X185444592Y-90091218D01*
X185606216Y-89929593D02*
X185040531Y-89363908D01*
X185067468Y-89498595D01*
X185067468Y-89606345D01*
X185040531Y-89687157D01*
X186037215Y-89498595D02*
X186144964Y-89390845D01*
X186171902Y-89310033D01*
X186171902Y-89256158D01*
X186144964Y-89121471D01*
X186064152Y-88986784D01*
X185848653Y-88771285D01*
X185767841Y-88744348D01*
X185713966Y-88744348D01*
X185633154Y-88771285D01*
X185525404Y-88879035D01*
X185498467Y-88959847D01*
X185498467Y-89013722D01*
X185525404Y-89094534D01*
X185660091Y-89229221D01*
X185740903Y-89256158D01*
X185794778Y-89256158D01*
X185875590Y-89229221D01*
X185983340Y-89121471D01*
X186010277Y-89040659D01*
X186010277Y-88986784D01*
X185983340Y-88905972D01*
X184097722Y-87820592D02*
X184016910Y-87847529D01*
X183936097Y-87928341D01*
X183882223Y-88036091D01*
X183882223Y-88143841D01*
X183909160Y-88224653D01*
X183989972Y-88359340D01*
X184070784Y-88440152D01*
X184205471Y-88520964D01*
X184286284Y-88547902D01*
X184394033Y-88547902D01*
X184501783Y-88494027D01*
X184555658Y-88440152D01*
X184609532Y-88332402D01*
X184609532Y-88278528D01*
X184420971Y-88089966D01*
X184313221Y-88197715D01*
X184905844Y-88089966D02*
X184340158Y-87524280D01*
X184555658Y-87308781D01*
X184636470Y-87281844D01*
X184690345Y-87281844D01*
X184771157Y-87308781D01*
X184851969Y-87389593D01*
X184878906Y-87470406D01*
X184878906Y-87524280D01*
X184851969Y-87605093D01*
X184636470Y-87820592D01*
X184932781Y-87039407D02*
X184932781Y-86985532D01*
X184959719Y-86904720D01*
X185094406Y-86770033D01*
X185175218Y-86743096D01*
X185229093Y-86743096D01*
X185309905Y-86770033D01*
X185363780Y-86823908D01*
X185417654Y-86931658D01*
X185417654Y-87578155D01*
X185767841Y-87227969D01*
X185552341Y-86312097D02*
X185606216Y-86258223D01*
X185687028Y-86231285D01*
X185740903Y-86231285D01*
X185821715Y-86258223D01*
X185956402Y-86339035D01*
X186091089Y-86473722D01*
X186171902Y-86608409D01*
X186198839Y-86689221D01*
X186198839Y-86743096D01*
X186171902Y-86823908D01*
X186118027Y-86877783D01*
X186037215Y-86904720D01*
X185983340Y-86904720D01*
X185902528Y-86877783D01*
X185767841Y-86796971D01*
X185633154Y-86662284D01*
X185552341Y-86527597D01*
X185525404Y-86446784D01*
X185525404Y-86392910D01*
X185552341Y-86312097D01*
X158486158Y-57098155D02*
X158405346Y-57125093D01*
X158324534Y-57205905D01*
X158270659Y-57313654D01*
X158270659Y-57421404D01*
X158297597Y-57502216D01*
X158378409Y-57636903D01*
X158459221Y-57717715D01*
X158593908Y-57798528D01*
X158674720Y-57825465D01*
X158782470Y-57825465D01*
X158890219Y-57771590D01*
X158944094Y-57717715D01*
X158997969Y-57609966D01*
X158997969Y-57556091D01*
X158809407Y-57367529D01*
X158701658Y-57475279D01*
X159294280Y-57367529D02*
X158728595Y-56801844D01*
X159617529Y-57044280D01*
X159051844Y-56478595D01*
X159886903Y-56774906D02*
X159321218Y-56209221D01*
X159455905Y-56074534D01*
X159563654Y-56020659D01*
X159671404Y-56020659D01*
X159752216Y-56047597D01*
X159886903Y-56128409D01*
X159967715Y-56209221D01*
X160048528Y-56343908D01*
X160075465Y-56424720D01*
X160075465Y-56532470D01*
X160021590Y-56640219D01*
X159886903Y-56774906D01*
X158486158Y-95198155D02*
X158405346Y-95225093D01*
X158324534Y-95305905D01*
X158270659Y-95413654D01*
X158270659Y-95521404D01*
X158297597Y-95602216D01*
X158378409Y-95736903D01*
X158459221Y-95817715D01*
X158593908Y-95898528D01*
X158674720Y-95925465D01*
X158782470Y-95925465D01*
X158890219Y-95871590D01*
X158944094Y-95817715D01*
X158997969Y-95709966D01*
X158997969Y-95656091D01*
X158809407Y-95467529D01*
X158701658Y-95575279D01*
X159294280Y-95467529D02*
X158728595Y-94901844D01*
X159617529Y-95144280D01*
X159051844Y-94578595D01*
X159886903Y-94874906D02*
X159321218Y-94309221D01*
X159455905Y-94174534D01*
X159563654Y-94120659D01*
X159671404Y-94120659D01*
X159752216Y-94147597D01*
X159886903Y-94228409D01*
X159967715Y-94309221D01*
X160048528Y-94443908D01*
X160075465Y-94524720D01*
X160075465Y-94632470D01*
X160021590Y-94740219D01*
X159886903Y-94874906D01*
X158513096Y-62151218D02*
X158432284Y-62178155D01*
X158351471Y-62258967D01*
X158297597Y-62366717D01*
X158297597Y-62474467D01*
X158324534Y-62555279D01*
X158405346Y-62689966D01*
X158486158Y-62770778D01*
X158620845Y-62851590D01*
X158701658Y-62878528D01*
X158809407Y-62878528D01*
X158917157Y-62824653D01*
X158971032Y-62770778D01*
X159024906Y-62663028D01*
X159024906Y-62609154D01*
X158836345Y-62420592D01*
X158728595Y-62528341D01*
X159321218Y-62420592D02*
X158755532Y-61854906D01*
X158971032Y-61639407D01*
X159051844Y-61612470D01*
X159105719Y-61612470D01*
X159186531Y-61639407D01*
X159267343Y-61720219D01*
X159294280Y-61801032D01*
X159294280Y-61854906D01*
X159267343Y-61935719D01*
X159051844Y-62151218D01*
X159267343Y-61343096D02*
X159617529Y-60992910D01*
X159644467Y-61396971D01*
X159725279Y-61316158D01*
X159806091Y-61289221D01*
X159859966Y-61289221D01*
X159940778Y-61316158D01*
X160075465Y-61450845D01*
X160102402Y-61531658D01*
X160102402Y-61585532D01*
X160075465Y-61666345D01*
X159913841Y-61827969D01*
X159833028Y-61854906D01*
X159779154Y-61854906D01*
X158513096Y-51991218D02*
X158432284Y-52018155D01*
X158351471Y-52098967D01*
X158297597Y-52206717D01*
X158297597Y-52314467D01*
X158324534Y-52395279D01*
X158405346Y-52529966D01*
X158486158Y-52610778D01*
X158620845Y-52691590D01*
X158701658Y-52718528D01*
X158809407Y-52718528D01*
X158917157Y-52664653D01*
X158971032Y-52610778D01*
X159024906Y-52503028D01*
X159024906Y-52449154D01*
X158836345Y-52260592D01*
X158728595Y-52368341D01*
X159321218Y-52260592D02*
X158755532Y-51694906D01*
X158971032Y-51479407D01*
X159051844Y-51452470D01*
X159105719Y-51452470D01*
X159186531Y-51479407D01*
X159267343Y-51560219D01*
X159294280Y-51641032D01*
X159294280Y-51694906D01*
X159267343Y-51775719D01*
X159051844Y-51991218D01*
X159428967Y-51021471D02*
X159482842Y-50967597D01*
X159563654Y-50940659D01*
X159617529Y-50940659D01*
X159698341Y-50967597D01*
X159833028Y-51048409D01*
X159967715Y-51183096D01*
X160048528Y-51317783D01*
X160075465Y-51398595D01*
X160075465Y-51452470D01*
X160048528Y-51533282D01*
X159994653Y-51587157D01*
X159913841Y-51614094D01*
X159859966Y-51614094D01*
X159779154Y-51587157D01*
X159644467Y-51506345D01*
X159509780Y-51371658D01*
X159428967Y-51236971D01*
X159402030Y-51156158D01*
X159402030Y-51102284D01*
X159428967Y-51021471D01*
X158513096Y-67231218D02*
X158432284Y-67258155D01*
X158351471Y-67338967D01*
X158297597Y-67446717D01*
X158297597Y-67554467D01*
X158324534Y-67635279D01*
X158405346Y-67769966D01*
X158486158Y-67850778D01*
X158620845Y-67931590D01*
X158701658Y-67958528D01*
X158809407Y-67958528D01*
X158917157Y-67904653D01*
X158971032Y-67850778D01*
X159024906Y-67743028D01*
X159024906Y-67689154D01*
X158836345Y-67500592D01*
X158728595Y-67608341D01*
X159321218Y-67500592D02*
X158755532Y-66934906D01*
X158971032Y-66719407D01*
X159051844Y-66692470D01*
X159105719Y-66692470D01*
X159186531Y-66719407D01*
X159267343Y-66800219D01*
X159294280Y-66881032D01*
X159294280Y-66934906D01*
X159267343Y-67015719D01*
X159051844Y-67231218D01*
X159590592Y-66099847D02*
X159321218Y-66369221D01*
X159563654Y-66665532D01*
X159563654Y-66611658D01*
X159590592Y-66530845D01*
X159725279Y-66396158D01*
X159806091Y-66369221D01*
X159859966Y-66369221D01*
X159940778Y-66396158D01*
X160075465Y-66530845D01*
X160102402Y-66611658D01*
X160102402Y-66665532D01*
X160075465Y-66746345D01*
X159940778Y-66881032D01*
X159859966Y-66907969D01*
X159806091Y-66907969D01*
X175904761Y-102523809D02*
X176019047Y-102561904D01*
X176209523Y-102561904D01*
X176285714Y-102523809D01*
X176323809Y-102485714D01*
X176361904Y-102409523D01*
X176361904Y-102333333D01*
X176323809Y-102257142D01*
X176285714Y-102219047D01*
X176209523Y-102180952D01*
X176057142Y-102142857D01*
X175980952Y-102104761D01*
X175942857Y-102066666D01*
X175904761Y-101990476D01*
X175904761Y-101914285D01*
X175942857Y-101838095D01*
X175980952Y-101800000D01*
X176057142Y-101761904D01*
X176247619Y-101761904D01*
X176361904Y-101800000D01*
X176628571Y-101761904D02*
X176819047Y-102561904D01*
X176971428Y-101990476D01*
X177123809Y-102561904D01*
X177314285Y-101761904D01*
X177619047Y-102561904D02*
X177619047Y-101761904D01*
X177809523Y-101761904D01*
X177923809Y-101800000D01*
X178000000Y-101876190D01*
X178038095Y-101952380D01*
X178076190Y-102104761D01*
X178076190Y-102219047D01*
X178038095Y-102371428D01*
X178000000Y-102447619D01*
X177923809Y-102523809D01*
X177809523Y-102561904D01*
X177619047Y-102561904D01*
X178419047Y-102561904D02*
X178419047Y-101761904D01*
X178952380Y-101761904D02*
X179104761Y-101761904D01*
X179180952Y-101800000D01*
X179257142Y-101876190D01*
X179295238Y-102028571D01*
X179295238Y-102295238D01*
X179257142Y-102447619D01*
X179180952Y-102523809D01*
X179104761Y-102561904D01*
X178952380Y-102561904D01*
X178876190Y-102523809D01*
X178800000Y-102447619D01*
X178761904Y-102295238D01*
X178761904Y-102028571D01*
X178800000Y-101876190D01*
X178876190Y-101800000D01*
X178952380Y-101761904D01*
X158513096Y-79931218D02*
X158432284Y-79958155D01*
X158351471Y-80038967D01*
X158297597Y-80146717D01*
X158297597Y-80254467D01*
X158324534Y-80335279D01*
X158405346Y-80469966D01*
X158486158Y-80550778D01*
X158620845Y-80631590D01*
X158701658Y-80658528D01*
X158809407Y-80658528D01*
X158917157Y-80604653D01*
X158971032Y-80550778D01*
X159024906Y-80443028D01*
X159024906Y-80389154D01*
X158836345Y-80200592D01*
X158728595Y-80308341D01*
X159321218Y-80200592D02*
X158755532Y-79634906D01*
X158971032Y-79419407D01*
X159051844Y-79392470D01*
X159105719Y-79392470D01*
X159186531Y-79419407D01*
X159267343Y-79500219D01*
X159294280Y-79581032D01*
X159294280Y-79634906D01*
X159267343Y-79715719D01*
X159051844Y-79931218D01*
X159913841Y-79607969D02*
X160021590Y-79500219D01*
X160048528Y-79419407D01*
X160048528Y-79365532D01*
X160021590Y-79230845D01*
X159940778Y-79096158D01*
X159725279Y-78880659D01*
X159644467Y-78853722D01*
X159590592Y-78853722D01*
X159509780Y-78880659D01*
X159402030Y-78988409D01*
X159375093Y-79069221D01*
X159375093Y-79123096D01*
X159402030Y-79203908D01*
X159536717Y-79338595D01*
X159617529Y-79365532D01*
X159671404Y-79365532D01*
X159752216Y-79338595D01*
X159859966Y-79230845D01*
X159886903Y-79150033D01*
X159886903Y-79096158D01*
X159859966Y-79015346D01*
X184097722Y-67246592D02*
X184016910Y-67273529D01*
X183936097Y-67354341D01*
X183882223Y-67462091D01*
X183882223Y-67569841D01*
X183909160Y-67650653D01*
X183989972Y-67785340D01*
X184070784Y-67866152D01*
X184205471Y-67946964D01*
X184286284Y-67973902D01*
X184394033Y-67973902D01*
X184501783Y-67920027D01*
X184555658Y-67866152D01*
X184609532Y-67758402D01*
X184609532Y-67704528D01*
X184420971Y-67515966D01*
X184313221Y-67623715D01*
X184905844Y-67515966D02*
X184340158Y-66950280D01*
X184555658Y-66734781D01*
X184636470Y-66707844D01*
X184690345Y-66707844D01*
X184771157Y-66734781D01*
X184851969Y-66815593D01*
X184878906Y-66896406D01*
X184878906Y-66950280D01*
X184851969Y-67031093D01*
X184636470Y-67246592D01*
X184932781Y-66465407D02*
X184932781Y-66411532D01*
X184959719Y-66330720D01*
X185094406Y-66196033D01*
X185175218Y-66169096D01*
X185229093Y-66169096D01*
X185309905Y-66196033D01*
X185363780Y-66249908D01*
X185417654Y-66357658D01*
X185417654Y-67004155D01*
X185767841Y-66653969D01*
X185767841Y-66007471D02*
X185687028Y-66034409D01*
X185633154Y-66034409D01*
X185552341Y-66007471D01*
X185525404Y-65980534D01*
X185498467Y-65899722D01*
X185498467Y-65845847D01*
X185525404Y-65765035D01*
X185633154Y-65657285D01*
X185713966Y-65630348D01*
X185767841Y-65630348D01*
X185848653Y-65657285D01*
X185875590Y-65684223D01*
X185902528Y-65765035D01*
X185902528Y-65818910D01*
X185875590Y-65899722D01*
X185767841Y-66007471D01*
X185740903Y-66088284D01*
X185740903Y-66142158D01*
X185767841Y-66222971D01*
X185875590Y-66330720D01*
X185956402Y-66357658D01*
X186010277Y-66357658D01*
X186091089Y-66330720D01*
X186198839Y-66222971D01*
X186225776Y-66142158D01*
X186225776Y-66088284D01*
X186198839Y-66007471D01*
X186091089Y-65899722D01*
X186010277Y-65872784D01*
X185956402Y-65872784D01*
X185875590Y-65899722D01*
X158486158Y-69798155D02*
X158405346Y-69825093D01*
X158324534Y-69905905D01*
X158270659Y-70013654D01*
X158270659Y-70121404D01*
X158297597Y-70202216D01*
X158378409Y-70336903D01*
X158459221Y-70417715D01*
X158593908Y-70498528D01*
X158674720Y-70525465D01*
X158782470Y-70525465D01*
X158890219Y-70471590D01*
X158944094Y-70417715D01*
X158997969Y-70309966D01*
X158997969Y-70256091D01*
X158809407Y-70067529D01*
X158701658Y-70175279D01*
X159294280Y-70067529D02*
X158728595Y-69501844D01*
X159617529Y-69744280D01*
X159051844Y-69178595D01*
X159886903Y-69474906D02*
X159321218Y-68909221D01*
X159455905Y-68774534D01*
X159563654Y-68720659D01*
X159671404Y-68720659D01*
X159752216Y-68747597D01*
X159886903Y-68828409D01*
X159967715Y-68909221D01*
X160048528Y-69043908D01*
X160075465Y-69124720D01*
X160075465Y-69232470D01*
X160021590Y-69340219D01*
X159886903Y-69474906D01*
X184086158Y-82498155D02*
X184005346Y-82525093D01*
X183924534Y-82605905D01*
X183870659Y-82713654D01*
X183870659Y-82821404D01*
X183897597Y-82902216D01*
X183978409Y-83036903D01*
X184059221Y-83117715D01*
X184193908Y-83198528D01*
X184274720Y-83225465D01*
X184382470Y-83225465D01*
X184490219Y-83171590D01*
X184544094Y-83117715D01*
X184597969Y-83009966D01*
X184597969Y-82956091D01*
X184409407Y-82767529D01*
X184301658Y-82875279D01*
X184894280Y-82767529D02*
X184328595Y-82201844D01*
X185217529Y-82444280D01*
X184651844Y-81878595D01*
X185486903Y-82174906D02*
X184921218Y-81609221D01*
X185055905Y-81474534D01*
X185163654Y-81420659D01*
X185271404Y-81420659D01*
X185352216Y-81447597D01*
X185486903Y-81528409D01*
X185567715Y-81609221D01*
X185648528Y-81743908D01*
X185675465Y-81824720D01*
X185675465Y-81932470D01*
X185621590Y-82040219D01*
X185486903Y-82174906D01*
X184097722Y-100520592D02*
X184016910Y-100547529D01*
X183936097Y-100628341D01*
X183882223Y-100736091D01*
X183882223Y-100843841D01*
X183909160Y-100924653D01*
X183989972Y-101059340D01*
X184070784Y-101140152D01*
X184205471Y-101220964D01*
X184286284Y-101247902D01*
X184394033Y-101247902D01*
X184501783Y-101194027D01*
X184555658Y-101140152D01*
X184609532Y-101032402D01*
X184609532Y-100978528D01*
X184420971Y-100789966D01*
X184313221Y-100897715D01*
X184905844Y-100789966D02*
X184340158Y-100224280D01*
X184555658Y-100008781D01*
X184636470Y-99981844D01*
X184690345Y-99981844D01*
X184771157Y-100008781D01*
X184851969Y-100089593D01*
X184878906Y-100170406D01*
X184878906Y-100224280D01*
X184851969Y-100305093D01*
X184636470Y-100520592D01*
X185767841Y-99927969D02*
X185444592Y-100251218D01*
X185606216Y-100089593D02*
X185040531Y-99523908D01*
X185067468Y-99658595D01*
X185067468Y-99766345D01*
X185040531Y-99847157D01*
X185687028Y-98877410D02*
X185579279Y-98985160D01*
X185552341Y-99065972D01*
X185552341Y-99119847D01*
X185579279Y-99254534D01*
X185660091Y-99389221D01*
X185875590Y-99604720D01*
X185956402Y-99631658D01*
X186010277Y-99631658D01*
X186091089Y-99604720D01*
X186198839Y-99496971D01*
X186225776Y-99416158D01*
X186225776Y-99362284D01*
X186198839Y-99281471D01*
X186064152Y-99146784D01*
X185983340Y-99119847D01*
X185929465Y-99119847D01*
X185848653Y-99146784D01*
X185740903Y-99254534D01*
X185713966Y-99335346D01*
X185713966Y-99389221D01*
X185740903Y-99470033D01*
X158513096Y-77391218D02*
X158432284Y-77418155D01*
X158351471Y-77498967D01*
X158297597Y-77606717D01*
X158297597Y-77714467D01*
X158324534Y-77795279D01*
X158405346Y-77929966D01*
X158486158Y-78010778D01*
X158620845Y-78091590D01*
X158701658Y-78118528D01*
X158809407Y-78118528D01*
X158917157Y-78064653D01*
X158971032Y-78010778D01*
X159024906Y-77903028D01*
X159024906Y-77849154D01*
X158836345Y-77660592D01*
X158728595Y-77768341D01*
X159321218Y-77660592D02*
X158755532Y-77094906D01*
X158971032Y-76879407D01*
X159051844Y-76852470D01*
X159105719Y-76852470D01*
X159186531Y-76879407D01*
X159267343Y-76960219D01*
X159294280Y-77041032D01*
X159294280Y-77094906D01*
X159267343Y-77175719D01*
X159051844Y-77391218D01*
X159644467Y-76690845D02*
X159563654Y-76717783D01*
X159509780Y-76717783D01*
X159428967Y-76690845D01*
X159402030Y-76663908D01*
X159375093Y-76583096D01*
X159375093Y-76529221D01*
X159402030Y-76448409D01*
X159509780Y-76340659D01*
X159590592Y-76313722D01*
X159644467Y-76313722D01*
X159725279Y-76340659D01*
X159752216Y-76367597D01*
X159779154Y-76448409D01*
X159779154Y-76502284D01*
X159752216Y-76583096D01*
X159644467Y-76690845D01*
X159617529Y-76771658D01*
X159617529Y-76825532D01*
X159644467Y-76906345D01*
X159752216Y-77014094D01*
X159833028Y-77041032D01*
X159886903Y-77041032D01*
X159967715Y-77014094D01*
X160075465Y-76906345D01*
X160102402Y-76825532D01*
X160102402Y-76771658D01*
X160075465Y-76690845D01*
X159967715Y-76583096D01*
X159886903Y-76556158D01*
X159833028Y-76556158D01*
X159752216Y-76583096D01*
X183889847Y-62490592D02*
X184240033Y-62140406D01*
X184266971Y-62544467D01*
X184347783Y-62463654D01*
X184428595Y-62436717D01*
X184482470Y-62436717D01*
X184563282Y-62463654D01*
X184697969Y-62598341D01*
X184724906Y-62679154D01*
X184724906Y-62733028D01*
X184697969Y-62813841D01*
X184536345Y-62975465D01*
X184455532Y-63002402D01*
X184401658Y-63002402D01*
X184401658Y-61978781D02*
X185155905Y-62355905D01*
X184778781Y-61601658D01*
X184913468Y-61466971D02*
X185263654Y-61116784D01*
X185290592Y-61520845D01*
X185371404Y-61440033D01*
X185452216Y-61413096D01*
X185506091Y-61413096D01*
X185586903Y-61440033D01*
X185721590Y-61574720D01*
X185748528Y-61655532D01*
X185748528Y-61709407D01*
X185721590Y-61790219D01*
X185559966Y-61951844D01*
X185479154Y-61978781D01*
X185425279Y-61978781D01*
X183922131Y-59958308D02*
X184272317Y-59608122D01*
X184299255Y-60012183D01*
X184380067Y-59931370D01*
X184460879Y-59904433D01*
X184514754Y-59904433D01*
X184595566Y-59931370D01*
X184730253Y-60066057D01*
X184757190Y-60146870D01*
X184757190Y-60200744D01*
X184730253Y-60281557D01*
X184568629Y-60443181D01*
X184487816Y-60470118D01*
X184433942Y-60470118D01*
X184433942Y-59446497D02*
X185188189Y-59823621D01*
X184811065Y-59069374D01*
X184945752Y-58934687D02*
X185295938Y-58584500D01*
X185322876Y-58988561D01*
X185403688Y-58907749D01*
X185484500Y-58880812D01*
X185538375Y-58880812D01*
X185619187Y-58907749D01*
X185753874Y-59042436D01*
X185780812Y-59123248D01*
X185780812Y-59177123D01*
X185753874Y-59257935D01*
X185592250Y-59419560D01*
X185511438Y-59446497D01*
X185457563Y-59446497D01*
X186023248Y-59096311D02*
X186454247Y-58665312D01*
X186238748Y-58180439D02*
X186427309Y-57991877D01*
X186804433Y-58207377D02*
X186535059Y-58476751D01*
X185969374Y-57911065D01*
X186238748Y-57641691D01*
X187046870Y-57964940D02*
X186481184Y-57399255D01*
X187370118Y-57641691D01*
X186804433Y-57076006D01*
X164490476Y-102523809D02*
X164604761Y-102561904D01*
X164795238Y-102561904D01*
X164871428Y-102523809D01*
X164909523Y-102485714D01*
X164947619Y-102409523D01*
X164947619Y-102333333D01*
X164909523Y-102257142D01*
X164871428Y-102219047D01*
X164795238Y-102180952D01*
X164642857Y-102142857D01*
X164566666Y-102104761D01*
X164528571Y-102066666D01*
X164490476Y-101990476D01*
X164490476Y-101914285D01*
X164528571Y-101838095D01*
X164566666Y-101800000D01*
X164642857Y-101761904D01*
X164833333Y-101761904D01*
X164947619Y-101800000D01*
X165214285Y-101761904D02*
X165404761Y-102561904D01*
X165557142Y-101990476D01*
X165709523Y-102561904D01*
X165900000Y-101761904D01*
X166661904Y-102485714D02*
X166623809Y-102523809D01*
X166509523Y-102561904D01*
X166433333Y-102561904D01*
X166319047Y-102523809D01*
X166242857Y-102447619D01*
X166204761Y-102371428D01*
X166166666Y-102219047D01*
X166166666Y-102104761D01*
X166204761Y-101952380D01*
X166242857Y-101876190D01*
X166319047Y-101800000D01*
X166433333Y-101761904D01*
X166509523Y-101761904D01*
X166623809Y-101800000D01*
X166661904Y-101838095D01*
X167385714Y-102561904D02*
X167004761Y-102561904D01*
X167004761Y-101761904D01*
X167652380Y-102561904D02*
X167652380Y-101761904D01*
X168109523Y-102561904D02*
X167766666Y-102104761D01*
X168109523Y-101761904D02*
X167652380Y-102219047D01*
X184097722Y-75120592D02*
X184016910Y-75147529D01*
X183936097Y-75228341D01*
X183882223Y-75336091D01*
X183882223Y-75443841D01*
X183909160Y-75524653D01*
X183989972Y-75659340D01*
X184070784Y-75740152D01*
X184205471Y-75820964D01*
X184286284Y-75847902D01*
X184394033Y-75847902D01*
X184501783Y-75794027D01*
X184555658Y-75740152D01*
X184609532Y-75632402D01*
X184609532Y-75578528D01*
X184420971Y-75389966D01*
X184313221Y-75497715D01*
X184905844Y-75389966D02*
X184340158Y-74824280D01*
X184555658Y-74608781D01*
X184636470Y-74581844D01*
X184690345Y-74581844D01*
X184771157Y-74608781D01*
X184851969Y-74689593D01*
X184878906Y-74770406D01*
X184878906Y-74824280D01*
X184851969Y-74905093D01*
X184636470Y-75120592D01*
X184932781Y-74339407D02*
X184932781Y-74285532D01*
X184959719Y-74204720D01*
X185094406Y-74070033D01*
X185175218Y-74043096D01*
X185229093Y-74043096D01*
X185309905Y-74070033D01*
X185363780Y-74123908D01*
X185417654Y-74231658D01*
X185417654Y-74878155D01*
X185767841Y-74527969D01*
X185687028Y-73477410D02*
X185579279Y-73585160D01*
X185552341Y-73665972D01*
X185552341Y-73719847D01*
X185579279Y-73854534D01*
X185660091Y-73989221D01*
X185875590Y-74204720D01*
X185956402Y-74231658D01*
X186010277Y-74231658D01*
X186091089Y-74204720D01*
X186198839Y-74096971D01*
X186225776Y-74016158D01*
X186225776Y-73962284D01*
X186198839Y-73881471D01*
X186064152Y-73746784D01*
X185983340Y-73719847D01*
X185929465Y-73719847D01*
X185848653Y-73746784D01*
X185740903Y-73854534D01*
X185713966Y-73935346D01*
X185713966Y-73989221D01*
X185740903Y-74070033D01*
X184097722Y-97980592D02*
X184016910Y-98007529D01*
X183936097Y-98088341D01*
X183882223Y-98196091D01*
X183882223Y-98303841D01*
X183909160Y-98384653D01*
X183989972Y-98519340D01*
X184070784Y-98600152D01*
X184205471Y-98680964D01*
X184286284Y-98707902D01*
X184394033Y-98707902D01*
X184501783Y-98654027D01*
X184555658Y-98600152D01*
X184609532Y-98492402D01*
X184609532Y-98438528D01*
X184420971Y-98249966D01*
X184313221Y-98357715D01*
X184905844Y-98249966D02*
X184340158Y-97684280D01*
X184555658Y-97468781D01*
X184636470Y-97441844D01*
X184690345Y-97441844D01*
X184771157Y-97468781D01*
X184851969Y-97549593D01*
X184878906Y-97630406D01*
X184878906Y-97684280D01*
X184851969Y-97765093D01*
X184636470Y-97980592D01*
X185767841Y-97387969D02*
X185444592Y-97711218D01*
X185606216Y-97549593D02*
X185040531Y-96983908D01*
X185067468Y-97118595D01*
X185067468Y-97226345D01*
X185040531Y-97307157D01*
X185390717Y-96633722D02*
X185767841Y-96256598D01*
X186091089Y-97064720D01*
X157989722Y-100520592D02*
X157908910Y-100547529D01*
X157828097Y-100628341D01*
X157774223Y-100736091D01*
X157774223Y-100843841D01*
X157801160Y-100924653D01*
X157881972Y-101059340D01*
X157962784Y-101140152D01*
X158097471Y-101220964D01*
X158178284Y-101247902D01*
X158286033Y-101247902D01*
X158393783Y-101194027D01*
X158447658Y-101140152D01*
X158501532Y-101032402D01*
X158501532Y-100978528D01*
X158312971Y-100789966D01*
X158205221Y-100897715D01*
X158797844Y-100789966D02*
X158232158Y-100224280D01*
X158447658Y-100008781D01*
X158528470Y-99981844D01*
X158582345Y-99981844D01*
X158663157Y-100008781D01*
X158743969Y-100089593D01*
X158770906Y-100170406D01*
X158770906Y-100224280D01*
X158743969Y-100305093D01*
X158528470Y-100520592D01*
X159659841Y-99927969D02*
X159336592Y-100251218D01*
X159498216Y-100089593D02*
X158932531Y-99523908D01*
X158959468Y-99658595D01*
X158959468Y-99766345D01*
X158932531Y-99847157D01*
X159605966Y-98850473D02*
X159336592Y-99119847D01*
X159579028Y-99416158D01*
X159579028Y-99362284D01*
X159605966Y-99281471D01*
X159740653Y-99146784D01*
X159821465Y-99119847D01*
X159875340Y-99119847D01*
X159956152Y-99146784D01*
X160090839Y-99281471D01*
X160117776Y-99362284D01*
X160117776Y-99416158D01*
X160090839Y-99496971D01*
X159956152Y-99631658D01*
X159875340Y-99658595D01*
X159821465Y-99658595D01*
X158613096Y-74821218D02*
X158532284Y-74848155D01*
X158451471Y-74928967D01*
X158397597Y-75036717D01*
X158397597Y-75144467D01*
X158424534Y-75225279D01*
X158505346Y-75359966D01*
X158586158Y-75440778D01*
X158720845Y-75521590D01*
X158801658Y-75548528D01*
X158909407Y-75548528D01*
X159017157Y-75494653D01*
X159071032Y-75440778D01*
X159124906Y-75333028D01*
X159124906Y-75279154D01*
X158936345Y-75090592D01*
X158828595Y-75198341D01*
X159421218Y-75090592D02*
X158855532Y-74524906D01*
X159071032Y-74309407D01*
X159151844Y-74282470D01*
X159205719Y-74282470D01*
X159286531Y-74309407D01*
X159367343Y-74390219D01*
X159394280Y-74471032D01*
X159394280Y-74524906D01*
X159367343Y-74605719D01*
X159151844Y-74821218D01*
X159367343Y-74013096D02*
X159744467Y-73635972D01*
X160067715Y-74444094D01*
X158513096Y-64691218D02*
X158432284Y-64718155D01*
X158351471Y-64798967D01*
X158297597Y-64906717D01*
X158297597Y-65014467D01*
X158324534Y-65095279D01*
X158405346Y-65229966D01*
X158486158Y-65310778D01*
X158620845Y-65391590D01*
X158701658Y-65418528D01*
X158809407Y-65418528D01*
X158917157Y-65364653D01*
X158971032Y-65310778D01*
X159024906Y-65203028D01*
X159024906Y-65149154D01*
X158836345Y-64960592D01*
X158728595Y-65068341D01*
X159321218Y-64960592D02*
X158755532Y-64394906D01*
X158971032Y-64179407D01*
X159051844Y-64152470D01*
X159105719Y-64152470D01*
X159186531Y-64179407D01*
X159267343Y-64260219D01*
X159294280Y-64341032D01*
X159294280Y-64394906D01*
X159267343Y-64475719D01*
X159051844Y-64691218D01*
X159752216Y-63775346D02*
X160129340Y-64152470D01*
X159402030Y-63694534D02*
X159671404Y-64233282D01*
X160021590Y-63883096D01*
X184154788Y-65533773D02*
X184424162Y-65264399D01*
X184262537Y-65749272D02*
X183885414Y-64995025D01*
X184639661Y-65372149D01*
X184828223Y-65183587D02*
X184262537Y-64617902D01*
X184397224Y-64483215D01*
X184504974Y-64429340D01*
X184612723Y-64429340D01*
X184693536Y-64456277D01*
X184828223Y-64537089D01*
X184909035Y-64617902D01*
X184989847Y-64752589D01*
X185016784Y-64833401D01*
X185016784Y-64941150D01*
X184962910Y-65048900D01*
X184828223Y-65183587D01*
X185663282Y-64240778D02*
X185663282Y-64294653D01*
X185609407Y-64402402D01*
X185555532Y-64456277D01*
X185447783Y-64510152D01*
X185340033Y-64510152D01*
X185259221Y-64483215D01*
X185124534Y-64402402D01*
X185043722Y-64321590D01*
X184962910Y-64186903D01*
X184935972Y-64106091D01*
X184935972Y-63998341D01*
X184989847Y-63890592D01*
X185043722Y-63836717D01*
X185151471Y-63782842D01*
X185205346Y-63782842D01*
X185878781Y-64240778D02*
X186309780Y-63809780D01*
X185744094Y-63136345D02*
X186498341Y-63513468D01*
X186121218Y-62759221D01*
X187198714Y-62813096D02*
X186740778Y-62732284D01*
X186875465Y-63136345D02*
X186309780Y-62570659D01*
X186525279Y-62355160D01*
X186606091Y-62328223D01*
X186659966Y-62328223D01*
X186740778Y-62355160D01*
X186821590Y-62435972D01*
X186848528Y-62516784D01*
X186848528Y-62570659D01*
X186821590Y-62651471D01*
X186606091Y-62866971D01*
X187144839Y-62274348D02*
X187333401Y-62085786D01*
X187710524Y-62301285D02*
X187441150Y-62570659D01*
X186875465Y-62004974D01*
X187144839Y-61735600D01*
X187845211Y-61573975D02*
X187656650Y-61762537D01*
X187952961Y-62058849D02*
X187387276Y-61493163D01*
X187656650Y-61223789D01*
X157989722Y-92900592D02*
X157908910Y-92927529D01*
X157828097Y-93008341D01*
X157774223Y-93116091D01*
X157774223Y-93223841D01*
X157801160Y-93304653D01*
X157881972Y-93439340D01*
X157962784Y-93520152D01*
X158097471Y-93600964D01*
X158178284Y-93627902D01*
X158286033Y-93627902D01*
X158393783Y-93574027D01*
X158447658Y-93520152D01*
X158501532Y-93412402D01*
X158501532Y-93358528D01*
X158312971Y-93169966D01*
X158205221Y-93277715D01*
X158797844Y-93169966D02*
X158232158Y-92604280D01*
X158447658Y-92388781D01*
X158528470Y-92361844D01*
X158582345Y-92361844D01*
X158663157Y-92388781D01*
X158743969Y-92469593D01*
X158770906Y-92550406D01*
X158770906Y-92604280D01*
X158743969Y-92685093D01*
X158528470Y-92900592D01*
X159659841Y-92307969D02*
X159336592Y-92631218D01*
X159498216Y-92469593D02*
X158932531Y-91903908D01*
X158959468Y-92038595D01*
X158959468Y-92146345D01*
X158932531Y-92227157D01*
X159282717Y-91553722D02*
X159632903Y-91203536D01*
X159659841Y-91607597D01*
X159740653Y-91526784D01*
X159821465Y-91499847D01*
X159875340Y-91499847D01*
X159956152Y-91526784D01*
X160090839Y-91661471D01*
X160117776Y-91742284D01*
X160117776Y-91796158D01*
X160090839Y-91876971D01*
X159929215Y-92038595D01*
X159848402Y-92065532D01*
X159794528Y-92065532D01*
X184086158Y-57098155D02*
X184005346Y-57125093D01*
X183924534Y-57205905D01*
X183870659Y-57313654D01*
X183870659Y-57421404D01*
X183897597Y-57502216D01*
X183978409Y-57636903D01*
X184059221Y-57717715D01*
X184193908Y-57798528D01*
X184274720Y-57825465D01*
X184382470Y-57825465D01*
X184490219Y-57771590D01*
X184544094Y-57717715D01*
X184597969Y-57609966D01*
X184597969Y-57556091D01*
X184409407Y-57367529D01*
X184301658Y-57475279D01*
X184894280Y-57367529D02*
X184328595Y-56801844D01*
X185217529Y-57044280D01*
X184651844Y-56478595D01*
X185486903Y-56774906D02*
X184921218Y-56209221D01*
X185055905Y-56074534D01*
X185163654Y-56020659D01*
X185271404Y-56020659D01*
X185352216Y-56047597D01*
X185486903Y-56128409D01*
X185567715Y-56209221D01*
X185648528Y-56343908D01*
X185675465Y-56424720D01*
X185675465Y-56532470D01*
X185621590Y-56640219D01*
X185486903Y-56774906D01*
X183953129Y-52527309D02*
X184707377Y-52904433D01*
X184330253Y-52150186D01*
X184976751Y-52042436D02*
X185084500Y-51988561D01*
X185138375Y-51988561D01*
X185219187Y-52015499D01*
X185300000Y-52096311D01*
X185326937Y-52177123D01*
X185326937Y-52230998D01*
X185300000Y-52311810D01*
X185084500Y-52527309D01*
X184518815Y-51961624D01*
X184707377Y-51773062D01*
X184788189Y-51746125D01*
X184842064Y-51746125D01*
X184922876Y-51773062D01*
X184976751Y-51826937D01*
X185003688Y-51907749D01*
X185003688Y-51961624D01*
X184976751Y-52042436D01*
X184788189Y-52230998D01*
X185084500Y-51395938D02*
X185542436Y-51853874D01*
X185623248Y-51880812D01*
X185677123Y-51880812D01*
X185757935Y-51853874D01*
X185865685Y-51746125D01*
X185892622Y-51665312D01*
X185892622Y-51611438D01*
X185865685Y-51530625D01*
X185407749Y-51072690D01*
X186188934Y-51369001D02*
X186296683Y-51315126D01*
X186431370Y-51180439D01*
X186458308Y-51099627D01*
X186458308Y-51045752D01*
X186431370Y-50964940D01*
X186377496Y-50911065D01*
X186296683Y-50884128D01*
X186242809Y-50884128D01*
X186161996Y-50911065D01*
X186027309Y-50991877D01*
X185946497Y-51018815D01*
X185892622Y-51018815D01*
X185811810Y-50991877D01*
X185757935Y-50938003D01*
X185730998Y-50857190D01*
X185730998Y-50803316D01*
X185757935Y-50722503D01*
X185892622Y-50587816D01*
X186000372Y-50533942D01*
X184086158Y-95198155D02*
X184005346Y-95225093D01*
X183924534Y-95305905D01*
X183870659Y-95413654D01*
X183870659Y-95521404D01*
X183897597Y-95602216D01*
X183978409Y-95736903D01*
X184059221Y-95817715D01*
X184193908Y-95898528D01*
X184274720Y-95925465D01*
X184382470Y-95925465D01*
X184490219Y-95871590D01*
X184544094Y-95817715D01*
X184597969Y-95709966D01*
X184597969Y-95656091D01*
X184409407Y-95467529D01*
X184301658Y-95575279D01*
X184894280Y-95467529D02*
X184328595Y-94901844D01*
X185217529Y-95144280D01*
X184651844Y-94578595D01*
X185486903Y-94874906D02*
X184921218Y-94309221D01*
X185055905Y-94174534D01*
X185163654Y-94120659D01*
X185271404Y-94120659D01*
X185352216Y-94147597D01*
X185486903Y-94228409D01*
X185567715Y-94309221D01*
X185648528Y-94443908D01*
X185675465Y-94524720D01*
X185675465Y-94632470D01*
X185621590Y-94740219D01*
X185486903Y-94874906D01*
X184151597Y-70740964D02*
X184420971Y-70471590D01*
X184259346Y-70956463D02*
X183882223Y-70202216D01*
X184636470Y-70579340D01*
X184582595Y-69555719D02*
X184501783Y-69582656D01*
X184420971Y-69663468D01*
X184367096Y-69771218D01*
X184367096Y-69878967D01*
X184394033Y-69959780D01*
X184474845Y-70094467D01*
X184555658Y-70175279D01*
X184690345Y-70256091D01*
X184771157Y-70283028D01*
X184878906Y-70283028D01*
X184986656Y-70229154D01*
X185040531Y-70175279D01*
X185094406Y-70067529D01*
X185094406Y-70013654D01*
X184905844Y-69825093D01*
X184798094Y-69932842D01*
X185390717Y-69825093D02*
X184825032Y-69259407D01*
X185713966Y-69501844D01*
X185148280Y-68936158D01*
X185983340Y-69232470D02*
X185417654Y-68666784D01*
X185552341Y-68532097D01*
X185660091Y-68478223D01*
X185767841Y-68478223D01*
X185848653Y-68505160D01*
X185983340Y-68585972D01*
X186064152Y-68666784D01*
X186144964Y-68801471D01*
X186171902Y-68882284D01*
X186171902Y-68990033D01*
X186118027Y-69097783D01*
X185983340Y-69232470D01*
X157843722Y-87820592D02*
X157762910Y-87847529D01*
X157682097Y-87928341D01*
X157628223Y-88036091D01*
X157628223Y-88143841D01*
X157655160Y-88224653D01*
X157735972Y-88359340D01*
X157816784Y-88440152D01*
X157951471Y-88520964D01*
X158032284Y-88547902D01*
X158140033Y-88547902D01*
X158247783Y-88494027D01*
X158301658Y-88440152D01*
X158355532Y-88332402D01*
X158355532Y-88278528D01*
X158166971Y-88089966D01*
X158059221Y-88197715D01*
X158651844Y-88089966D02*
X158086158Y-87524280D01*
X158301658Y-87308781D01*
X158382470Y-87281844D01*
X158436345Y-87281844D01*
X158517157Y-87308781D01*
X158597969Y-87389593D01*
X158624906Y-87470406D01*
X158624906Y-87524280D01*
X158597969Y-87605093D01*
X158382470Y-87820592D01*
X159513841Y-87227969D02*
X159190592Y-87551218D01*
X159352216Y-87389593D02*
X158786531Y-86823908D01*
X158813468Y-86958595D01*
X158813468Y-87066345D01*
X158786531Y-87147157D01*
X160052589Y-86689221D02*
X159729340Y-87012470D01*
X159890964Y-86850845D02*
X159325279Y-86285160D01*
X159352216Y-86419847D01*
X159352216Y-86527597D01*
X159325279Y-86608409D01*
%TO.C,J12*%
X192690476Y-77002380D02*
X192690476Y-77716666D01*
X192642857Y-77859523D01*
X192547619Y-77954761D01*
X192404761Y-78002380D01*
X192309523Y-78002380D01*
X193690476Y-78002380D02*
X193119047Y-78002380D01*
X193404761Y-78002380D02*
X193404761Y-77002380D01*
X193309523Y-77145238D01*
X193214285Y-77240476D01*
X193119047Y-77288095D01*
X194071428Y-77097619D02*
X194119047Y-77050000D01*
X194214285Y-77002380D01*
X194452380Y-77002380D01*
X194547619Y-77050000D01*
X194595238Y-77097619D01*
X194642857Y-77192857D01*
X194642857Y-77288095D01*
X194595238Y-77430952D01*
X194023809Y-78002380D01*
X194642857Y-78002380D01*
X187952380Y-75380952D02*
X186952380Y-75380952D01*
X186952380Y-74714285D02*
X186952380Y-74523809D01*
X187000000Y-74428571D01*
X187095238Y-74333333D01*
X187285714Y-74285714D01*
X187619047Y-74285714D01*
X187809523Y-74333333D01*
X187904761Y-74428571D01*
X187952380Y-74523809D01*
X187952380Y-74714285D01*
X187904761Y-74809523D01*
X187809523Y-74904761D01*
X187619047Y-74952380D01*
X187285714Y-74952380D01*
X187095238Y-74904761D01*
X187000000Y-74809523D01*
X186952380Y-74714285D01*
X188047619Y-74095238D02*
X188047619Y-73333333D01*
X187952380Y-73047619D02*
X187952380Y-72857142D01*
X187904761Y-72761904D01*
X187857142Y-72714285D01*
X187714285Y-72619047D01*
X187523809Y-72571428D01*
X187142857Y-72571428D01*
X187047619Y-72619047D01*
X187000000Y-72666666D01*
X186952380Y-72761904D01*
X186952380Y-72952380D01*
X187000000Y-73047619D01*
X187047619Y-73095238D01*
X187142857Y-73142857D01*
X187380952Y-73142857D01*
X187476190Y-73095238D01*
X187523809Y-73047619D01*
X187571428Y-72952380D01*
X187571428Y-72761904D01*
X187523809Y-72666666D01*
X187476190Y-72619047D01*
X187380952Y-72571428D01*
%TO.C,J11*%
X192690476Y-125002380D02*
X192690476Y-125716666D01*
X192642857Y-125859523D01*
X192547619Y-125954761D01*
X192404761Y-126002380D01*
X192309523Y-126002380D01*
X193690476Y-126002380D02*
X193119047Y-126002380D01*
X193404761Y-126002380D02*
X193404761Y-125002380D01*
X193309523Y-125145238D01*
X193214285Y-125240476D01*
X193119047Y-125288095D01*
X194642857Y-126002380D02*
X194071428Y-126002380D01*
X194357142Y-126002380D02*
X194357142Y-125002380D01*
X194261904Y-125145238D01*
X194166666Y-125240476D01*
X194071428Y-125288095D01*
X187952380Y-123380952D02*
X186952380Y-123380952D01*
X186952380Y-122714285D02*
X186952380Y-122523809D01*
X187000000Y-122428571D01*
X187095238Y-122333333D01*
X187285714Y-122285714D01*
X187619047Y-122285714D01*
X187809523Y-122333333D01*
X187904761Y-122428571D01*
X187952380Y-122523809D01*
X187952380Y-122714285D01*
X187904761Y-122809523D01*
X187809523Y-122904761D01*
X187619047Y-122952380D01*
X187285714Y-122952380D01*
X187095238Y-122904761D01*
X187000000Y-122809523D01*
X186952380Y-122714285D01*
X188047619Y-122095238D02*
X188047619Y-121333333D01*
X186952380Y-121190476D02*
X186952380Y-120571428D01*
X187333333Y-120904761D01*
X187333333Y-120761904D01*
X187380952Y-120666666D01*
X187428571Y-120619047D01*
X187523809Y-120571428D01*
X187761904Y-120571428D01*
X187857142Y-120619047D01*
X187904761Y-120666666D01*
X187952380Y-120761904D01*
X187952380Y-121047619D01*
X187904761Y-121142857D01*
X187857142Y-121190476D01*
%TO.C,J10*%
X192690476Y-101002380D02*
X192690476Y-101716666D01*
X192642857Y-101859523D01*
X192547619Y-101954761D01*
X192404761Y-102002380D01*
X192309523Y-102002380D01*
X193690476Y-102002380D02*
X193119047Y-102002380D01*
X193404761Y-102002380D02*
X193404761Y-101002380D01*
X193309523Y-101145238D01*
X193214285Y-101240476D01*
X193119047Y-101288095D01*
X194309523Y-101002380D02*
X194404761Y-101002380D01*
X194500000Y-101050000D01*
X194547619Y-101097619D01*
X194595238Y-101192857D01*
X194642857Y-101383333D01*
X194642857Y-101621428D01*
X194595238Y-101811904D01*
X194547619Y-101907142D01*
X194500000Y-101954761D01*
X194404761Y-102002380D01*
X194309523Y-102002380D01*
X194214285Y-101954761D01*
X194166666Y-101907142D01*
X194119047Y-101811904D01*
X194071428Y-101621428D01*
X194071428Y-101383333D01*
X194119047Y-101192857D01*
X194166666Y-101097619D01*
X194214285Y-101050000D01*
X194309523Y-101002380D01*
X187952380Y-99380952D02*
X186952380Y-99380952D01*
X186952380Y-98714285D02*
X186952380Y-98523809D01*
X187000000Y-98428571D01*
X187095238Y-98333333D01*
X187285714Y-98285714D01*
X187619047Y-98285714D01*
X187809523Y-98333333D01*
X187904761Y-98428571D01*
X187952380Y-98523809D01*
X187952380Y-98714285D01*
X187904761Y-98809523D01*
X187809523Y-98904761D01*
X187619047Y-98952380D01*
X187285714Y-98952380D01*
X187095238Y-98904761D01*
X187000000Y-98809523D01*
X186952380Y-98714285D01*
X188047619Y-98095238D02*
X188047619Y-97333333D01*
X186952380Y-96666666D02*
X186952380Y-96857142D01*
X187000000Y-96952380D01*
X187047619Y-97000000D01*
X187190476Y-97095238D01*
X187380952Y-97142857D01*
X187761904Y-97142857D01*
X187857142Y-97095238D01*
X187904761Y-97047619D01*
X187952380Y-96952380D01*
X187952380Y-96761904D01*
X187904761Y-96666666D01*
X187857142Y-96619047D01*
X187761904Y-96571428D01*
X187523809Y-96571428D01*
X187428571Y-96619047D01*
X187380952Y-96666666D01*
X187333333Y-96761904D01*
X187333333Y-96952380D01*
X187380952Y-97047619D01*
X187428571Y-97095238D01*
X187523809Y-97142857D01*
%TO.C,J9*%
X193166666Y-85002380D02*
X193166666Y-85716666D01*
X193119047Y-85859523D01*
X193023809Y-85954761D01*
X192880952Y-86002380D01*
X192785714Y-86002380D01*
X193690476Y-86002380D02*
X193880952Y-86002380D01*
X193976190Y-85954761D01*
X194023809Y-85907142D01*
X194119047Y-85764285D01*
X194166666Y-85573809D01*
X194166666Y-85192857D01*
X194119047Y-85097619D01*
X194071428Y-85050000D01*
X193976190Y-85002380D01*
X193785714Y-85002380D01*
X193690476Y-85050000D01*
X193642857Y-85097619D01*
X193595238Y-85192857D01*
X193595238Y-85430952D01*
X193642857Y-85526190D01*
X193690476Y-85573809D01*
X193785714Y-85621428D01*
X193976190Y-85621428D01*
X194071428Y-85573809D01*
X194119047Y-85526190D01*
X194166666Y-85430952D01*
X187952380Y-83380952D02*
X186952380Y-83380952D01*
X186952380Y-82714285D02*
X186952380Y-82523809D01*
X187000000Y-82428571D01*
X187095238Y-82333333D01*
X187285714Y-82285714D01*
X187619047Y-82285714D01*
X187809523Y-82333333D01*
X187904761Y-82428571D01*
X187952380Y-82523809D01*
X187952380Y-82714285D01*
X187904761Y-82809523D01*
X187809523Y-82904761D01*
X187619047Y-82952380D01*
X187285714Y-82952380D01*
X187095238Y-82904761D01*
X187000000Y-82809523D01*
X186952380Y-82714285D01*
X188047619Y-82095238D02*
X188047619Y-81333333D01*
X187380952Y-80952380D02*
X187333333Y-81047619D01*
X187285714Y-81095238D01*
X187190476Y-81142857D01*
X187142857Y-81142857D01*
X187047619Y-81095238D01*
X187000000Y-81047619D01*
X186952380Y-80952380D01*
X186952380Y-80761904D01*
X187000000Y-80666666D01*
X187047619Y-80619047D01*
X187142857Y-80571428D01*
X187190476Y-80571428D01*
X187285714Y-80619047D01*
X187333333Y-80666666D01*
X187380952Y-80761904D01*
X187380952Y-80952380D01*
X187428571Y-81047619D01*
X187476190Y-81095238D01*
X187571428Y-81142857D01*
X187761904Y-81142857D01*
X187857142Y-81095238D01*
X187904761Y-81047619D01*
X187952380Y-80952380D01*
X187952380Y-80761904D01*
X187904761Y-80666666D01*
X187857142Y-80619047D01*
X187761904Y-80571428D01*
X187571428Y-80571428D01*
X187476190Y-80619047D01*
X187428571Y-80666666D01*
X187380952Y-80761904D01*
%TO.C,J8*%
X193166666Y-109002380D02*
X193166666Y-109716666D01*
X193119047Y-109859523D01*
X193023809Y-109954761D01*
X192880952Y-110002380D01*
X192785714Y-110002380D01*
X193785714Y-109430952D02*
X193690476Y-109383333D01*
X193642857Y-109335714D01*
X193595238Y-109240476D01*
X193595238Y-109192857D01*
X193642857Y-109097619D01*
X193690476Y-109050000D01*
X193785714Y-109002380D01*
X193976190Y-109002380D01*
X194071428Y-109050000D01*
X194119047Y-109097619D01*
X194166666Y-109192857D01*
X194166666Y-109240476D01*
X194119047Y-109335714D01*
X194071428Y-109383333D01*
X193976190Y-109430952D01*
X193785714Y-109430952D01*
X193690476Y-109478571D01*
X193642857Y-109526190D01*
X193595238Y-109621428D01*
X193595238Y-109811904D01*
X193642857Y-109907142D01*
X193690476Y-109954761D01*
X193785714Y-110002380D01*
X193976190Y-110002380D01*
X194071428Y-109954761D01*
X194119047Y-109907142D01*
X194166666Y-109811904D01*
X194166666Y-109621428D01*
X194119047Y-109526190D01*
X194071428Y-109478571D01*
X193976190Y-109430952D01*
X187952380Y-107380952D02*
X186952380Y-107380952D01*
X186952380Y-106714285D02*
X186952380Y-106523809D01*
X187000000Y-106428571D01*
X187095238Y-106333333D01*
X187285714Y-106285714D01*
X187619047Y-106285714D01*
X187809523Y-106333333D01*
X187904761Y-106428571D01*
X187952380Y-106523809D01*
X187952380Y-106714285D01*
X187904761Y-106809523D01*
X187809523Y-106904761D01*
X187619047Y-106952380D01*
X187285714Y-106952380D01*
X187095238Y-106904761D01*
X187000000Y-106809523D01*
X186952380Y-106714285D01*
X188047619Y-106095238D02*
X188047619Y-105333333D01*
X186952380Y-104619047D02*
X186952380Y-105095238D01*
X187428571Y-105142857D01*
X187380952Y-105095238D01*
X187333333Y-105000000D01*
X187333333Y-104761904D01*
X187380952Y-104666666D01*
X187428571Y-104619047D01*
X187523809Y-104571428D01*
X187761904Y-104571428D01*
X187857142Y-104619047D01*
X187904761Y-104666666D01*
X187952380Y-104761904D01*
X187952380Y-105000000D01*
X187904761Y-105095238D01*
X187857142Y-105142857D01*
%TO.C,J7*%
X193166666Y-133002380D02*
X193166666Y-133716666D01*
X193119047Y-133859523D01*
X193023809Y-133954761D01*
X192880952Y-134002380D01*
X192785714Y-134002380D01*
X193547619Y-133002380D02*
X194214285Y-133002380D01*
X193785714Y-134002380D01*
X187952380Y-131380952D02*
X186952380Y-131380952D01*
X186952380Y-130714285D02*
X186952380Y-130523809D01*
X187000000Y-130428571D01*
X187095238Y-130333333D01*
X187285714Y-130285714D01*
X187619047Y-130285714D01*
X187809523Y-130333333D01*
X187904761Y-130428571D01*
X187952380Y-130523809D01*
X187952380Y-130714285D01*
X187904761Y-130809523D01*
X187809523Y-130904761D01*
X187619047Y-130952380D01*
X187285714Y-130952380D01*
X187095238Y-130904761D01*
X187000000Y-130809523D01*
X186952380Y-130714285D01*
X188047619Y-130095238D02*
X188047619Y-129333333D01*
X187047619Y-129142857D02*
X187000000Y-129095238D01*
X186952380Y-129000000D01*
X186952380Y-128761904D01*
X187000000Y-128666666D01*
X187047619Y-128619047D01*
X187142857Y-128571428D01*
X187238095Y-128571428D01*
X187380952Y-128619047D01*
X187952380Y-129190476D01*
X187952380Y-128571428D01*
%TO.C,J6*%
X193166666Y-93002380D02*
X193166666Y-93716666D01*
X193119047Y-93859523D01*
X193023809Y-93954761D01*
X192880952Y-94002380D01*
X192785714Y-94002380D01*
X194071428Y-93002380D02*
X193880952Y-93002380D01*
X193785714Y-93050000D01*
X193738095Y-93097619D01*
X193642857Y-93240476D01*
X193595238Y-93430952D01*
X193595238Y-93811904D01*
X193642857Y-93907142D01*
X193690476Y-93954761D01*
X193785714Y-94002380D01*
X193976190Y-94002380D01*
X194071428Y-93954761D01*
X194119047Y-93907142D01*
X194166666Y-93811904D01*
X194166666Y-93573809D01*
X194119047Y-93478571D01*
X194071428Y-93430952D01*
X193976190Y-93383333D01*
X193785714Y-93383333D01*
X193690476Y-93430952D01*
X193642857Y-93478571D01*
X193595238Y-93573809D01*
X187952380Y-91380952D02*
X186952380Y-91380952D01*
X186952380Y-90714285D02*
X186952380Y-90523809D01*
X187000000Y-90428571D01*
X187095238Y-90333333D01*
X187285714Y-90285714D01*
X187619047Y-90285714D01*
X187809523Y-90333333D01*
X187904761Y-90428571D01*
X187952380Y-90523809D01*
X187952380Y-90714285D01*
X187904761Y-90809523D01*
X187809523Y-90904761D01*
X187619047Y-90952380D01*
X187285714Y-90952380D01*
X187095238Y-90904761D01*
X187000000Y-90809523D01*
X186952380Y-90714285D01*
X188047619Y-90095238D02*
X188047619Y-89333333D01*
X186952380Y-89190476D02*
X186952380Y-88523809D01*
X187952380Y-88952380D01*
%TO.C,J5*%
X193166666Y-117002380D02*
X193166666Y-117716666D01*
X193119047Y-117859523D01*
X193023809Y-117954761D01*
X192880952Y-118002380D01*
X192785714Y-118002380D01*
X194119047Y-117002380D02*
X193642857Y-117002380D01*
X193595238Y-117478571D01*
X193642857Y-117430952D01*
X193738095Y-117383333D01*
X193976190Y-117383333D01*
X194071428Y-117430952D01*
X194119047Y-117478571D01*
X194166666Y-117573809D01*
X194166666Y-117811904D01*
X194119047Y-117907142D01*
X194071428Y-117954761D01*
X193976190Y-118002380D01*
X193738095Y-118002380D01*
X193642857Y-117954761D01*
X193595238Y-117907142D01*
X187952380Y-115380952D02*
X186952380Y-115380952D01*
X186952380Y-114714285D02*
X186952380Y-114523809D01*
X187000000Y-114428571D01*
X187095238Y-114333333D01*
X187285714Y-114285714D01*
X187619047Y-114285714D01*
X187809523Y-114333333D01*
X187904761Y-114428571D01*
X187952380Y-114523809D01*
X187952380Y-114714285D01*
X187904761Y-114809523D01*
X187809523Y-114904761D01*
X187619047Y-114952380D01*
X187285714Y-114952380D01*
X187095238Y-114904761D01*
X187000000Y-114809523D01*
X186952380Y-114714285D01*
X188047619Y-114095238D02*
X188047619Y-113333333D01*
X187285714Y-112666666D02*
X187952380Y-112666666D01*
X186904761Y-112904761D02*
X187619047Y-113142857D01*
X187619047Y-112523809D01*
%TO.C,J4*%
X193166666Y-141002380D02*
X193166666Y-141716666D01*
X193119047Y-141859523D01*
X193023809Y-141954761D01*
X192880952Y-142002380D01*
X192785714Y-142002380D01*
X194071428Y-141335714D02*
X194071428Y-142002380D01*
X193833333Y-140954761D02*
X193595238Y-141669047D01*
X194214285Y-141669047D01*
X187952380Y-139380952D02*
X186952380Y-139380952D01*
X186952380Y-138714285D02*
X186952380Y-138523809D01*
X187000000Y-138428571D01*
X187095238Y-138333333D01*
X187285714Y-138285714D01*
X187619047Y-138285714D01*
X187809523Y-138333333D01*
X187904761Y-138428571D01*
X187952380Y-138523809D01*
X187952380Y-138714285D01*
X187904761Y-138809523D01*
X187809523Y-138904761D01*
X187619047Y-138952380D01*
X187285714Y-138952380D01*
X187095238Y-138904761D01*
X187000000Y-138809523D01*
X186952380Y-138714285D01*
X188047619Y-138095238D02*
X188047619Y-137333333D01*
X187952380Y-136571428D02*
X187952380Y-137142857D01*
X187952380Y-136857142D02*
X186952380Y-136857142D01*
X187095238Y-136952380D01*
X187190476Y-137047619D01*
X187238095Y-137142857D01*
%TO.C,J3*%
X163666666Y-140377380D02*
X163666666Y-141091666D01*
X163619047Y-141234523D01*
X163523809Y-141329761D01*
X163380952Y-141377380D01*
X163285714Y-141377380D01*
X164047619Y-140377380D02*
X164666666Y-140377380D01*
X164333333Y-140758333D01*
X164476190Y-140758333D01*
X164571428Y-140805952D01*
X164619047Y-140853571D01*
X164666666Y-140948809D01*
X164666666Y-141186904D01*
X164619047Y-141282142D01*
X164571428Y-141329761D01*
X164476190Y-141377380D01*
X164190476Y-141377380D01*
X164095238Y-141329761D01*
X164047619Y-141282142D01*
X171702380Y-147964285D02*
X170702380Y-147964285D01*
X170797619Y-147535714D02*
X170750000Y-147488095D01*
X170702380Y-147392857D01*
X170702380Y-147154761D01*
X170750000Y-147059523D01*
X170797619Y-147011904D01*
X170892857Y-146964285D01*
X170988095Y-146964285D01*
X171130952Y-147011904D01*
X171702380Y-147583333D01*
X171702380Y-146964285D01*
X171607142Y-145964285D02*
X171654761Y-146011904D01*
X171702380Y-146154761D01*
X171702380Y-146250000D01*
X171654761Y-146392857D01*
X171559523Y-146488095D01*
X171464285Y-146535714D01*
X171273809Y-146583333D01*
X171130952Y-146583333D01*
X170940476Y-146535714D01*
X170845238Y-146488095D01*
X170750000Y-146392857D01*
X170702380Y-146250000D01*
X170702380Y-146154761D01*
X170750000Y-146011904D01*
X170797619Y-145964285D01*
X171797619Y-145773809D02*
X171797619Y-145011904D01*
X171607142Y-144202380D02*
X171654761Y-144250000D01*
X171702380Y-144392857D01*
X171702380Y-144488095D01*
X171654761Y-144630952D01*
X171559523Y-144726190D01*
X171464285Y-144773809D01*
X171273809Y-144821428D01*
X171130952Y-144821428D01*
X170940476Y-144773809D01*
X170845238Y-144726190D01*
X170750000Y-144630952D01*
X170702380Y-144488095D01*
X170702380Y-144392857D01*
X170750000Y-144250000D01*
X170797619Y-144202380D01*
X171702380Y-143630952D02*
X171654761Y-143726190D01*
X171607142Y-143773809D01*
X171511904Y-143821428D01*
X171226190Y-143821428D01*
X171130952Y-143773809D01*
X171083333Y-143726190D01*
X171035714Y-143630952D01*
X171035714Y-143488095D01*
X171083333Y-143392857D01*
X171130952Y-143345238D01*
X171226190Y-143297619D01*
X171511904Y-143297619D01*
X171607142Y-143345238D01*
X171654761Y-143392857D01*
X171702380Y-143488095D01*
X171702380Y-143630952D01*
X171035714Y-142869047D02*
X171702380Y-142869047D01*
X171130952Y-142869047D02*
X171083333Y-142821428D01*
X171035714Y-142726190D01*
X171035714Y-142583333D01*
X171083333Y-142488095D01*
X171178571Y-142440476D01*
X171702380Y-142440476D01*
X171035714Y-141964285D02*
X171702380Y-141964285D01*
X171130952Y-141964285D02*
X171083333Y-141916666D01*
X171035714Y-141821428D01*
X171035714Y-141678571D01*
X171083333Y-141583333D01*
X171178571Y-141535714D01*
X171702380Y-141535714D01*
%TO.C,J2*%
X163666666Y-121377380D02*
X163666666Y-122091666D01*
X163619047Y-122234523D01*
X163523809Y-122329761D01*
X163380952Y-122377380D01*
X163285714Y-122377380D01*
X164095238Y-121472619D02*
X164142857Y-121425000D01*
X164238095Y-121377380D01*
X164476190Y-121377380D01*
X164571428Y-121425000D01*
X164619047Y-121472619D01*
X164666666Y-121567857D01*
X164666666Y-121663095D01*
X164619047Y-121805952D01*
X164047619Y-122377380D01*
X164666666Y-122377380D01*
X171952380Y-128714285D02*
X170952380Y-128714285D01*
X171047619Y-128285714D02*
X171000000Y-128238095D01*
X170952380Y-128142857D01*
X170952380Y-127904761D01*
X171000000Y-127809523D01*
X171047619Y-127761904D01*
X171142857Y-127714285D01*
X171238095Y-127714285D01*
X171380952Y-127761904D01*
X171952380Y-128333333D01*
X171952380Y-127714285D01*
X171857142Y-126714285D02*
X171904761Y-126761904D01*
X171952380Y-126904761D01*
X171952380Y-127000000D01*
X171904761Y-127142857D01*
X171809523Y-127238095D01*
X171714285Y-127285714D01*
X171523809Y-127333333D01*
X171380952Y-127333333D01*
X171190476Y-127285714D01*
X171095238Y-127238095D01*
X171000000Y-127142857D01*
X170952380Y-127000000D01*
X170952380Y-126904761D01*
X171000000Y-126761904D01*
X171047619Y-126714285D01*
X172047619Y-126523809D02*
X172047619Y-125761904D01*
X171857142Y-124952380D02*
X171904761Y-125000000D01*
X171952380Y-125142857D01*
X171952380Y-125238095D01*
X171904761Y-125380952D01*
X171809523Y-125476190D01*
X171714285Y-125523809D01*
X171523809Y-125571428D01*
X171380952Y-125571428D01*
X171190476Y-125523809D01*
X171095238Y-125476190D01*
X171000000Y-125380952D01*
X170952380Y-125238095D01*
X170952380Y-125142857D01*
X171000000Y-125000000D01*
X171047619Y-124952380D01*
X171952380Y-124380952D02*
X171904761Y-124476190D01*
X171857142Y-124523809D01*
X171761904Y-124571428D01*
X171476190Y-124571428D01*
X171380952Y-124523809D01*
X171333333Y-124476190D01*
X171285714Y-124380952D01*
X171285714Y-124238095D01*
X171333333Y-124142857D01*
X171380952Y-124095238D01*
X171476190Y-124047619D01*
X171761904Y-124047619D01*
X171857142Y-124095238D01*
X171904761Y-124142857D01*
X171952380Y-124238095D01*
X171952380Y-124380952D01*
X171285714Y-123619047D02*
X171952380Y-123619047D01*
X171380952Y-123619047D02*
X171333333Y-123571428D01*
X171285714Y-123476190D01*
X171285714Y-123333333D01*
X171333333Y-123238095D01*
X171428571Y-123190476D01*
X171952380Y-123190476D01*
X171285714Y-122714285D02*
X171952380Y-122714285D01*
X171380952Y-122714285D02*
X171333333Y-122666666D01*
X171285714Y-122571428D01*
X171285714Y-122428571D01*
X171333333Y-122333333D01*
X171428571Y-122285714D01*
X171952380Y-122285714D01*
%TO.C,J1*%
X163666666Y-130902380D02*
X163666666Y-131616666D01*
X163619047Y-131759523D01*
X163523809Y-131854761D01*
X163380952Y-131902380D01*
X163285714Y-131902380D01*
X164666666Y-131902380D02*
X164095238Y-131902380D01*
X164380952Y-131902380D02*
X164380952Y-130902380D01*
X164285714Y-131045238D01*
X164190476Y-131140476D01*
X164095238Y-131188095D01*
X171702380Y-138464285D02*
X170702380Y-138464285D01*
X170797619Y-138035714D02*
X170750000Y-137988095D01*
X170702380Y-137892857D01*
X170702380Y-137654761D01*
X170750000Y-137559523D01*
X170797619Y-137511904D01*
X170892857Y-137464285D01*
X170988095Y-137464285D01*
X171130952Y-137511904D01*
X171702380Y-138083333D01*
X171702380Y-137464285D01*
X171607142Y-136464285D02*
X171654761Y-136511904D01*
X171702380Y-136654761D01*
X171702380Y-136750000D01*
X171654761Y-136892857D01*
X171559523Y-136988095D01*
X171464285Y-137035714D01*
X171273809Y-137083333D01*
X171130952Y-137083333D01*
X170940476Y-137035714D01*
X170845238Y-136988095D01*
X170750000Y-136892857D01*
X170702380Y-136750000D01*
X170702380Y-136654761D01*
X170750000Y-136511904D01*
X170797619Y-136464285D01*
X171797619Y-136273809D02*
X171797619Y-135511904D01*
X171607142Y-134702380D02*
X171654761Y-134750000D01*
X171702380Y-134892857D01*
X171702380Y-134988095D01*
X171654761Y-135130952D01*
X171559523Y-135226190D01*
X171464285Y-135273809D01*
X171273809Y-135321428D01*
X171130952Y-135321428D01*
X170940476Y-135273809D01*
X170845238Y-135226190D01*
X170750000Y-135130952D01*
X170702380Y-134988095D01*
X170702380Y-134892857D01*
X170750000Y-134750000D01*
X170797619Y-134702380D01*
X171702380Y-134130952D02*
X171654761Y-134226190D01*
X171607142Y-134273809D01*
X171511904Y-134321428D01*
X171226190Y-134321428D01*
X171130952Y-134273809D01*
X171083333Y-134226190D01*
X171035714Y-134130952D01*
X171035714Y-133988095D01*
X171083333Y-133892857D01*
X171130952Y-133845238D01*
X171226190Y-133797619D01*
X171511904Y-133797619D01*
X171607142Y-133845238D01*
X171654761Y-133892857D01*
X171702380Y-133988095D01*
X171702380Y-134130952D01*
X171035714Y-133369047D02*
X171702380Y-133369047D01*
X171130952Y-133369047D02*
X171083333Y-133321428D01*
X171035714Y-133226190D01*
X171035714Y-133083333D01*
X171083333Y-132988095D01*
X171178571Y-132940476D01*
X171702380Y-132940476D01*
X171035714Y-132464285D02*
X171702380Y-132464285D01*
X171130952Y-132464285D02*
X171083333Y-132416666D01*
X171035714Y-132321428D01*
X171035714Y-132178571D01*
X171083333Y-132083333D01*
X171178571Y-132035714D01*
X171702380Y-132035714D01*
%TO.C,D1*%
X192261904Y-58382380D02*
X192261904Y-57382380D01*
X192500000Y-57382380D01*
X192642857Y-57430000D01*
X192738095Y-57525238D01*
X192785714Y-57620476D01*
X192833333Y-57810952D01*
X192833333Y-57953809D01*
X192785714Y-58144285D01*
X192738095Y-58239523D01*
X192642857Y-58334761D01*
X192500000Y-58382380D01*
X192261904Y-58382380D01*
X193785714Y-58382380D02*
X193214285Y-58382380D01*
X193500000Y-58382380D02*
X193500000Y-57382380D01*
X193404761Y-57525238D01*
X193309523Y-57620476D01*
X193214285Y-57668095D01*
D12*
%TO.C,R1*%
X193227064Y-66485000D02*
X192772936Y-66485000D01*
X193227064Y-65015000D02*
X192772936Y-65015000D01*
%TO.C,J23*%
X102015000Y-101190000D02*
X102015000Y-113810000D01*
X104275000Y-101200000D02*
X104275000Y-101950000D01*
X107225000Y-101950000D02*
X107225000Y-107500000D01*
X104275000Y-113800000D02*
X104275000Y-113050000D01*
X107985000Y-113810000D02*
X107985000Y-101190000D01*
X102015000Y-113810000D02*
X107985000Y-113810000D01*
X107985000Y-101190000D02*
X102015000Y-101190000D01*
X102775000Y-103000000D02*
X102775000Y-101200000D01*
X102775000Y-104500000D02*
X102025000Y-104500000D01*
X101725000Y-112850000D02*
X101725000Y-114100000D01*
X104275000Y-101950000D02*
X107225000Y-101950000D01*
X102775000Y-112000000D02*
X102025000Y-112000000D01*
X101725000Y-114100000D02*
X102975000Y-114100000D01*
X102025000Y-113800000D02*
X102775000Y-113800000D01*
X102025000Y-101200000D02*
X102025000Y-103000000D01*
X102775000Y-113800000D02*
X102775000Y-112000000D01*
X102025000Y-103000000D02*
X102775000Y-103000000D01*
X104275000Y-113050000D02*
X107225000Y-113050000D01*
X102025000Y-104500000D02*
X102025000Y-110500000D01*
X102025000Y-112000000D02*
X102025000Y-113800000D01*
X102775000Y-101200000D02*
X102025000Y-101200000D01*
X107225000Y-113050000D02*
X107225000Y-107500000D01*
X102775000Y-110500000D02*
X102775000Y-104500000D01*
X102025000Y-110500000D02*
X102775000Y-110500000D01*
%TO.C,J22*%
X143145000Y-120005000D02*
X143145000Y-117405000D01*
X144475000Y-122605000D02*
X143145000Y-122605000D01*
X145745000Y-122605000D02*
X145745000Y-120005000D01*
X145745000Y-122605000D02*
X150885000Y-122605000D01*
X143145000Y-122605000D02*
X143145000Y-121275000D01*
X143145000Y-117405000D02*
X150885000Y-117405000D01*
X150885000Y-122605000D02*
X150885000Y-117405000D01*
X145745000Y-120005000D02*
X143145000Y-120005000D01*
%TO.C,J13*%
X114670000Y-84385000D02*
X117330000Y-84385000D01*
X114670000Y-79245000D02*
X114670000Y-84385000D01*
X114670000Y-77975000D02*
X114670000Y-76645000D01*
X117330000Y-79245000D02*
X117330000Y-84385000D01*
X114670000Y-76645000D02*
X116000000Y-76645000D01*
X114670000Y-79245000D02*
X117330000Y-79245000D01*
%TO.C,J14*%
X143145000Y-74505000D02*
X143145000Y-71905000D01*
X144475000Y-77105000D02*
X143145000Y-77105000D01*
X145745000Y-77105000D02*
X145745000Y-74505000D01*
X145745000Y-77105000D02*
X150885000Y-77105000D01*
X143145000Y-77105000D02*
X143145000Y-75775000D01*
X143145000Y-71905000D02*
X150885000Y-71905000D01*
X150885000Y-77105000D02*
X150885000Y-71905000D01*
X145745000Y-74505000D02*
X143145000Y-74505000D01*
%TO.C,J15*%
X102015000Y-59940000D02*
X102015000Y-72560000D01*
X104275000Y-59950000D02*
X104275000Y-60700000D01*
X107225000Y-60700000D02*
X107225000Y-66250000D01*
X104275000Y-72550000D02*
X104275000Y-71800000D01*
X107985000Y-72560000D02*
X107985000Y-59940000D01*
X102015000Y-72560000D02*
X107985000Y-72560000D01*
X107985000Y-59940000D02*
X102015000Y-59940000D01*
X102775000Y-61750000D02*
X102775000Y-59950000D01*
X102775000Y-63250000D02*
X102025000Y-63250000D01*
X101725000Y-71600000D02*
X101725000Y-72850000D01*
X104275000Y-60700000D02*
X107225000Y-60700000D01*
X102775000Y-70750000D02*
X102025000Y-70750000D01*
X101725000Y-72850000D02*
X102975000Y-72850000D01*
X102025000Y-72550000D02*
X102775000Y-72550000D01*
X102025000Y-59950000D02*
X102025000Y-61750000D01*
X102775000Y-72550000D02*
X102775000Y-70750000D01*
X102025000Y-61750000D02*
X102775000Y-61750000D01*
X104275000Y-71800000D02*
X107225000Y-71800000D01*
X102025000Y-63250000D02*
X102025000Y-69250000D01*
X102025000Y-70750000D02*
X102025000Y-72550000D01*
X102775000Y-59950000D02*
X102025000Y-59950000D01*
X107225000Y-71800000D02*
X107225000Y-66250000D01*
X102775000Y-69250000D02*
X102775000Y-63250000D01*
X102025000Y-69250000D02*
X102775000Y-69250000D01*
%TO.C,J16*%
X143700000Y-62775000D02*
X148000000Y-62775000D01*
X142950000Y-67975000D02*
X144750000Y-67975000D01*
X151250000Y-67975000D02*
X153050000Y-67975000D01*
X144750000Y-67975000D02*
X144750000Y-67225000D01*
X142950000Y-65725000D02*
X143700000Y-65725000D01*
X143700000Y-65725000D02*
X143700000Y-62775000D01*
X146250000Y-67975000D02*
X149750000Y-67975000D01*
X142950000Y-67225000D02*
X142950000Y-67975000D01*
X152100000Y-68275000D02*
X153350000Y-68275000D01*
X142940000Y-67985000D02*
X153060000Y-67985000D01*
X153050000Y-67975000D02*
X153050000Y-67225000D01*
X152300000Y-62775000D02*
X148000000Y-62775000D01*
X146250000Y-67225000D02*
X146250000Y-67975000D01*
X153060000Y-67985000D02*
X153060000Y-62015000D01*
X153050000Y-65725000D02*
X152300000Y-65725000D01*
X152300000Y-65725000D02*
X152300000Y-62775000D01*
X144750000Y-67225000D02*
X142950000Y-67225000D01*
X151250000Y-67225000D02*
X151250000Y-67975000D01*
X149750000Y-67975000D02*
X149750000Y-67225000D01*
X142940000Y-62015000D02*
X142940000Y-67985000D01*
X153050000Y-67225000D02*
X151250000Y-67225000D01*
X149750000Y-67225000D02*
X146250000Y-67225000D01*
X153060000Y-62015000D02*
X142940000Y-62015000D01*
X153350000Y-68275000D02*
X153350000Y-67025000D01*
%TO.C,J19*%
X102025000Y-88000000D02*
X102775000Y-88000000D01*
X102775000Y-88000000D02*
X102775000Y-82000000D01*
X107225000Y-90550000D02*
X107225000Y-85000000D01*
X102775000Y-78700000D02*
X102025000Y-78700000D01*
X102025000Y-89500000D02*
X102025000Y-91300000D01*
X102025000Y-82000000D02*
X102025000Y-88000000D01*
X104275000Y-90550000D02*
X107225000Y-90550000D01*
X102025000Y-80500000D02*
X102775000Y-80500000D01*
X102775000Y-91300000D02*
X102775000Y-89500000D01*
X102025000Y-78700000D02*
X102025000Y-80500000D01*
X102025000Y-91300000D02*
X102775000Y-91300000D01*
X101725000Y-91600000D02*
X102975000Y-91600000D01*
X102775000Y-89500000D02*
X102025000Y-89500000D01*
X104275000Y-79450000D02*
X107225000Y-79450000D01*
X101725000Y-90350000D02*
X101725000Y-91600000D01*
X102775000Y-82000000D02*
X102025000Y-82000000D01*
X102775000Y-80500000D02*
X102775000Y-78700000D01*
X107985000Y-78690000D02*
X102015000Y-78690000D01*
X102015000Y-91310000D02*
X107985000Y-91310000D01*
X107985000Y-91310000D02*
X107985000Y-78690000D01*
X104275000Y-91300000D02*
X104275000Y-90550000D01*
X107225000Y-79450000D02*
X107225000Y-85000000D01*
X104275000Y-78700000D02*
X104275000Y-79450000D01*
X102015000Y-78690000D02*
X102015000Y-91310000D01*
%TO.C,J20*%
X153350000Y-90775000D02*
X153350000Y-89525000D01*
X153060000Y-84515000D02*
X142940000Y-84515000D01*
X149750000Y-89725000D02*
X146250000Y-89725000D01*
X153050000Y-89725000D02*
X151250000Y-89725000D01*
X142940000Y-84515000D02*
X142940000Y-90485000D01*
X149750000Y-90475000D02*
X149750000Y-89725000D01*
X151250000Y-89725000D02*
X151250000Y-90475000D01*
X144750000Y-89725000D02*
X142950000Y-89725000D01*
X152300000Y-88225000D02*
X152300000Y-85275000D01*
X153050000Y-88225000D02*
X152300000Y-88225000D01*
X153060000Y-90485000D02*
X153060000Y-84515000D01*
X146250000Y-89725000D02*
X146250000Y-90475000D01*
X152300000Y-85275000D02*
X148000000Y-85275000D01*
X153050000Y-90475000D02*
X153050000Y-89725000D01*
X142940000Y-90485000D02*
X153060000Y-90485000D01*
X152100000Y-90775000D02*
X153350000Y-90775000D01*
X142950000Y-89725000D02*
X142950000Y-90475000D01*
X146250000Y-90475000D02*
X149750000Y-90475000D01*
X143700000Y-88225000D02*
X143700000Y-85275000D01*
X142950000Y-88225000D02*
X143700000Y-88225000D01*
X144750000Y-90475000D02*
X144750000Y-89725000D01*
X151250000Y-90475000D02*
X153050000Y-90475000D01*
X142950000Y-90475000D02*
X144750000Y-90475000D01*
X143700000Y-85275000D02*
X148000000Y-85275000D01*
%TO.C,J18*%
X145745000Y-97005000D02*
X143145000Y-97005000D01*
X150885000Y-99605000D02*
X150885000Y-94405000D01*
X143145000Y-94405000D02*
X150885000Y-94405000D01*
X143145000Y-99605000D02*
X143145000Y-98275000D01*
X145745000Y-99605000D02*
X150885000Y-99605000D01*
X145745000Y-99605000D02*
X145745000Y-97005000D01*
X144475000Y-99605000D02*
X143145000Y-99605000D01*
X143145000Y-97005000D02*
X143145000Y-94405000D01*
%TO.C,J17*%
X114670000Y-106135000D02*
X117330000Y-106135000D01*
X114670000Y-100995000D02*
X114670000Y-106135000D01*
X114670000Y-99725000D02*
X114670000Y-98395000D01*
X117330000Y-100995000D02*
X117330000Y-106135000D01*
X114670000Y-98395000D02*
X116000000Y-98395000D01*
X114670000Y-100995000D02*
X117330000Y-100995000D01*
%TO.C,J21*%
X114670000Y-128385000D02*
X117330000Y-128385000D01*
X114670000Y-123245000D02*
X114670000Y-128385000D01*
X114670000Y-121975000D02*
X114670000Y-120645000D01*
X117330000Y-123245000D02*
X117330000Y-128385000D01*
X114670000Y-120645000D02*
X116000000Y-120645000D01*
X114670000Y-123245000D02*
X117330000Y-123245000D01*
%TO.C,U3*%
X135370000Y-103660000D02*
X120130000Y-103660000D01*
X135370000Y-93500000D02*
X135370000Y-103660000D01*
X120130000Y-83340000D02*
X135370000Y-83340000D01*
X120130000Y-103660000D02*
X120130000Y-83340000D01*
X135370000Y-83340000D02*
X135370000Y-93500000D01*
%TO.C,J29*%
X142445000Y-61032500D02*
X141845000Y-61032500D01*
X114095000Y-50322500D02*
X114095000Y-59742500D01*
X141095000Y-59742500D02*
X138115000Y-59742500D01*
X120775000Y-59742500D02*
X117795000Y-59742500D01*
X144795000Y-53632500D02*
X114095000Y-53632500D01*
X130935000Y-59742500D02*
X127955000Y-59742500D01*
X144795000Y-59742500D02*
X143195000Y-59742500D01*
X142145000Y-60432500D02*
X142445000Y-61032500D01*
X144795000Y-59742500D02*
X144795000Y-50322500D01*
X136015000Y-59742500D02*
X133035000Y-59742500D01*
X125855000Y-59742500D02*
X122875000Y-59742500D01*
X144795000Y-50322500D02*
X114095000Y-50322500D01*
X141845000Y-61032500D02*
X142145000Y-60432500D01*
X114095000Y-59742500D02*
X115695000Y-59742500D01*
%TO.C,J27*%
X101525000Y-133000000D02*
X102275000Y-133000000D01*
X102275000Y-133000000D02*
X102275000Y-127000000D01*
X106725000Y-135550000D02*
X106725000Y-130000000D01*
X102275000Y-123700000D02*
X101525000Y-123700000D01*
X101525000Y-134500000D02*
X101525000Y-136300000D01*
X101525000Y-127000000D02*
X101525000Y-133000000D01*
X103775000Y-135550000D02*
X106725000Y-135550000D01*
X101525000Y-125500000D02*
X102275000Y-125500000D01*
X102275000Y-136300000D02*
X102275000Y-134500000D01*
X101525000Y-123700000D02*
X101525000Y-125500000D01*
X101525000Y-136300000D02*
X102275000Y-136300000D01*
X101225000Y-136600000D02*
X102475000Y-136600000D01*
X102275000Y-134500000D02*
X101525000Y-134500000D01*
X103775000Y-124450000D02*
X106725000Y-124450000D01*
X101225000Y-135350000D02*
X101225000Y-136600000D01*
X102275000Y-127000000D02*
X101525000Y-127000000D01*
X102275000Y-125500000D02*
X102275000Y-123700000D01*
X107485000Y-123690000D02*
X101515000Y-123690000D01*
X101515000Y-136310000D02*
X107485000Y-136310000D01*
X107485000Y-136310000D02*
X107485000Y-123690000D01*
X103775000Y-136300000D02*
X103775000Y-135550000D01*
X106725000Y-124450000D02*
X106725000Y-130000000D01*
X103775000Y-123700000D02*
X103775000Y-124450000D01*
X101515000Y-123690000D02*
X101515000Y-136310000D01*
%TO.C,J28*%
X153350000Y-135775000D02*
X153350000Y-134525000D01*
X153060000Y-129515000D02*
X142940000Y-129515000D01*
X149750000Y-134725000D02*
X146250000Y-134725000D01*
X153050000Y-134725000D02*
X151250000Y-134725000D01*
X142940000Y-129515000D02*
X142940000Y-135485000D01*
X149750000Y-135475000D02*
X149750000Y-134725000D01*
X151250000Y-134725000D02*
X151250000Y-135475000D01*
X144750000Y-134725000D02*
X142950000Y-134725000D01*
X152300000Y-133225000D02*
X152300000Y-130275000D01*
X153050000Y-133225000D02*
X152300000Y-133225000D01*
X153060000Y-135485000D02*
X153060000Y-129515000D01*
X146250000Y-134725000D02*
X146250000Y-135475000D01*
X152300000Y-130275000D02*
X148000000Y-130275000D01*
X153050000Y-135475000D02*
X153050000Y-134725000D01*
X142940000Y-135485000D02*
X153060000Y-135485000D01*
X152100000Y-135775000D02*
X153350000Y-135775000D01*
X142950000Y-134725000D02*
X142950000Y-135475000D01*
X146250000Y-135475000D02*
X149750000Y-135475000D01*
X143700000Y-133225000D02*
X143700000Y-130275000D01*
X142950000Y-133225000D02*
X143700000Y-133225000D01*
X144750000Y-135475000D02*
X144750000Y-134725000D01*
X151250000Y-135475000D02*
X153050000Y-135475000D01*
X142950000Y-135475000D02*
X144750000Y-135475000D01*
X143700000Y-130275000D02*
X148000000Y-130275000D01*
%TO.C,J25*%
X114670000Y-148135000D02*
X117330000Y-148135000D01*
X114670000Y-142995000D02*
X114670000Y-148135000D01*
X114670000Y-141725000D02*
X114670000Y-140395000D01*
X117330000Y-142995000D02*
X117330000Y-148135000D01*
X114670000Y-140395000D02*
X116000000Y-140395000D01*
X114670000Y-142995000D02*
X117330000Y-142995000D01*
%TO.C,U4*%
X135370000Y-105590000D02*
X135370000Y-115750000D01*
X120130000Y-125910000D02*
X120130000Y-105590000D01*
X120130000Y-105590000D02*
X135370000Y-105590000D01*
X135370000Y-115750000D02*
X135370000Y-125910000D01*
X135370000Y-125910000D02*
X120130000Y-125910000D01*
%TO.C,U2*%
X135370000Y-61340000D02*
X135370000Y-71500000D01*
X120130000Y-81660000D02*
X120130000Y-61340000D01*
X120130000Y-61340000D02*
X135370000Y-61340000D01*
X135370000Y-71500000D02*
X135370000Y-81660000D01*
X135370000Y-81660000D02*
X120130000Y-81660000D01*
%TO.C,J26*%
X145745000Y-142005000D02*
X143145000Y-142005000D01*
X150885000Y-144605000D02*
X150885000Y-139405000D01*
X143145000Y-139405000D02*
X150885000Y-139405000D01*
X143145000Y-144605000D02*
X143145000Y-143275000D01*
X145745000Y-144605000D02*
X150885000Y-144605000D01*
X145745000Y-144605000D02*
X145745000Y-142005000D01*
X144475000Y-144605000D02*
X143145000Y-144605000D01*
X143145000Y-142005000D02*
X143145000Y-139405000D01*
%TO.C,J24*%
X153350000Y-113275000D02*
X153350000Y-112025000D01*
X153060000Y-107015000D02*
X142940000Y-107015000D01*
X149750000Y-112225000D02*
X146250000Y-112225000D01*
X153050000Y-112225000D02*
X151250000Y-112225000D01*
X142940000Y-107015000D02*
X142940000Y-112985000D01*
X149750000Y-112975000D02*
X149750000Y-112225000D01*
X151250000Y-112225000D02*
X151250000Y-112975000D01*
X144750000Y-112225000D02*
X142950000Y-112225000D01*
X152300000Y-110725000D02*
X152300000Y-107775000D01*
X153050000Y-110725000D02*
X152300000Y-110725000D01*
X153060000Y-112985000D02*
X153060000Y-107015000D01*
X146250000Y-112225000D02*
X146250000Y-112975000D01*
X152300000Y-107775000D02*
X148000000Y-107775000D01*
X153050000Y-112975000D02*
X153050000Y-112225000D01*
X142940000Y-112985000D02*
X153060000Y-112985000D01*
X152100000Y-113275000D02*
X153350000Y-113275000D01*
X142950000Y-112225000D02*
X142950000Y-112975000D01*
X146250000Y-112975000D02*
X149750000Y-112975000D01*
X143700000Y-110725000D02*
X143700000Y-107775000D01*
X142950000Y-110725000D02*
X143700000Y-110725000D01*
X144750000Y-112975000D02*
X144750000Y-112225000D01*
X151250000Y-112975000D02*
X153050000Y-112975000D01*
X142950000Y-112975000D02*
X144750000Y-112975000D01*
X143700000Y-107775000D02*
X148000000Y-107775000D01*
%TO.C,J30*%
X154225000Y-51200000D02*
X154225000Y-55500000D01*
X149025000Y-50450000D02*
X149025000Y-52250000D01*
X149025000Y-58750000D02*
X149025000Y-60550000D01*
X149025000Y-52250000D02*
X149775000Y-52250000D01*
X151275000Y-50450000D02*
X151275000Y-51200000D01*
X151275000Y-51200000D02*
X154225000Y-51200000D01*
X149025000Y-53750000D02*
X149025000Y-57250000D01*
X149775000Y-50450000D02*
X149025000Y-50450000D01*
X148725000Y-59600000D02*
X148725000Y-60850000D01*
X149015000Y-50440000D02*
X149015000Y-60560000D01*
X149025000Y-60550000D02*
X149775000Y-60550000D01*
X154225000Y-59800000D02*
X154225000Y-55500000D01*
X149775000Y-53750000D02*
X149025000Y-53750000D01*
X149015000Y-60560000D02*
X154985000Y-60560000D01*
X151275000Y-60550000D02*
X151275000Y-59800000D01*
X151275000Y-59800000D02*
X154225000Y-59800000D01*
X149775000Y-52250000D02*
X149775000Y-50450000D01*
X149775000Y-58750000D02*
X149025000Y-58750000D01*
X149025000Y-57250000D02*
X149775000Y-57250000D01*
X154985000Y-50440000D02*
X149015000Y-50440000D01*
X149775000Y-60550000D02*
X149775000Y-58750000D01*
X149775000Y-57250000D02*
X149775000Y-53750000D01*
X154985000Y-60560000D02*
X154985000Y-50440000D01*
X148725000Y-60850000D02*
X149975000Y-60850000D01*
%TO.C,U5*%
X135370000Y-128340000D02*
X135370000Y-138500000D01*
X120130000Y-148660000D02*
X120130000Y-128340000D01*
X120130000Y-128340000D02*
X135370000Y-128340000D01*
X135370000Y-138500000D02*
X135370000Y-148660000D01*
X135370000Y-148660000D02*
X120130000Y-148660000D01*
%TO.C,U1*%
X182500000Y-91100000D02*
X182500000Y-91500000D01*
X161500000Y-58000000D02*
X161500000Y-58400000D01*
X182500000Y-50500000D02*
X182500000Y-50800000D01*
X161500000Y-78300000D02*
X161500000Y-78700000D01*
X182500000Y-58000000D02*
X182500000Y-58400000D01*
X182500000Y-88500000D02*
X182500000Y-88900000D01*
X182500000Y-96100000D02*
X182500000Y-96500000D01*
X161500000Y-50500000D02*
X161500000Y-50800000D01*
X182500000Y-68200000D02*
X182500000Y-68600000D01*
X182500000Y-93600000D02*
X182500000Y-94000000D01*
X182500000Y-65600000D02*
X182500000Y-66000000D01*
X182500000Y-83400000D02*
X182500000Y-83800000D01*
X161500000Y-88500000D02*
X161500000Y-88900000D01*
X161500000Y-93600000D02*
X161500000Y-94000000D01*
X161500000Y-75800000D02*
X161500000Y-76200000D01*
X161500000Y-65600000D02*
X161500000Y-66000000D01*
X182500000Y-78300000D02*
X182500000Y-78700000D01*
X161500000Y-86000000D02*
X161500000Y-86400000D01*
X182500000Y-63100000D02*
X182500000Y-63500000D01*
X173100000Y-101500000D02*
X173500000Y-101500000D01*
X161500000Y-91100000D02*
X161500000Y-91500000D01*
X182500000Y-55500000D02*
X182500000Y-55900000D01*
X161500000Y-63100000D02*
X161500000Y-63500000D01*
X170500000Y-101500000D02*
X170900000Y-101500000D01*
X161500000Y-80900000D02*
X161500000Y-81300000D01*
X161500000Y-68200000D02*
X161500000Y-68600000D01*
X161500000Y-53167000D02*
X164507000Y-53167000D01*
X161500000Y-83400000D02*
X161500000Y-83800000D01*
X182500000Y-60600000D02*
X182500000Y-61000000D01*
X182500000Y-101500000D02*
X175700000Y-101500000D01*
X182500000Y-73300000D02*
X182500000Y-73700000D01*
X161500000Y-70700000D02*
X161500000Y-71100000D01*
X161500000Y-60600000D02*
X161500000Y-61000000D01*
X161500000Y-98700000D02*
X161500000Y-99100000D01*
X161500000Y-73300000D02*
X161500000Y-73700000D01*
X161500000Y-96100000D02*
X161500000Y-96500000D01*
X161500000Y-50500000D02*
X182500000Y-50500000D01*
X182500000Y-70700000D02*
X182500000Y-71100000D01*
X164507000Y-53167000D02*
X164507000Y-50500000D01*
X182500000Y-52900000D02*
X182500000Y-53300000D01*
X182500000Y-98700000D02*
X182500000Y-99100000D01*
X182500000Y-75800000D02*
X182500000Y-76200000D01*
X168300000Y-101500000D02*
X161500000Y-101500000D01*
X182500000Y-86000000D02*
X182500000Y-86400000D01*
X161500000Y-55500000D02*
X161500000Y-55900000D01*
X161500000Y-52900000D02*
X161500000Y-53300000D01*
X182500000Y-80900000D02*
X182500000Y-81300000D01*
%TO.C,J12*%
X189200000Y-71250000D02*
X193500000Y-71250000D01*
X188450000Y-76450000D02*
X190250000Y-76450000D01*
X196750000Y-76450000D02*
X198550000Y-76450000D01*
X190250000Y-76450000D02*
X190250000Y-75700000D01*
X188450000Y-74200000D02*
X189200000Y-74200000D01*
X189200000Y-74200000D02*
X189200000Y-71250000D01*
X191750000Y-76450000D02*
X195250000Y-76450000D01*
X188450000Y-75700000D02*
X188450000Y-76450000D01*
X197600000Y-76750000D02*
X198850000Y-76750000D01*
X188440000Y-76460000D02*
X198560000Y-76460000D01*
X198550000Y-76450000D02*
X198550000Y-75700000D01*
X197800000Y-71250000D02*
X193500000Y-71250000D01*
X191750000Y-75700000D02*
X191750000Y-76450000D01*
X198560000Y-76460000D02*
X198560000Y-70490000D01*
X198550000Y-74200000D02*
X197800000Y-74200000D01*
X197800000Y-74200000D02*
X197800000Y-71250000D01*
X190250000Y-75700000D02*
X188450000Y-75700000D01*
X196750000Y-75700000D02*
X196750000Y-76450000D01*
X195250000Y-76450000D02*
X195250000Y-75700000D01*
X188440000Y-70490000D02*
X188440000Y-76460000D01*
X198550000Y-75700000D02*
X196750000Y-75700000D01*
X195250000Y-75700000D02*
X191750000Y-75700000D01*
X198560000Y-70490000D02*
X188440000Y-70490000D01*
X198850000Y-76750000D02*
X198850000Y-75500000D01*
%TO.C,J11*%
X189200000Y-119250000D02*
X193500000Y-119250000D01*
X188450000Y-124450000D02*
X190250000Y-124450000D01*
X196750000Y-124450000D02*
X198550000Y-124450000D01*
X190250000Y-124450000D02*
X190250000Y-123700000D01*
X188450000Y-122200000D02*
X189200000Y-122200000D01*
X189200000Y-122200000D02*
X189200000Y-119250000D01*
X191750000Y-124450000D02*
X195250000Y-124450000D01*
X188450000Y-123700000D02*
X188450000Y-124450000D01*
X197600000Y-124750000D02*
X198850000Y-124750000D01*
X188440000Y-124460000D02*
X198560000Y-124460000D01*
X198550000Y-124450000D02*
X198550000Y-123700000D01*
X197800000Y-119250000D02*
X193500000Y-119250000D01*
X191750000Y-123700000D02*
X191750000Y-124450000D01*
X198560000Y-124460000D02*
X198560000Y-118490000D01*
X198550000Y-122200000D02*
X197800000Y-122200000D01*
X197800000Y-122200000D02*
X197800000Y-119250000D01*
X190250000Y-123700000D02*
X188450000Y-123700000D01*
X196750000Y-123700000D02*
X196750000Y-124450000D01*
X195250000Y-124450000D02*
X195250000Y-123700000D01*
X188440000Y-118490000D02*
X188440000Y-124460000D01*
X198550000Y-123700000D02*
X196750000Y-123700000D01*
X195250000Y-123700000D02*
X191750000Y-123700000D01*
X198560000Y-118490000D02*
X188440000Y-118490000D01*
X198850000Y-124750000D02*
X198850000Y-123500000D01*
%TO.C,J10*%
X189200000Y-95250000D02*
X193500000Y-95250000D01*
X188450000Y-100450000D02*
X190250000Y-100450000D01*
X196750000Y-100450000D02*
X198550000Y-100450000D01*
X190250000Y-100450000D02*
X190250000Y-99700000D01*
X188450000Y-98200000D02*
X189200000Y-98200000D01*
X189200000Y-98200000D02*
X189200000Y-95250000D01*
X191750000Y-100450000D02*
X195250000Y-100450000D01*
X188450000Y-99700000D02*
X188450000Y-100450000D01*
X197600000Y-100750000D02*
X198850000Y-100750000D01*
X188440000Y-100460000D02*
X198560000Y-100460000D01*
X198550000Y-100450000D02*
X198550000Y-99700000D01*
X197800000Y-95250000D02*
X193500000Y-95250000D01*
X191750000Y-99700000D02*
X191750000Y-100450000D01*
X198560000Y-100460000D02*
X198560000Y-94490000D01*
X198550000Y-98200000D02*
X197800000Y-98200000D01*
X197800000Y-98200000D02*
X197800000Y-95250000D01*
X190250000Y-99700000D02*
X188450000Y-99700000D01*
X196750000Y-99700000D02*
X196750000Y-100450000D01*
X195250000Y-100450000D02*
X195250000Y-99700000D01*
X188440000Y-94490000D02*
X188440000Y-100460000D01*
X198550000Y-99700000D02*
X196750000Y-99700000D01*
X195250000Y-99700000D02*
X191750000Y-99700000D01*
X198560000Y-94490000D02*
X188440000Y-94490000D01*
X198850000Y-100750000D02*
X198850000Y-99500000D01*
%TO.C,J9*%
X189200000Y-79250000D02*
X193500000Y-79250000D01*
X188450000Y-84450000D02*
X190250000Y-84450000D01*
X196750000Y-84450000D02*
X198550000Y-84450000D01*
X190250000Y-84450000D02*
X190250000Y-83700000D01*
X188450000Y-82200000D02*
X189200000Y-82200000D01*
X189200000Y-82200000D02*
X189200000Y-79250000D01*
X191750000Y-84450000D02*
X195250000Y-84450000D01*
X188450000Y-83700000D02*
X188450000Y-84450000D01*
X197600000Y-84750000D02*
X198850000Y-84750000D01*
X188440000Y-84460000D02*
X198560000Y-84460000D01*
X198550000Y-84450000D02*
X198550000Y-83700000D01*
X197800000Y-79250000D02*
X193500000Y-79250000D01*
X191750000Y-83700000D02*
X191750000Y-84450000D01*
X198560000Y-84460000D02*
X198560000Y-78490000D01*
X198550000Y-82200000D02*
X197800000Y-82200000D01*
X197800000Y-82200000D02*
X197800000Y-79250000D01*
X190250000Y-83700000D02*
X188450000Y-83700000D01*
X196750000Y-83700000D02*
X196750000Y-84450000D01*
X195250000Y-84450000D02*
X195250000Y-83700000D01*
X188440000Y-78490000D02*
X188440000Y-84460000D01*
X198550000Y-83700000D02*
X196750000Y-83700000D01*
X195250000Y-83700000D02*
X191750000Y-83700000D01*
X198560000Y-78490000D02*
X188440000Y-78490000D01*
X198850000Y-84750000D02*
X198850000Y-83500000D01*
%TO.C,J8*%
X189200000Y-103250000D02*
X193500000Y-103250000D01*
X188450000Y-108450000D02*
X190250000Y-108450000D01*
X196750000Y-108450000D02*
X198550000Y-108450000D01*
X190250000Y-108450000D02*
X190250000Y-107700000D01*
X188450000Y-106200000D02*
X189200000Y-106200000D01*
X189200000Y-106200000D02*
X189200000Y-103250000D01*
X191750000Y-108450000D02*
X195250000Y-108450000D01*
X188450000Y-107700000D02*
X188450000Y-108450000D01*
X197600000Y-108750000D02*
X198850000Y-108750000D01*
X188440000Y-108460000D02*
X198560000Y-108460000D01*
X198550000Y-108450000D02*
X198550000Y-107700000D01*
X197800000Y-103250000D02*
X193500000Y-103250000D01*
X191750000Y-107700000D02*
X191750000Y-108450000D01*
X198560000Y-108460000D02*
X198560000Y-102490000D01*
X198550000Y-106200000D02*
X197800000Y-106200000D01*
X197800000Y-106200000D02*
X197800000Y-103250000D01*
X190250000Y-107700000D02*
X188450000Y-107700000D01*
X196750000Y-107700000D02*
X196750000Y-108450000D01*
X195250000Y-108450000D02*
X195250000Y-107700000D01*
X188440000Y-102490000D02*
X188440000Y-108460000D01*
X198550000Y-107700000D02*
X196750000Y-107700000D01*
X195250000Y-107700000D02*
X191750000Y-107700000D01*
X198560000Y-102490000D02*
X188440000Y-102490000D01*
X198850000Y-108750000D02*
X198850000Y-107500000D01*
%TO.C,J7*%
X189200000Y-127250000D02*
X193500000Y-127250000D01*
X188450000Y-132450000D02*
X190250000Y-132450000D01*
X196750000Y-132450000D02*
X198550000Y-132450000D01*
X190250000Y-132450000D02*
X190250000Y-131700000D01*
X188450000Y-130200000D02*
X189200000Y-130200000D01*
X189200000Y-130200000D02*
X189200000Y-127250000D01*
X191750000Y-132450000D02*
X195250000Y-132450000D01*
X188450000Y-131700000D02*
X188450000Y-132450000D01*
X197600000Y-132750000D02*
X198850000Y-132750000D01*
X188440000Y-132460000D02*
X198560000Y-132460000D01*
X198550000Y-132450000D02*
X198550000Y-131700000D01*
X197800000Y-127250000D02*
X193500000Y-127250000D01*
X191750000Y-131700000D02*
X191750000Y-132450000D01*
X198560000Y-132460000D02*
X198560000Y-126490000D01*
X198550000Y-130200000D02*
X197800000Y-130200000D01*
X197800000Y-130200000D02*
X197800000Y-127250000D01*
X190250000Y-131700000D02*
X188450000Y-131700000D01*
X196750000Y-131700000D02*
X196750000Y-132450000D01*
X195250000Y-132450000D02*
X195250000Y-131700000D01*
X188440000Y-126490000D02*
X188440000Y-132460000D01*
X198550000Y-131700000D02*
X196750000Y-131700000D01*
X195250000Y-131700000D02*
X191750000Y-131700000D01*
X198560000Y-126490000D02*
X188440000Y-126490000D01*
X198850000Y-132750000D02*
X198850000Y-131500000D01*
%TO.C,J6*%
X189200000Y-87250000D02*
X193500000Y-87250000D01*
X188450000Y-92450000D02*
X190250000Y-92450000D01*
X196750000Y-92450000D02*
X198550000Y-92450000D01*
X190250000Y-92450000D02*
X190250000Y-91700000D01*
X188450000Y-90200000D02*
X189200000Y-90200000D01*
X189200000Y-90200000D02*
X189200000Y-87250000D01*
X191750000Y-92450000D02*
X195250000Y-92450000D01*
X188450000Y-91700000D02*
X188450000Y-92450000D01*
X197600000Y-92750000D02*
X198850000Y-92750000D01*
X188440000Y-92460000D02*
X198560000Y-92460000D01*
X198550000Y-92450000D02*
X198550000Y-91700000D01*
X197800000Y-87250000D02*
X193500000Y-87250000D01*
X191750000Y-91700000D02*
X191750000Y-92450000D01*
X198560000Y-92460000D02*
X198560000Y-86490000D01*
X198550000Y-90200000D02*
X197800000Y-90200000D01*
X197800000Y-90200000D02*
X197800000Y-87250000D01*
X190250000Y-91700000D02*
X188450000Y-91700000D01*
X196750000Y-91700000D02*
X196750000Y-92450000D01*
X195250000Y-92450000D02*
X195250000Y-91700000D01*
X188440000Y-86490000D02*
X188440000Y-92460000D01*
X198550000Y-91700000D02*
X196750000Y-91700000D01*
X195250000Y-91700000D02*
X191750000Y-91700000D01*
X198560000Y-86490000D02*
X188440000Y-86490000D01*
X198850000Y-92750000D02*
X198850000Y-91500000D01*
%TO.C,J5*%
X189200000Y-111250000D02*
X193500000Y-111250000D01*
X188450000Y-116450000D02*
X190250000Y-116450000D01*
X196750000Y-116450000D02*
X198550000Y-116450000D01*
X190250000Y-116450000D02*
X190250000Y-115700000D01*
X188450000Y-114200000D02*
X189200000Y-114200000D01*
X189200000Y-114200000D02*
X189200000Y-111250000D01*
X191750000Y-116450000D02*
X195250000Y-116450000D01*
X188450000Y-115700000D02*
X188450000Y-116450000D01*
X197600000Y-116750000D02*
X198850000Y-116750000D01*
X188440000Y-116460000D02*
X198560000Y-116460000D01*
X198550000Y-116450000D02*
X198550000Y-115700000D01*
X197800000Y-111250000D02*
X193500000Y-111250000D01*
X191750000Y-115700000D02*
X191750000Y-116450000D01*
X198560000Y-116460000D02*
X198560000Y-110490000D01*
X198550000Y-114200000D02*
X197800000Y-114200000D01*
X197800000Y-114200000D02*
X197800000Y-111250000D01*
X190250000Y-115700000D02*
X188450000Y-115700000D01*
X196750000Y-115700000D02*
X196750000Y-116450000D01*
X195250000Y-116450000D02*
X195250000Y-115700000D01*
X188440000Y-110490000D02*
X188440000Y-116460000D01*
X198550000Y-115700000D02*
X196750000Y-115700000D01*
X195250000Y-115700000D02*
X191750000Y-115700000D01*
X198560000Y-110490000D02*
X188440000Y-110490000D01*
X198850000Y-116750000D02*
X198850000Y-115500000D01*
%TO.C,J4*%
X198850000Y-140750000D02*
X198850000Y-139500000D01*
X198560000Y-134490000D02*
X188440000Y-134490000D01*
X195250000Y-139700000D02*
X191750000Y-139700000D01*
X198550000Y-139700000D02*
X196750000Y-139700000D01*
X188440000Y-134490000D02*
X188440000Y-140460000D01*
X195250000Y-140450000D02*
X195250000Y-139700000D01*
X196750000Y-139700000D02*
X196750000Y-140450000D01*
X190250000Y-139700000D02*
X188450000Y-139700000D01*
X197800000Y-138200000D02*
X197800000Y-135250000D01*
X198550000Y-138200000D02*
X197800000Y-138200000D01*
X198560000Y-140460000D02*
X198560000Y-134490000D01*
X191750000Y-139700000D02*
X191750000Y-140450000D01*
X197800000Y-135250000D02*
X193500000Y-135250000D01*
X198550000Y-140450000D02*
X198550000Y-139700000D01*
X188440000Y-140460000D02*
X198560000Y-140460000D01*
X197600000Y-140750000D02*
X198850000Y-140750000D01*
X188450000Y-139700000D02*
X188450000Y-140450000D01*
X191750000Y-140450000D02*
X195250000Y-140450000D01*
X189200000Y-138200000D02*
X189200000Y-135250000D01*
X188450000Y-138200000D02*
X189200000Y-138200000D01*
X190250000Y-140450000D02*
X190250000Y-139700000D01*
X196750000Y-140450000D02*
X198550000Y-140450000D01*
X188450000Y-140450000D02*
X190250000Y-140450000D01*
X189200000Y-135250000D02*
X193500000Y-135250000D01*
%TO.C,J3*%
X170310000Y-142015000D02*
X157690000Y-142015000D01*
X170300000Y-144275000D02*
X169550000Y-144275000D01*
X169550000Y-147225000D02*
X164000000Y-147225000D01*
X157700000Y-144275000D02*
X158450000Y-144275000D01*
X157690000Y-147985000D02*
X170310000Y-147985000D01*
X157690000Y-142015000D02*
X157690000Y-147985000D01*
X170310000Y-147985000D02*
X170310000Y-142015000D01*
X168500000Y-142775000D02*
X170300000Y-142775000D01*
X167000000Y-142775000D02*
X167000000Y-142025000D01*
X158650000Y-141725000D02*
X157400000Y-141725000D01*
X169550000Y-144275000D02*
X169550000Y-147225000D01*
X159500000Y-142775000D02*
X159500000Y-142025000D01*
X157400000Y-141725000D02*
X157400000Y-142975000D01*
X157700000Y-142025000D02*
X157700000Y-142775000D01*
X170300000Y-142025000D02*
X168500000Y-142025000D01*
X157700000Y-142775000D02*
X159500000Y-142775000D01*
X168500000Y-142025000D02*
X168500000Y-142775000D01*
X158450000Y-144275000D02*
X158450000Y-147225000D01*
X167000000Y-142025000D02*
X161000000Y-142025000D01*
X159500000Y-142025000D02*
X157700000Y-142025000D01*
X170300000Y-142775000D02*
X170300000Y-142025000D01*
X158450000Y-147225000D02*
X164000000Y-147225000D01*
X161000000Y-142775000D02*
X167000000Y-142775000D01*
X161000000Y-142025000D02*
X161000000Y-142775000D01*
%TO.C,J2*%
X161000000Y-123025000D02*
X161000000Y-123775000D01*
X161000000Y-123775000D02*
X167000000Y-123775000D01*
X158450000Y-128225000D02*
X164000000Y-128225000D01*
X170300000Y-123775000D02*
X170300000Y-123025000D01*
X159500000Y-123025000D02*
X157700000Y-123025000D01*
X167000000Y-123025000D02*
X161000000Y-123025000D01*
X158450000Y-125275000D02*
X158450000Y-128225000D01*
X168500000Y-123025000D02*
X168500000Y-123775000D01*
X157700000Y-123775000D02*
X159500000Y-123775000D01*
X170300000Y-123025000D02*
X168500000Y-123025000D01*
X157700000Y-123025000D02*
X157700000Y-123775000D01*
X157400000Y-122725000D02*
X157400000Y-123975000D01*
X159500000Y-123775000D02*
X159500000Y-123025000D01*
X169550000Y-125275000D02*
X169550000Y-128225000D01*
X158650000Y-122725000D02*
X157400000Y-122725000D01*
X167000000Y-123775000D02*
X167000000Y-123025000D01*
X168500000Y-123775000D02*
X170300000Y-123775000D01*
X170310000Y-128985000D02*
X170310000Y-123015000D01*
X157690000Y-123015000D02*
X157690000Y-128985000D01*
X157690000Y-128985000D02*
X170310000Y-128985000D01*
X157700000Y-125275000D02*
X158450000Y-125275000D01*
X169550000Y-128225000D02*
X164000000Y-128225000D01*
X170300000Y-125275000D02*
X169550000Y-125275000D01*
X170310000Y-123015000D02*
X157690000Y-123015000D01*
%TO.C,J1*%
X161000000Y-132550000D02*
X161000000Y-133300000D01*
X161000000Y-133300000D02*
X167000000Y-133300000D01*
X158450000Y-137750000D02*
X164000000Y-137750000D01*
X170300000Y-133300000D02*
X170300000Y-132550000D01*
X159500000Y-132550000D02*
X157700000Y-132550000D01*
X167000000Y-132550000D02*
X161000000Y-132550000D01*
X158450000Y-134800000D02*
X158450000Y-137750000D01*
X168500000Y-132550000D02*
X168500000Y-133300000D01*
X157700000Y-133300000D02*
X159500000Y-133300000D01*
X170300000Y-132550000D02*
X168500000Y-132550000D01*
X157700000Y-132550000D02*
X157700000Y-133300000D01*
X157400000Y-132250000D02*
X157400000Y-133500000D01*
X159500000Y-133300000D02*
X159500000Y-132550000D01*
X169550000Y-134800000D02*
X169550000Y-137750000D01*
X158650000Y-132250000D02*
X157400000Y-132250000D01*
X167000000Y-133300000D02*
X167000000Y-132550000D01*
X168500000Y-133300000D02*
X170300000Y-133300000D01*
X170310000Y-138510000D02*
X170310000Y-132540000D01*
X157690000Y-132540000D02*
X157690000Y-138510000D01*
X157690000Y-138510000D02*
X170310000Y-138510000D01*
X157700000Y-134800000D02*
X158450000Y-134800000D01*
X169550000Y-137750000D02*
X164000000Y-137750000D01*
X170300000Y-134800000D02*
X169550000Y-134800000D01*
X170310000Y-132540000D02*
X157690000Y-132540000D01*
%TO.C,D1*%
X190540000Y-60885000D02*
X194600000Y-60885000D01*
X190540000Y-58615000D02*
X190540000Y-60885000D01*
X194600000Y-58615000D02*
X190540000Y-58615000D01*
%TD*%
M02*
