M48
; DRILL file {KiCad (6.0.2)} date Fri Oct 21 14:00:48 2022
; FORMAT={-:-/ absolute / inch / decimal}
; #@! TF.CreationDate,2022-10-21T14:00:48+13:00
; #@! TF.GenerationSoftware,Kicad,Pcbnew,(6.0.2)
; #@! TF.FileFunction,Plated,1,2,PTH
FMAT,2
INCH
; #@! TA.AperFunction,Plated,PTH,ViaDrill
T1C0.0157
; #@! TA.AperFunction,Plated,PTH,ComponentDrill
T2C0.0374
; #@! TA.AperFunction,Plated,PTH,ComponentDrill
T3C0.0394
; #@! TA.AperFunction,Plated,PTH,ComponentDrill
T4C0.0402
; #@! TA.AperFunction,Plated,PTH,ComponentDrill
T5C0.0472
; #@! TA.AperFunction,Plated,PTH,ComponentDrill
T6C0.1260
%
G90
G05
T1
X5.8366Y-3.9567
X5.9646Y-4.0846
X6.0728Y-4.0846
X6.2303Y-2.5098
X6.4469Y-4.124
X6.5354Y-2.5098
X6.5846Y-4.124
X6.8701Y-4.124
X7.126Y-4.124
X7.4606Y-3.7402
T2
X4.0935Y-4.9705
X4.0935Y-5.0689
X4.0935Y-5.1673
X4.0935Y-5.2657
X4.1132Y-2.4606
X4.1132Y-2.5591
X4.1132Y-2.6575
X4.1132Y-2.7559
X4.1132Y-3.1988
X4.1132Y-3.2972
X4.1132Y-3.3957
X4.1132Y-3.4941
X4.1132Y-4.0846
X4.1132Y-4.1831
X4.1132Y-4.2815
X4.1132Y-4.3799
X5.7283Y-2.5797
X5.7283Y-3.4656
X5.7283Y-4.3514
X5.7283Y-5.2372
X5.8268Y-2.5797
X5.8268Y-3.4656
X5.8268Y-4.3514
X5.8268Y-5.2372
X5.9252Y-2.5797
X5.9252Y-3.4656
X5.9252Y-4.3514
X5.9252Y-5.2372
X5.9636Y-2.0866
X5.9636Y-2.185
X5.9636Y-2.2835
X6.3091Y-4.94
X6.3091Y-5.315
X6.3091Y-5.688
X6.4075Y-4.94
X6.4075Y-5.315
X6.4075Y-5.688
X6.5059Y-4.94
X6.5059Y-5.315
X6.5059Y-5.688
X6.6043Y-4.94
X6.6043Y-5.315
X6.6043Y-5.688
X7.5197Y-2.9134
X7.5197Y-3.2283
X7.5197Y-3.5433
X7.5197Y-3.8583
X7.5197Y-4.1732
X7.5197Y-4.4882
X7.5197Y-4.8031
X7.5197Y-5.1181
X7.5197Y-5.4331
X7.6181Y-2.9134
X7.6181Y-3.2283
X7.6181Y-3.5433
X7.6181Y-3.8583
X7.6181Y-4.1732
X7.6181Y-4.4882
X7.6181Y-4.8031
X7.6181Y-5.1181
X7.6181Y-5.4331
X7.7165Y-2.9134
X7.7165Y-3.2283
X7.7165Y-3.5433
X7.7165Y-3.8583
X7.7165Y-4.1732
X7.7165Y-4.4882
X7.7165Y-4.8031
X7.7165Y-5.1181
X7.7165Y-5.4331
T3
X4.5669Y-3.0699
X4.5669Y-3.1699
X4.5669Y-3.2699
X4.5669Y-3.9262
X4.5669Y-4.0262
X4.5669Y-4.1262
X4.5669Y-4.8022
X4.5669Y-4.9022
X4.5669Y-5.0022
X4.5669Y-5.5797
X4.5669Y-5.6797
X4.5669Y-5.7797
X4.7795Y-2.465
X4.7795Y-2.565
X4.7795Y-2.665
X4.7795Y-2.765
X4.7795Y-2.865
X4.7795Y-2.965
X4.7795Y-3.065
X4.7795Y-3.165
X4.7795Y-3.3311
X4.7795Y-3.4311
X4.7795Y-3.5311
X4.7795Y-3.6311
X4.7795Y-3.7311
X4.7795Y-3.8311
X4.7795Y-3.9311
X4.7795Y-4.0311
X4.7795Y-4.2071
X4.7795Y-4.3071
X4.7795Y-4.4071
X4.7795Y-4.5071
X4.7795Y-4.6071
X4.7795Y-4.7071
X4.7795Y-4.8071
X4.7795Y-4.9071
X4.7795Y-5.1028
X4.7795Y-5.2028
X4.7795Y-5.3028
X4.7795Y-5.4028
X4.7795Y-5.5028
X4.7795Y-5.6028
X4.7795Y-5.7028
X4.7795Y-5.8028
X5.2795Y-2.465
X5.2795Y-2.565
X5.2795Y-2.665
X5.2795Y-2.765
X5.2795Y-2.865
X5.2795Y-2.965
X5.2795Y-3.065
X5.2795Y-3.165
X5.2795Y-3.3311
X5.2795Y-3.4311
X5.2795Y-3.5311
X5.2795Y-3.6311
X5.2795Y-3.7311
X5.2795Y-3.8311
X5.2795Y-3.9311
X5.2795Y-4.0311
X5.2795Y-4.2071
X5.2795Y-4.3071
X5.2795Y-4.4071
X5.2795Y-4.5071
X5.2795Y-4.6071
X5.2795Y-4.7071
X5.2795Y-4.8071
X5.2795Y-4.9071
X5.2795Y-5.1028
X5.2795Y-5.2028
X5.2795Y-5.3028
X5.2795Y-5.4028
X5.2795Y-5.5028
X5.2795Y-5.6028
X5.2795Y-5.7028
X5.2795Y-5.8028
X5.688Y-2.8833
X5.688Y-2.9833
X5.688Y-3.7691
X5.688Y-3.8691
X5.688Y-4.6746
X5.688Y-4.7746
X5.688Y-5.5407
X5.688Y-5.6407
X5.788Y-2.8833
X5.788Y-2.9833
X5.788Y-3.7691
X5.788Y-3.8691
X5.788Y-4.6746
X5.788Y-4.7746
X5.788Y-5.5407
X5.788Y-5.6407
X5.888Y-2.8833
X5.888Y-2.9833
X5.888Y-3.7691
X5.888Y-3.8691
X5.888Y-4.6746
X5.888Y-4.7746
X5.888Y-5.5407
X5.888Y-5.6407
T4
X6.4217Y-2.0421
X6.4217Y-2.1421
X6.4217Y-2.2421
X6.4217Y-2.3421
X6.4217Y-2.4421
X6.4217Y-2.5421
X6.4217Y-2.6421
X6.4217Y-2.7421
X6.4217Y-2.8421
X6.4217Y-2.9421
X6.4217Y-3.0421
X6.4217Y-3.1421
X6.4217Y-3.2421
X6.4217Y-3.3421
X6.4217Y-3.4421
X6.4217Y-3.5421
X6.4217Y-3.6421
X6.4217Y-3.7421
X6.4217Y-3.8421
X6.4217Y-3.9421
X6.6717Y-3.9331
X6.7717Y-3.9331
X6.8717Y-3.9331
X7.1217Y-2.0421
X7.1217Y-2.1421
X7.1217Y-2.2421
X7.1217Y-2.3421
X7.1217Y-2.4421
X7.1217Y-2.5421
X7.1217Y-2.6421
X7.1217Y-2.7421
X7.1217Y-2.8421
X7.1217Y-2.9421
X7.1217Y-3.0421
X7.1217Y-3.1421
X7.1217Y-3.2421
X7.1217Y-3.3421
X7.1217Y-3.4421
X7.1217Y-3.5421
X7.1217Y-3.6421
X7.1217Y-3.7421
X7.1217Y-3.8421
X7.1217Y-3.9421
T5
X4.5963Y-2.3005
X4.7963Y-2.3005
X4.9963Y-2.3005
X5.1963Y-2.3005
X5.3963Y-2.3005
X5.5963Y-2.3005
T6
X4.0945Y-2.126
X4.0945Y-5.748
X7.7165Y-2.126
X7.7165Y-5.748
T0
M30
